SplineFontDB: 3.2
FontName: u5h
FullName: u5h
FamilyName: u5h
Weight: Book
Copyright: copyright (c) 2021d=7X5h(sevenso Aksti phaiv), heksadesiml@gmail.com, other fonts as :\nDelius_unicase (designed by natalia raices)\n    => u5.\n        => u5c=>u5h=>u5r=>u5p=>u5ch=>u5v\n        => u8c=>u8h=>u8r=>u8p=>u8ch=>u8v\n        => u2c          =>u2ch          =>u2ch\n        => u2zc\n        \nc -> capital case as like program/heks810 symbols\nh -> LJqwXF continuous , ABCDEF-LJqwXF lost\nrf -> j->H, q->A ,  x->T,  w->D\nr -> f-> N , j->H, q->A ,  x->T,  w->D\np -> capital case no programming symbols yes\nv -> phonetik vokl ordr
Version: 1.002
ItalicAngle: 0
UnderlinePosition: -200
UnderlineWidth: 50
Ascent: 800
Descent: 200
InvalidEm: 0
sfntRevision: 0x00010000
LayerCount: 2
Layer: 0 1 "Back" 1
Layer: 1 1 "Fore" 0
XUID: [1021 467 -1121320856 4019363]
StyleMap: 0x0040
FSType: 0
OS2Version: 2
OS2_WeightWidthSlopeOnly: 0
OS2_UseTypoMetrics: 0
CreationTime: 1314993210
ModificationTime: 1632863620
PfmFamily: 17
TTFWeight: 400
TTFWidth: 5
LineGap: 0
VLineGap: 0
Panose: 2 0 6 3 0 0 0 0 0 0
OS2TypoAscent: 1016
OS2TypoAOffset: 0
OS2TypoDescent: -236
OS2TypoDOffset: 0
OS2TypoLinegap: 0
OS2WinAscent: 1016
OS2WinAOffset: 0
OS2WinDescent: 236
OS2WinDOffset: 0
HheadAscent: 1016
HheadAOffset: 0
HheadDescent: -236
HheadDOffset: 0
OS2SubXSize: 700
OS2SubYSize: 650
OS2SubXOff: 0
OS2SubYOff: 140
OS2SupXSize: 700
OS2SupYSize: 650
OS2SupXOff: 0
OS2SupYOff: 477
OS2StrikeYSize: 50
OS2StrikeYPos: 250
OS2CapHeight: 195
OS2XHeight: 320
OS2FamilyClass: 2560
OS2Vendor: 'pyrs'
OS2CodePages: 00000001.00000000
OS2UnicodeRanges: 00000021.00000000.00000000.00000000
Lookup: 258 0 0 "'kern' Horizontal Kerning in Latin lookup 0" { "'kern' Horizontal Kerning in Latin lookup 0 subtable"  } ['kern' ('DFLT' <'dflt' > 'latn' <'dflt' > ) ]
Lookup: 258 0 0 "'kern' Horizontal Kerning lookup 1" { "'kern' Horizontal Kerning lookup 1 subtable"  } ['kern' () ]
DEI: 91125

StartChar: exclam
Encoding: 33 33 1
Width: 289
Flags: W
LayerCount: 2
Fore
SplineSet
186 95 m 128,-1,1
 199 78 199 78 199 52.5 c 128,-1,2
 199 27 199 27 182 6 c 128,-1,3
 165 -15 165 -15 141 -15 c 128,-1,4
 117 -15 117 -15 103.5 3.5 c 128,-1,5
 90 22 90 22 90 47 c 128,-1,6
 90 72 90 72 106.5 92 c 128,-1,7
 123 112 123 112 148 112 c 128,-1,0
 173 112 173 112 186 95 c 128,-1,1
188 467 m 1,8,-1
 189 266 l 2,9,10
 189 240 189 240 177 225 c 128,-1,11
 165 210 165 210 144 210 c 128,-1,12
 123 210 123 210 111 225 c 128,-1,13
 99 240 99 240 99 266 c 2,14,-1
 101 467 l 1,15,-1
 93 695 l 2,16,17
 93 725 93 725 106.5 742.5 c 128,-1,18
 120 760 120 760 144 760 c 128,-1,19
 168 760 168 760 181.5 742.5 c 128,-1,20
 195 725 195 725 195 695 c 2,21,-1
 188 467 l 1,8,-1
EndSplineSet
EndChar

StartChar: quotedbl
Encoding: 34 34 2
Width: 413
Flags: W
LayerCount: 2
Fore
SplineSet
166 704 m 2,0,-1
 154 596 l 2,1,2
 152 553 152 553 144.5 535 c 128,-1,3
 137 517 137 517 118 517 c 128,-1,4
 99 517 99 517 91.5 535 c 128,-1,5
 84 553 84 553 82 596 c 2,6,-1
 70 704 l 2,7,8
 70 730 70 730 83 745 c 128,-1,9
 96 760 96 760 118 760 c 128,-1,10
 140 760 140 760 153 745 c 128,-1,11
 166 730 166 730 166 704 c 2,0,-1
343 704 m 2,12,-1
 331 596 l 2,13,14
 329 553 329 553 321.5 535 c 128,-1,15
 314 517 314 517 295 517 c 128,-1,16
 276 517 276 517 268.5 535 c 128,-1,17
 261 553 261 553 259 596 c 2,18,-1
 247 704 l 2,19,20
 247 730 247 730 260 745 c 128,-1,21
 273 760 273 760 295 760 c 128,-1,22
 317 760 317 760 330 745 c 128,-1,23
 343 730 343 730 343 704 c 2,12,-1
EndSplineSet
EndChar

StartChar: numbersign
Encoding: 35 35 3
Width: 858
Flags: W
LayerCount: 2
Fore
SplineSet
361 431 m 1,0,1
 332 293 332 293 329 274 c 1,2,-1
 498 274 l 1,3,4
 504 298 504 298 515.5 357.5 c 128,-1,5
 527 417 527 417 530 431 c 1,6,-1
 361 431 l 1,0,1
691 196 m 2,7,-1
 564 199 l 1,8,9
 556 156 556 156 533 35 c 0,10,11
 525 -10 525 -10 488 -10 c 0,12,13
 470 -10 470 -10 459.5 1.5 c 128,-1,14
 449 13 449 13 449 27.5 c 128,-1,15
 449 42 449 42 484 200 c 1,16,-1
 317 200 l 1,17,18
 311 170 311 170 286 35 c 0,19,20
 278 -10 278 -10 241 -10 c 0,21,22
 223 -10 223 -10 212.5 1.5 c 128,-1,23
 202 13 202 13 202 25 c 128,-1,24
 202 37 202 37 208.5 68.5 c 128,-1,25
 215 100 215 100 223.5 140 c 128,-1,26
 232 180 232 180 235 200 c 1,27,-1
 122 196 l 2,28,29
 63 196 63 196 63 238 c 0,30,31
 63 278 63 278 122 278 c 2,32,-1
 249 274 l 1,33,34
 255 298 255 298 266.5 357 c 128,-1,35
 278 416 278 416 281 429 c 1,36,-1
 167 427 l 2,37,38
 108 427 108 427 108 466 c 0,39,40
 108 507 108 507 167 507 c 2,41,-1
 296 504 l 1,42,43
 305 547 305 547 327 668 c 0,44,45
 335 713 335 713 372 713 c 0,46,47
 390 713 390 713 400.5 701.5 c 128,-1,48
 411 690 411 690 411 675 c 128,-1,49
 411 660 411 660 376 503 c 1,50,-1
 543 503 l 1,51,52
 549 533 549 533 574 668 c 0,53,54
 582 713 582 713 619 713 c 0,55,56
 636 713 636 713 647 701.5 c 128,-1,57
 658 690 658 690 658 678 c 128,-1,58
 658 666 658 666 651.5 635 c 128,-1,59
 645 604 645 604 636 563 c 128,-1,60
 627 522 627 522 624 503 c 1,61,-1
 736 507 l 2,62,63
 795 507 795 507 795 466 c 0,64,65
 795 427 795 427 736 427 c 0,66,67
 714 427 714 427 609 430 c 1,68,69
 581 300 581 300 577 275 c 1,70,-1
 691 278 l 2,71,72
 750 278 750 278 750 238 c 0,73,74
 750 196 750 196 691 196 c 2,7,-1
EndSplineSet
EndChar

StartChar: dollar
Encoding: 36 36 4
Width: 624
Flags: W
LayerCount: 2
Fore
SplineSet
505 64 m 128,-1,1
 452 11 452 11 366 -4 c 1,2,3
 366 -85 366 -85 320 -85 c 128,-1,4
 274 -85 274 -85 274 -7 c 1,5,6
 195 0 195 0 131 39.5 c 128,-1,7
 67 79 67 79 67 115 c 0,8,9
 67 133 67 133 79 145 c 128,-1,10
 91 157 91 157 108.5 157 c 128,-1,11
 126 157 126 157 144 146 c 128,-1,12
 162 135 162 135 176 121.5 c 128,-1,13
 190 108 190 108 217 95 c 128,-1,14
 244 82 244 82 276 78 c 1,15,16
 279 267 279 267 279 345 c 1,17,18
 199 389 199 389 160.5 421 c 128,-1,19
 122 453 122 453 107.5 482 c 128,-1,20
 93 511 93 511 93 545 c 0,21,22
 93 607 93 607 143.5 655 c 128,-1,23
 194 703 194 703 273 715 c 1,24,25
 273 802 273 802 319 802 c 128,-1,26
 365 802 365 802 365 715 c 1,27,28
 429 707 429 707 473.5 680 c 128,-1,29
 518 653 518 653 518 622 c 0,30,31
 518 603 518 603 506 592 c 128,-1,32
 494 581 494 581 473 581 c 128,-1,33
 452 581 452 581 420 602 c 128,-1,34
 388 623 388 623 362 630 c 1,35,36
 359 456 359 456 359 400 c 1,37,38
 405 375 405 375 432.5 358 c 128,-1,39
 460 341 460 341 493 314 c 0,40,41
 558 261 558 261 558 189 c 128,-1,0
 558 117 558 117 505 64 c 128,-1,1
462 188 m 0,42,43
 462 243 462 243 359 301 c 1,44,45
 359 299 359 299 363 83 c 1,46,47
 407 95 407 95 434.5 122 c 128,-1,48
 462 149 462 149 462 188 c 0,42,43
213.5 598 m 128,-1,50
 189 575 189 575 189 546 c 128,-1,51
 189 517 189 517 211.5 494 c 128,-1,52
 234 471 234 471 279 443 c 1,53,54
 275 623 275 623 275 630 c 1,55,49
 238 621 238 621 213.5 598 c 128,-1,50
EndSplineSet
EndChar

StartChar: percent
Encoding: 37 37 5
Width: 874
Flags: W
LayerCount: 2
Fore
SplineSet
620 700 m 0,0,1
 620 650 620 650 562 589 c 0,2,3
 561 586 561 586 512 445.5 c 128,-1,4
 463 305 463 305 415 166 c 128,-1,5
 367 27 367 27 363 18 c 0,6,7
 350 -15 350 -15 317 -15 c 0,8,9
 301 -15 301 -15 289 -4 c 128,-1,10
 277 7 277 7 277 25 c 128,-1,11
 277 43 277 43 302 104 c 0,12,13
 406 361 406 361 469 555 c 1,14,15
 451 552 451 552 426.5 552 c 128,-1,16
 402 552 402 552 364 564 c 1,17,18
 366 548 366 548 366 537 c 0,19,20
 366 463 366 463 324 412.5 c 128,-1,21
 282 362 282 362 214 362 c 128,-1,22
 146 362 146 362 104.5 411 c 128,-1,23
 63 460 63 460 63 535.5 c 128,-1,24
 63 611 63 611 106 662 c 128,-1,25
 149 713 149 713 216 713 c 0,26,27
 247 713 247 713 275.5 699 c 128,-1,28
 304 685 304 685 322 668 c 0,29,30
 372 624 372 624 418 624 c 128,-1,31
 464 624 464 624 490 638 c 1,32,33
 516 735 516 735 538 752 c 0,34,35
 549 760 549 760 569 760 c 128,-1,36
 589 760 589 760 604.5 743 c 128,-1,37
 620 726 620 726 620 700 c 0,0,1
267.5 462.5 m 128,-1,39
 286 491 286 491 286 536.5 c 128,-1,40
 286 582 286 582 268 611.5 c 128,-1,41
 250 641 250 641 216 641 c 128,-1,42
 182 641 182 641 162.5 612 c 128,-1,43
 143 583 143 583 143 538 c 128,-1,44
 143 493 143 493 162 463.5 c 128,-1,45
 181 434 181 434 215 434 c 128,-1,38
 249 434 249 434 267.5 462.5 c 128,-1,39
770.5 287 m 128,-1,47
 812 238 812 238 812 162.5 c 128,-1,48
 812 87 812 87 769 36 c 128,-1,49
 726 -15 726 -15 657.5 -15 c 128,-1,50
 589 -15 589 -15 547.5 34 c 128,-1,51
 506 83 506 83 506 159 c 128,-1,52
 506 235 506 235 549 285.5 c 128,-1,53
 592 336 592 336 660.5 336 c 128,-1,46
 729 336 729 336 770.5 287 c 128,-1,47
712.5 86 m 128,-1,55
 732 115 732 115 732 160 c 128,-1,56
 732 205 732 205 713 234.5 c 128,-1,57
 694 264 694 264 659.5 264 c 128,-1,58
 625 264 625 264 605.5 235 c 128,-1,59
 586 206 586 206 586 161.5 c 128,-1,60
 586 117 586 117 605.5 87 c 128,-1,61
 625 57 625 57 659 57 c 128,-1,54
 693 57 693 57 712.5 86 c 128,-1,55
EndSplineSet
EndChar

StartChar: ampersand
Encoding: 38 38 6
Width: 835
Flags: W
LayerCount: 2
Fore
SplineSet
455 370 m 2,0,-1
 538 368 l 1,1,2
 706 368 706 368 706 459 c 0,3,4
 706 490 706 490 687.5 510 c 128,-1,5
 669 530 669 530 647 538 c 0,6,7
 588 558 588 558 588 593 c 0,8,9
 588 611 588 611 600 622.5 c 128,-1,10
 612 634 612 634 633 634 c 0,11,12
 690 634 690 634 744 580.5 c 128,-1,13
 798 527 798 527 798 461 c 0,14,15
 798 372 798 372 734.5 330.5 c 128,-1,16
 671 289 671 289 577 287 c 1,17,18
 595 245 595 245 595 203 c 0,19,20
 595 113 595 113 521.5 49 c 128,-1,21
 448 -15 448 -15 332.5 -15 c 128,-1,22
 217 -15 217 -15 139.5 57.5 c 128,-1,23
 62 130 62 130 62 239 c 0,24,25
 62 302 62 302 93 361.5 c 128,-1,26
 124 421 124 421 176 460 c 1,27,28
 112 520 112 520 112 590.5 c 128,-1,29
 112 661 112 661 162.5 713 c 128,-1,30
 213 765 213 765 305 765 c 0,31,32
 362 765 362 765 410.5 737 c 128,-1,33
 459 709 459 709 459 677 c 0,34,35
 459 657 459 657 447 646 c 128,-1,36
 435 635 435 635 419 635 c 128,-1,37
 403 635 403 635 372.5 656.5 c 128,-1,38
 342 678 342 678 301 678 c 128,-1,39
 260 678 260 678 232.5 654.5 c 128,-1,40
 205 631 205 631 205 593 c 0,41,42
 205 536 205 536 257 501 c 1,43,44
 301 505 301 505 304 505 c 0,45,46
 334 505 334 505 353 491 c 128,-1,47
 372 477 372 477 372 452.5 c 128,-1,48
 372 428 372 428 351 413.5 c 128,-1,49
 330 399 330 399 299.5 399 c 128,-1,50
 269 399 269 399 249 409 c 1,51,52
 207 384 207 384 182 341 c 128,-1,53
 157 298 157 298 157 247 c 0,54,55
 157 169 157 169 206 120.5 c 128,-1,56
 255 72 255 72 331 72 c 128,-1,57
 407 72 407 72 454.5 111.5 c 128,-1,58
 502 151 502 151 502 202 c 0,59,60
 502 280 502 280 470 280 c 0,61,62
 452 280 452 280 431.5 270 c 128,-1,63
 411 260 411 260 392.5 260 c 128,-1,64
 374 260 374 260 362 273.5 c 128,-1,65
 350 287 350 287 350 306 c 0,66,67
 350 336 350 336 379.5 353 c 128,-1,68
 409 370 409 370 455 370 c 2,0,-1
EndSplineSet
EndChar

StartChar: quotesingle
Encoding: 39 39 7
Width: 236
Flags: W
LayerCount: 2
Fore
SplineSet
166 704 m 2,0,-1
 154 596 l 2,1,2
 152 553 152 553 144.5 535 c 128,-1,3
 137 517 137 517 118 517 c 128,-1,4
 99 517 99 517 91.5 535 c 128,-1,5
 84 553 84 553 82 596 c 2,6,-1
 70 704 l 2,7,8
 70 730 70 730 83 745 c 128,-1,9
 96 760 96 760 118 760 c 128,-1,10
 140 760 140 760 153 745 c 128,-1,11
 166 730 166 730 166 704 c 2,0,-1
EndSplineSet
EndChar

StartChar: parenleft
Encoding: 40 40 8
Width: 347
Flags: W
LayerCount: 2
Fore
SplineSet
84.5 209 m 128,-1,1
 62 300 62 300 62 385 c 128,-1,2
 62 470 62 470 82.5 552.5 c 128,-1,3
 103 635 103 635 133.5 695.5 c 128,-1,4
 164 756 164 756 198.5 795.5 c 128,-1,5
 233 835 233 835 258.5 835 c 128,-1,6
 284 835 284 835 298 821 c 128,-1,7
 312 807 312 807 312 789.5 c 128,-1,8
 312 772 312 772 295.5 746.5 c 128,-1,9
 279 721 279 721 256 688 c 128,-1,10
 233 655 233 655 210 612 c 128,-1,11
 187 569 187 569 170.5 502.5 c 128,-1,12
 154 436 154 436 154 352.5 c 128,-1,13
 154 269 154 269 176 190 c 128,-1,14
 198 111 198 111 224.5 67 c 128,-1,15
 251 23 251 23 273 -11.5 c 128,-1,16
 295 -46 295 -46 295 -56.5 c 128,-1,17
 295 -67 295 -67 288 -75.5 c 128,-1,18
 281 -84 281 -84 266 -84 c 0,19,20
 241 -84 241 -84 206.5 -45.5 c 128,-1,21
 172 -7 172 -7 139.5 55.5 c 128,-1,0
 107 118 107 118 84.5 209 c 128,-1,1
EndSplineSet
EndChar

StartChar: parenright
Encoding: 41 41 9
Width: 347
Flags: W
LayerCount: 2
Fore
SplineSet
264.5 552.5 m 128,-1,1
 285 470 285 470 285 385 c 128,-1,2
 285 300 285 300 262.5 209 c 128,-1,3
 240 118 240 118 207.5 55.5 c 128,-1,4
 175 -7 175 -7 140.5 -45.5 c 128,-1,5
 106 -84 106 -84 81 -84 c 0,6,7
 66 -84 66 -84 59 -75.5 c 128,-1,8
 52 -67 52 -67 52 -56.5 c 128,-1,9
 52 -46 52 -46 74 -11.5 c 128,-1,10
 96 23 96 23 122.5 67 c 128,-1,11
 149 111 149 111 171 190 c 128,-1,12
 193 269 193 269 193 352.5 c 128,-1,13
 193 436 193 436 176.5 502.5 c 128,-1,14
 160 569 160 569 137 612 c 128,-1,15
 114 655 114 655 91 688 c 128,-1,16
 68 721 68 721 51.5 746.5 c 128,-1,17
 35 772 35 772 35 789.5 c 128,-1,18
 35 807 35 807 49 821 c 128,-1,19
 63 835 63 835 88.5 835 c 128,-1,20
 114 835 114 835 148.5 795.5 c 128,-1,21
 183 756 183 756 213.5 695.5 c 128,-1,0
 244 635 244 635 264.5 552.5 c 128,-1,1
EndSplineSet
EndChar

StartChar: asterisk
Encoding: 42 42 10
Width: 476
Flags: W
LayerCount: 2
Fore
SplineSet
204 642 m 1,0,-1
 194 716 l 2,1,2
 194 738 194 738 206 751.5 c 128,-1,3
 218 765 218 765 238 765 c 128,-1,4
 258 765 258 765 270 751.5 c 128,-1,5
 282 738 282 738 282 721 c 128,-1,6
 282 704 282 704 277 679.5 c 128,-1,7
 272 655 272 655 272 642 c 1,8,9
 279 647 279 647 298 662 c 0,10,11
 338 694 338 694 356 694 c 128,-1,12
 374 694 374 694 386 683 c 128,-1,13
 398 672 398 672 398 653.5 c 128,-1,14
 398 635 398 635 381.5 622.5 c 128,-1,15
 365 610 365 610 334 600 c 128,-1,16
 303 590 303 590 298 587 c 1,17,18
 303 584 303 584 334 574 c 128,-1,19
 365 564 365 564 381.5 551.5 c 128,-1,20
 398 539 398 539 398 520 c 128,-1,21
 398 501 398 501 386 490.5 c 128,-1,22
 374 480 374 480 359.5 480 c 128,-1,23
 345 480 345 480 331 488 c 128,-1,24
 317 496 317 496 297.5 511.5 c 128,-1,25
 278 527 278 527 271 532 c 1,26,-1
 282 460 l 2,27,28
 282 438 282 438 270 424 c 128,-1,29
 258 410 258 410 238 410 c 128,-1,30
 218 410 218 410 206 424 c 128,-1,31
 194 438 194 438 194 454.5 c 128,-1,32
 194 471 194 471 199.5 495.5 c 128,-1,33
 205 520 205 520 205 532 c 1,34,35
 198 527 198 527 178 512 c 0,36,37
 139 480 139 480 120.5 480 c 128,-1,38
 102 480 102 480 90 490.5 c 128,-1,39
 78 501 78 501 78 520 c 128,-1,40
 78 539 78 539 94.5 551.5 c 128,-1,41
 111 564 111 564 142 574 c 128,-1,42
 173 584 173 584 178 587 c 1,43,44
 173 590 173 590 142 600 c 128,-1,45
 111 610 111 610 94.5 622.5 c 128,-1,46
 78 635 78 635 78 653.5 c 128,-1,47
 78 672 78 672 90 683 c 128,-1,48
 102 694 102 694 116 694 c 128,-1,49
 130 694 130 694 144 686 c 128,-1,50
 158 678 158 678 177.5 662.5 c 128,-1,51
 197 647 197 647 204 642 c 1,0,-1
EndSplineSet
EndChar

StartChar: plus
Encoding: 43 43 11
Width: 601
Flags: W
LayerCount: 2
Fore
SplineSet
113 418 m 2,0,-1
 263 415 l 1,1,2
 263 485 263 485 261 522 c 128,-1,3
 259 559 259 559 259 561 c 0,4,5
 259 584 259 584 270.5 597 c 128,-1,6
 282 610 282 610 301 610 c 128,-1,7
 320 610 320 610 332 596.5 c 128,-1,8
 344 583 344 583 344 560 c 0,9,10
 344 558 344 558 343 540 c 0,11,12
 340 486 340 486 340 415 c 1,13,-1
 490 417 l 2,14,15
 512 417 512 417 526 405 c 128,-1,16
 540 393 540 393 540 375 c 128,-1,17
 540 357 540 357 526 345 c 128,-1,18
 512 333 512 333 490 333 c 2,19,-1
 340 336 l 1,20,-1
 344 177 l 2,21,22
 344 154 344 154 332.5 140 c 128,-1,23
 321 126 321 126 301.5 126 c 128,-1,24
 282 126 282 126 270.5 140.5 c 128,-1,25
 259 155 259 155 259 178 c 2,26,-1
 263 337 l 1,27,-1
 113 334 l 2,28,29
 91 334 91 334 77 346 c 128,-1,30
 63 358 63 358 63 376 c 128,-1,31
 63 394 63 394 77 406 c 128,-1,32
 91 418 91 418 113 418 c 2,0,-1
EndSplineSet
EndChar

StartChar: comma
Encoding: 44 44 12
Width: 251
Flags: W
LayerCount: 2
Fore
SplineSet
177 36 m 0,0,1
 177 -18 177 -18 141 -83 c 128,-1,2
 105 -148 105 -148 74 -148 c 128,-1,3
 43 -148 43 -148 43 -122 c 0,4,5
 43 -108 43 -108 58.5 -82.5 c 128,-1,6
 74 -57 74 -57 74 -37.5 c 128,-1,7
 74 -18 74 -18 70 0 c 128,-1,8
 66 18 66 18 66 40.5 c 128,-1,9
 66 63 66 63 82 83.5 c 128,-1,10
 98 104 98 104 123.5 104 c 128,-1,11
 149 104 149 104 163 85.5 c 128,-1,12
 177 67 177 67 177 36 c 0,0,1
EndSplineSet
EndChar

StartChar: hyphen
Encoding: 45 45 13
Width: 498
Flags: W
LayerCount: 2
Fore
SplineSet
249 336 m 1,0,-1
 130 333 l 2,1,2
 108 333 108 333 94.5 345 c 128,-1,3
 81 357 81 357 81 375 c 128,-1,4
 81 393 81 393 94.5 405 c 128,-1,5
 108 417 108 417 130 417 c 2,6,-1
 249 414 l 1,7,-1
 368 417 l 2,8,9
 390 417 390 417 403.5 405 c 128,-1,10
 417 393 417 393 417 375 c 128,-1,11
 417 357 417 357 403.5 345 c 128,-1,12
 390 333 390 333 368 333 c 2,13,14
 368 333 368 333 249 336 c 1,0,-1
EndSplineSet
EndChar

StartChar: period
Encoding: 46 46 14
Width: 254
Flags: W
LayerCount: 2
Fore
SplineSet
168.5 102 m 128,-1,1
 182 85 182 85 182 58.5 c 128,-1,2
 182 32 182 32 165 11 c 128,-1,3
 148 -10 148 -10 123.5 -10 c 128,-1,4
 99 -10 99 -10 85 8 c 128,-1,5
 71 26 71 26 71 52 c 128,-1,6
 71 78 71 78 87.5 98.5 c 128,-1,7
 104 119 104 119 129.5 119 c 128,-1,0
 155 119 155 119 168.5 102 c 128,-1,1
EndSplineSet
EndChar

StartChar: slash
Encoding: 47 47 15
Width: 433
Flags: W
LayerCount: 2
Fore
SplineSet
284.5 822 m 128,-1,1
 298 835 298 835 318 835 c 128,-1,2
 338 835 338 835 349.5 820 c 128,-1,3
 361 805 361 805 361 789 c 128,-1,4
 361 773 361 773 347 717.5 c 128,-1,5
 333 662 333 662 306 558 c 0,6,7
 234 274 234 274 170 -20 c 0,8,9
 163 -51 163 -51 151.5 -67.5 c 128,-1,10
 140 -84 140 -84 118 -84 c 128,-1,11
 96 -84 96 -84 83.5 -70 c 128,-1,12
 71 -56 71 -56 71 -39.5 c 128,-1,13
 71 -23 71 -23 83 25 c 128,-1,14
 95 73 95 73 123 182 c 0,15,16
 189 439 189 439 267 787 c 0,17,0
 271 809 271 809 284.5 822 c 128,-1,1
EndSplineSet
EndChar

StartChar: zero
Encoding: 48 48 16
Width: 728
Flags: W
LayerCount: 2
Fore
SplineSet
559 375 m 0,0,1
 559 456 559 456 538 520 c 1,2,-1
 231 162 l 1,3,4
 285 72 285 72 371 72 c 128,-1,5
 457 72 457 72 508 161 c 0,6,7
 559 249 559 249 559 375 c 0,0,1
504 589 m 1,8,9
 453 678 453 678 367 678 c 128,-1,10
 281 678 281 678 227 588 c 128,-1,11
 173 498 173 498 173 375 c 0,12,13
 173 292 173 292 199 220 c 1,14,-1
 504 589 l 1,8,9
574 650 m 0,15,16
 651 536 651 536 651 374 c 0,17,18
 651 213 651 213 574 100 c 0,19,20
 499 -15 499 -15 367 -15 c 0,21,22
 238 -15 238 -15 156 100 c 1,23,24
 77 218 77 218 77 375 c 0,25,26
 77 476 77 476 110 565 c 0,27,28
 145 655 145 655 212 709 c 0,29,30
 279 765 279 765 366 765 c 0,31,32
 499 765 499 765 574 650 c 0,15,16
EndSplineSet
EndChar

StartChar: one
Encoding: 49 49 17
Width: 467
Flags: W
LayerCount: 2
Fore
SplineSet
331 698 m 2,0,-1
 327 380 l 2,1,2
 327 226 327 226 330.5 147.5 c 128,-1,3
 334 69 334 69 334 61 c 0,4,5
 334 -10 334 -10 283 -10 c 0,6,7
 261 -10 261 -10 249 4 c 128,-1,8
 237 18 237 18 234.5 33.5 c 128,-1,9
 232 49 232 49 232 65.5 c 128,-1,10
 232 82 232 82 235 186 c 128,-1,11
 238 290 238 290 238 379 c 2,12,-1
 237 625 l 1,13,-1
 165 517 l 2,14,15
 160 510 160 510 153 499 c 128,-1,16
 146 488 146 488 142 483 c 128,-1,17
 138 478 138 478 132.5 469.5 c 128,-1,18
 127 461 127 461 123.5 457 c 128,-1,19
 120 453 120 453 115 447 c 128,-1,20
 110 441 110 441 106.5 438.5 c 128,-1,21
 103 436 103 436 98 433 c 0,22,23
 91 428 91 428 76 428 c 128,-1,24
 61 428 61 428 49.5 440 c 128,-1,25
 38 452 38 452 38 469.5 c 128,-1,26
 38 487 38 487 52.5 510 c 128,-1,27
 67 533 67 533 92 564.5 c 128,-1,28
 117 596 117 596 119.5 599.5 c 128,-1,29
 122 603 122 603 126 608 c 128,-1,30
 130 613 130 613 141 627 c 128,-1,31
 152 641 152 641 172.5 669.5 c 128,-1,32
 193 698 193 698 202.5 711 c 128,-1,33
 212 724 212 724 225 738 c 0,34,35
 247 760 247 760 273.5 760 c 128,-1,36
 300 760 300 760 315.5 742 c 128,-1,37
 331 724 331 724 331 698 c 2,0,-1
EndSplineSet
EndChar

StartChar: two
Encoding: 50 50 18
Width: 618
Flags: W
LayerCount: 2
Fore
SplineSet
311 0 m 1,0,-1
 126 -5 l 2,1,2
 97 -5 97 -5 79 8.5 c 128,-1,3
 61 22 61 22 61 51.5 c 128,-1,4
 61 81 61 81 97 132.5 c 128,-1,5
 133 184 133 184 184.5 241 c 128,-1,6
 236 298 236 298 288 356 c 0,7,8
 411 493 411 493 411 562 c 0,9,10
 411 617 411 617 376.5 647.5 c 128,-1,11
 342 678 342 678 292 678 c 0,12,13
 264 678 264 678 241 665.5 c 128,-1,14
 218 653 218 653 207 640.5 c 128,-1,15
 196 628 196 628 184.5 610 c 128,-1,16
 173 592 173 592 167 585 c 0,17,18
 150 565 150 565 130 565 c 128,-1,19
 110 565 110 565 97.5 578 c 128,-1,20
 85 591 85 591 85 608 c 0,21,22
 85 656 85 656 145 710.5 c 128,-1,23
 205 765 205 765 300 765 c 128,-1,24
 395 765 395 765 451 708 c 128,-1,25
 507 651 507 651 507 568 c 0,26,27
 507 518 507 518 466 447.5 c 128,-1,28
 425 377 425 377 374.5 319.5 c 128,-1,29
 324 262 324 262 263 192.5 c 128,-1,30
 202 123 202 123 178 87 c 1,31,32
 233 82 233 82 294 82 c 128,-1,33
 355 82 355 82 419 85.5 c 128,-1,34
 483 89 483 89 501 89 c 128,-1,35
 519 89 519 89 535.5 76.5 c 128,-1,36
 552 64 552 64 552 42 c 128,-1,37
 552 20 552 20 535.5 7.5 c 128,-1,38
 519 -5 519 -5 492 -5 c 2,39,-1
 311 0 l 1,0,-1
EndSplineSet
EndChar

StartChar: three
Encoding: 51 51 19
Width: 628
Flags: W
LayerCount: 2
Fore
SplineSet
305 750 m 1,0,-1
 471 755 l 2,1,2
 498 755 498 755 515 741 c 128,-1,3
 532 727 532 727 532 705 c 0,4,5
 532 663 532 663 463.5 593.5 c 128,-1,6
 395 524 395 524 354 474 c 1,7,8
 449 449 449 449 505 384 c 128,-1,9
 561 319 561 319 561 237 c 0,10,11
 561 137 561 137 491.5 61 c 128,-1,12
 422 -15 422 -15 302 -15 c 0,13,14
 211 -15 211 -15 141.5 35.5 c 128,-1,15
 72 86 72 86 72 129 c 0,16,17
 72 143 72 143 82 154.5 c 128,-1,18
 92 166 92 166 106.5 166 c 128,-1,19
 121 166 121 166 140 151.5 c 128,-1,20
 159 137 159 137 177.5 119 c 128,-1,21
 196 101 196 101 229 86.5 c 128,-1,22
 262 72 262 72 300 72 c 0,23,24
 372 72 372 72 418.5 118.5 c 128,-1,25
 465 165 465 165 465 234.5 c 128,-1,26
 465 304 465 304 416 348 c 128,-1,27
 367 392 367 392 301 398 c 1,28,29
 268 365 268 365 246 353 c 128,-1,30
 224 341 224 341 198.5 341 c 128,-1,31
 173 341 173 341 159 355.5 c 128,-1,32
 145 370 145 370 145 395.5 c 128,-1,33
 145 421 145 421 172 445.5 c 128,-1,34
 199 470 199 470 253 482 c 1,35,36
 321 557 321 557 410 665 c 1,37,38
 381 668 381 668 324.5 668 c 128,-1,39
 268 668 268 668 214 664.5 c 128,-1,40
 160 661 160 661 143.5 661 c 128,-1,41
 127 661 127 661 110.5 673.5 c 128,-1,42
 94 686 94 686 94 708 c 128,-1,43
 94 730 94 730 110.5 742.5 c 128,-1,44
 127 755 127 755 154 755 c 2,45,-1
 305 750 l 1,0,-1
EndSplineSet
EndChar

StartChar: four
Encoding: 52 52 20
Width: 648
Flags: W
LayerCount: 2
Fore
SplineSet
482 329 m 1,0,-1
 533 332 l 2,1,2
 561 332 561 332 577.5 319.5 c 128,-1,3
 594 307 594 307 594 287 c 128,-1,4
 594 267 594 267 577.5 254.5 c 128,-1,5
 561 242 561 242 533 242 c 2,6,-1
 482 243 l 1,7,-1
 488 50 l 2,8,9
 488 23 488 23 475 7 c 128,-1,10
 462 -9 462 -9 438.5 -9 c 128,-1,11
 415 -9 415 -9 402 7 c 128,-1,12
 389 23 389 23 389 50 c 2,13,-1
 393 243 l 1,14,-1
 324 243 l 1,15,-1
 96 242 l 2,16,17
 70 242 70 242 55 256 c 128,-1,18
 40 270 40 270 40 291.5 c 128,-1,19
 40 313 40 313 58.5 341.5 c 128,-1,20
 77 370 77 370 137 446 c 2,21,-1
 341 708 l 2,22,23
 382 760 382 760 425 760 c 0,24,25
 451 760 451 760 469.5 743.5 c 128,-1,26
 488 727 488 727 488 690 c 0,27,28
 488 681 488 681 486 634 c 0,29,30
 482 491 482 491 482 329 c 1,0,-1
157 327 m 1,31,-1
 394 327 l 1,32,33
 394 373 394 373 392.5 492.5 c 128,-1,34
 391 612 391 612 391 629 c 1,35,36
 279 496 279 496 157 327 c 1,31,-1
EndSplineSet
EndChar

StartChar: five
Encoding: 53 53 21
Width: 645
Flags: W
LayerCount: 2
Fore
SplineSet
325 750 m 1,0,-1
 477 755 l 2,1,2
 504 755 504 755 520.5 742.5 c 128,-1,3
 537 730 537 730 537 708 c 128,-1,4
 537 686 537 686 520.5 673.5 c 128,-1,5
 504 661 504 661 487.5 661 c 128,-1,6
 471 661 471 661 416.5 665 c 128,-1,7
 362 669 362 669 331 669 c 128,-1,8
 300 669 300 669 255.5 667 c 128,-1,9
 211 665 211 665 193 665 c 1,10,11
 198 628 198 628 198 560 c 2,12,-1
 193 454 l 1,13,14
 261 498 261 498 337 498 c 0,15,16
 451 498 451 498 514 427.5 c 128,-1,17
 577 357 577 357 577 249.5 c 128,-1,18
 577 142 577 142 506 63.5 c 128,-1,19
 435 -15 435 -15 314 -15 c 0,20,21
 213 -15 213 -15 146 41.5 c 128,-1,22
 79 98 79 98 79 150 c 0,23,24
 79 168 79 168 91.5 181.5 c 128,-1,25
 104 195 104 195 118.5 195 c 128,-1,26
 133 195 133 195 142 190 c 128,-1,27
 151 185 151 185 155.5 179.5 c 128,-1,28
 160 174 160 174 168 162 c 0,29,30
 228 72 228 72 321 72 c 0,31,32
 390 72 390 72 436 126 c 128,-1,33
 482 180 482 180 482 251 c 128,-1,34
 482 322 482 322 441.5 368.5 c 128,-1,35
 401 415 401 415 332 415 c 0,36,37
 267 415 267 415 188 359 c 0,38,39
 162 340 162 340 146 340 c 0,40,41
 96 340 96 340 96 390 c 0,42,43
 96 403 96 403 103 461 c 128,-1,44
 110 519 110 519 110 559.5 c 128,-1,45
 110 600 110 600 104 641 c 128,-1,46
 98 682 98 682 98 699 c 0,47,48
 98 754 98 754 164 754 c 2,49,-1
 325 750 l 1,0,-1
EndSplineSet
EndChar

StartChar: six
Encoding: 54 54 22
Width: 647
Flags: W
LayerCount: 2
Fore
SplineSet
517 414 m 128,-1,1
 579 341 579 341 579 240.5 c 128,-1,2
 579 140 579 140 514 63 c 128,-1,3
 449 -14 449 -14 331 -14 c 128,-1,4
 213 -14 213 -14 145 70.5 c 128,-1,5
 77 155 77 155 77 285 c 0,6,7
 77 481 77 481 188 620.5 c 128,-1,8
 299 760 299 760 466 760 c 0,9,10
 503 760 503 760 522.5 748 c 128,-1,11
 542 736 542 736 542 717 c 0,12,13
 542 669 542 669 477 669 c 0,14,15
 368 669 368 669 286.5 595.5 c 128,-1,16
 205 522 205 522 182 416 c 1,17,18
 251 487 251 487 353 487 c 128,-1,0
 455 487 455 487 517 414 c 128,-1,1
223.5 121 m 128,-1,20
 264 73 264 73 330 73 c 128,-1,21
 396 73 396 73 439.5 120 c 128,-1,22
 483 167 483 167 483 236 c 128,-1,23
 483 305 483 305 441.5 352.5 c 128,-1,24
 400 400 400 400 335 400 c 128,-1,25
 270 400 270 400 226.5 352.5 c 128,-1,26
 183 305 183 305 183 237 c 128,-1,19
 183 169 183 169 223.5 121 c 128,-1,20
EndSplineSet
EndChar

StartChar: seven
Encoding: 55 55 23
Width: 560
Flags: W
LayerCount: 2
Fore
SplineSet
273 750 m 1,0,-1
 439 754 l 2,1,2
 520 754 520 754 520 695 c 0,3,4
 520 673 520 673 498.5 630 c 128,-1,5
 477 587 477 587 434 507 c 0,6,7
 320 295 320 295 244 31 c 0,8,9
 232 -9 232 -9 195 -9 c 0,10,11
 175 -9 175 -9 162 5 c 128,-1,12
 149 19 149 19 149 47 c 128,-1,13
 149 75 149 75 171.5 137 c 128,-1,14
 194 199 194 199 238 301.5 c 128,-1,15
 282 404 282 404 319 481.5 c 128,-1,16
 356 559 356 559 377 601 c 128,-1,17
 398 643 398 643 405 663 c 1,18,19
 353 668 353 668 292.5 668 c 128,-1,20
 232 668 232 668 172.5 664.5 c 128,-1,21
 113 661 113 661 96 661 c 128,-1,22
 79 661 79 661 62.5 673.5 c 128,-1,23
 46 686 46 686 46 708 c 128,-1,24
 46 730 46 730 62.5 742.5 c 128,-1,25
 79 755 79 755 106 755 c 2,26,-1
 273 750 l 1,0,-1
EndSplineSet
EndChar

StartChar: eight
Encoding: 56 56 24
Width: 646
Flags: W
LayerCount: 2
Fore
SplineSet
572 204 m 0,0,1
 572 113 572 113 502 49 c 128,-1,2
 432 -15 432 -15 323 -15 c 128,-1,3
 214 -15 214 -15 144 49 c 128,-1,4
 74 113 74 113 74 204 c 0,5,6
 74 337 74 337 237 419 c 1,7,8
 114 491 114 491 114 590 c 0,9,10
 114 662 114 662 173.5 714 c 128,-1,11
 233 766 233 766 322.5 766 c 128,-1,12
 412 766 412 766 472 714 c 128,-1,13
 532 662 532 662 532 590 c 0,14,15
 532 494 532 494 416 419 c 1,16,17
 572 336 572 336 572 204 c 0,0,1
476 204 m 0,18,19
 476 304 476 304 323 371 c 1,20,21
 170 304 170 304 170 204 c 0,22,23
 170 145 170 145 214 108.5 c 128,-1,24
 258 72 258 72 323 72 c 128,-1,25
 388 72 388 72 432 108.5 c 128,-1,26
 476 145 476 145 476 204 c 0,18,19
439 590 m 128,-1,28
 439 627 439 627 403.5 653 c 128,-1,29
 368 679 368 679 323.5 679 c 128,-1,30
 279 679 279 679 243 653 c 128,-1,31
 207 627 207 627 207 590.5 c 128,-1,32
 207 554 207 554 238 525 c 128,-1,33
 269 496 269 496 325 464 c 1,34,35
 379 494 379 494 409 523.5 c 128,-1,27
 439 553 439 553 439 590 c 128,-1,28
EndSplineSet
EndChar

StartChar: nine
Encoding: 57 57 25
Width: 645
Flags: W
LayerCount: 2
Fore
SplineSet
128 341 m 128,-1,1
 66 417 66 417 66 516.5 c 128,-1,2
 66 616 66 616 134 690.5 c 128,-1,3
 202 765 202 765 317 765 c 128,-1,4
 432 765 432 765 500 681 c 128,-1,5
 568 597 568 597 568 466 c 0,6,7
 568 263 568 263 457.5 124.5 c 128,-1,8
 347 -14 347 -14 179 -14 c 0,9,10
 143 -14 143 -14 123.5 -1 c 128,-1,11
 104 12 104 12 104 31.5 c 128,-1,12
 104 51 104 51 120 65.5 c 128,-1,13
 136 80 136 80 170 80 c 0,14,15
 279 80 279 80 359.5 153.5 c 128,-1,16
 440 227 440 227 464 337 c 1,17,18
 392 265 392 265 291 265 c 128,-1,0
 190 265 190 265 128 341 c 128,-1,1
205 631 m 128,-1,20
 162 584 162 584 162 515 c 128,-1,21
 162 446 162 446 201.5 399 c 128,-1,22
 241 352 241 352 309 352 c 128,-1,23
 377 352 377 352 421 403.5 c 128,-1,24
 465 455 465 455 465 521 c 128,-1,25
 465 587 465 587 421.5 632.5 c 128,-1,26
 378 678 378 678 313 678 c 128,-1,19
 248 678 248 678 205 631 c 128,-1,20
EndSplineSet
EndChar

StartChar: colon
Encoding: 58 58 26
Width: 273
Flags: W
LayerCount: 2
Fore
SplineSet
178.5 487 m 128,-1,1
 192 470 192 470 192 444 c 128,-1,2
 192 418 192 418 175 396.5 c 128,-1,3
 158 375 158 375 133.5 375 c 128,-1,4
 109 375 109 375 95 393 c 128,-1,5
 81 411 81 411 81 437 c 128,-1,6
 81 463 81 463 97.5 483.5 c 128,-1,7
 114 504 114 504 139.5 504 c 128,-1,0
 165 504 165 504 178.5 487 c 128,-1,1
178.5 102 m 128,-1,9
 192 85 192 85 192 58.5 c 128,-1,10
 192 32 192 32 175 11 c 128,-1,11
 158 -10 158 -10 133.5 -10 c 128,-1,12
 109 -10 109 -10 95 8 c 128,-1,13
 81 26 81 26 81 52 c 128,-1,14
 81 78 81 78 97.5 98.5 c 128,-1,15
 114 119 114 119 139.5 119 c 128,-1,8
 165 119 165 119 178.5 102 c 128,-1,9
EndSplineSet
EndChar

StartChar: semicolon
Encoding: 59 59 27
Width: 283
Flags: W
LayerCount: 2
Fore
SplineSet
183.5 487 m 128,-1,1
 197 470 197 470 197 444 c 128,-1,2
 197 418 197 418 180 396.5 c 128,-1,3
 163 375 163 375 138.5 375 c 128,-1,4
 114 375 114 375 100 393 c 128,-1,5
 86 411 86 411 86 437 c 128,-1,6
 86 463 86 463 102.5 483.5 c 128,-1,7
 119 504 119 504 144.5 504 c 128,-1,0
 170 504 170 504 183.5 487 c 128,-1,1
196 36 m 0,8,9
 196 -18 196 -18 160 -83 c 128,-1,10
 124 -148 124 -148 93 -148 c 128,-1,11
 62 -148 62 -148 62 -122 c 0,12,13
 62 -108 62 -108 77.5 -82.5 c 128,-1,14
 93 -57 93 -57 93 -37.5 c 128,-1,15
 93 -18 93 -18 89 0 c 128,-1,16
 85 18 85 18 85 40.5 c 128,-1,17
 85 63 85 63 101 83.5 c 128,-1,18
 117 104 117 104 142.5 104 c 128,-1,19
 168 104 168 104 182 85.5 c 128,-1,20
 196 67 196 67 196 36 c 0,8,9
EndSplineSet
EndChar

StartChar: less
Encoding: 60 60 28
Width: 620
Flags: W
LayerCount: 2
Fore
SplineSet
85 376 m 128,-1,1
 85 394 85 394 93.5 408 c 128,-1,2
 102 422 102 422 125 435.5 c 128,-1,3
 148 449 148 449 166 457 c 128,-1,4
 184 465 184 465 227.5 481.5 c 128,-1,5
 271 498 271 498 297.5 509 c 128,-1,6
 324 520 324 520 362 536 c 128,-1,7
 400 552 400 552 419.5 560.5 c 128,-1,8
 439 569 439 569 462 578 c 0,9,10
 504 593 504 593 522.5 593 c 128,-1,11
 541 593 541 593 553 582.5 c 128,-1,12
 565 572 565 572 565 556 c 0,13,14
 565 529 565 529 531 514 c 0,15,16
 494 499 494 499 436 477.5 c 128,-1,17
 378 456 378 456 354 446 c 0,18,19
 202 386 202 386 202 376 c 0,20,21
 202 368 202 368 316 322 c 2,22,-1
 353 306 l 2,23,24
 377 296 377 296 435 274.5 c 128,-1,25
 493 253 493 253 530 238 c 0,26,27
 564 223 564 223 564 196 c 0,28,29
 564 180 564 180 552 169.5 c 128,-1,30
 540 159 540 159 526.5 159 c 128,-1,31
 513 159 513 159 498.5 162.5 c 128,-1,32
 484 166 484 166 461 174.5 c 128,-1,33
 438 183 438 183 418 192 c 0,34,35
 309 239 309 239 246 263 c 128,-1,36
 183 287 183 287 165.5 295 c 128,-1,37
 148 303 148 303 125 316.5 c 128,-1,38
 102 330 102 330 93.5 344 c 128,-1,0
 85 358 85 358 85 376 c 128,-1,1
EndSplineSet
EndChar

StartChar: equal
Encoding: 61 61 29
Width: 662
Flags: W
LayerCount: 2
Fore
SplineSet
326 412 m 1,0,-1
 142 409 l 2,1,2
 120 409 120 409 106.5 421 c 128,-1,3
 93 433 93 433 93 451 c 128,-1,4
 93 469 93 469 106.5 481 c 128,-1,5
 120 493 120 493 142 493 c 2,6,-1
 326 490 l 1,7,-1
 520 493 l 2,8,9
 542 493 542 493 555.5 481 c 128,-1,10
 569 469 569 469 569 451 c 128,-1,11
 569 433 569 433 555.5 421 c 128,-1,12
 542 409 542 409 520 409 c 2,13,-1
 326 412 l 1,0,-1
326 258 m 1,14,-1
 142 255 l 2,15,16
 120 255 120 255 106.5 267 c 128,-1,17
 93 279 93 279 93 297 c 128,-1,18
 93 315 93 315 106.5 327 c 128,-1,19
 120 339 120 339 142 339 c 2,20,-1
 326 336 l 1,21,-1
 520 339 l 2,22,23
 542 339 542 339 555.5 327 c 128,-1,24
 569 315 569 315 569 297 c 128,-1,25
 569 279 569 279 555.5 267 c 128,-1,26
 542 255 542 255 520 255 c 2,27,-1
 326 258 l 1,14,-1
EndSplineSet
EndChar

StartChar: greater
Encoding: 62 62 30
Width: 620
Flags: W
LayerCount: 2
Fore
SplineSet
535 376 m 128,-1,1
 535 358 535 358 526.5 344 c 128,-1,2
 518 330 518 330 495 316.5 c 128,-1,3
 472 303 472 303 454.5 295 c 128,-1,4
 437 287 437 287 393.5 270.5 c 128,-1,5
 350 254 350 254 323.5 243 c 128,-1,6
 297 232 297 232 259 216 c 128,-1,7
 221 200 221 200 201.5 191.5 c 128,-1,8
 182 183 182 183 159 174 c 0,9,10
 117 159 117 159 98.5 159 c 128,-1,11
 80 159 80 159 68 169.5 c 128,-1,12
 56 180 56 180 56 196 c 0,13,14
 56 223 56 223 90 238 c 0,15,16
 127 253 127 253 185 274.5 c 128,-1,17
 243 296 243 296 267 306 c 0,18,19
 418 366 418 366 418 376 c 0,20,21
 418 384 418 384 304 430 c 2,22,-1
 266 446 l 2,23,24
 242 456 242 456 184 477.5 c 128,-1,25
 126 499 126 499 89 514 c 0,26,27
 55 529 55 529 55 556 c 0,28,29
 55 572 55 572 67 582.5 c 128,-1,30
 79 593 79 593 92.5 593 c 128,-1,31
 106 593 106 593 120.5 589.5 c 128,-1,32
 135 586 135 586 158 577.5 c 128,-1,33
 181 569 181 569 200 560 c 0,34,35
 310 513 310 513 373 489 c 128,-1,36
 436 465 436 465 454 457 c 128,-1,37
 472 449 472 449 495 435.5 c 128,-1,38
 518 422 518 422 526.5 408 c 128,-1,0
 535 394 535 394 535 376 c 128,-1,1
EndSplineSet
EndChar

StartChar: question
Encoding: 63 63 31
Width: 521
Flags: W
LayerCount: 2
Fore
SplineSet
456 580 m 0,0,1
 456 542 456 542 439.5 506 c 128,-1,2
 423 470 423 470 407.5 451.5 c 128,-1,3
 392 433 392 433 360 400 c 1,4,5
 330 375 330 375 314.5 360.5 c 128,-1,6
 299 346 299 346 284.5 322 c 128,-1,7
 270 298 270 298 270 274 c 0,8,9
 270 208 270 208 225 208 c 0,10,11
 205 208 205 208 192 225.5 c 128,-1,12
 179 243 179 243 179 272 c 128,-1,13
 179 301 179 301 187 325 c 128,-1,14
 195 349 195 349 214 372 c 0,15,16
 240 403 240 403 288 446 c 1,17,18
 312 473 312 473 324 488 c 128,-1,19
 336 503 336 503 348 529 c 128,-1,20
 360 555 360 555 360 580 c 0,21,22
 360 623 360 623 327.5 650.5 c 128,-1,23
 295 678 295 678 254 678 c 0,24,25
 193 678 193 678 149 634 c 0,26,27
 125 606 125 606 105.5 606 c 128,-1,28
 86 606 86 606 75 618.5 c 128,-1,29
 64 631 64 631 64 648 c 0,30,31
 64 686 64 686 121.5 726 c 128,-1,32
 179 766 179 766 249 766 c 0,33,34
 341 766 341 766 398.5 712.5 c 128,-1,35
 456 659 456 659 456 580 c 0,0,1
264 95 m 128,-1,37
 277 78 277 78 277 52.5 c 128,-1,38
 277 27 277 27 260 6 c 128,-1,39
 243 -15 243 -15 219 -15 c 128,-1,40
 195 -15 195 -15 181.5 3.5 c 128,-1,41
 168 22 168 22 168 47 c 128,-1,42
 168 72 168 72 184.5 92 c 128,-1,43
 201 112 201 112 226 112 c 128,-1,36
 251 112 251 112 264 95 c 128,-1,37
EndSplineSet
EndChar

StartChar: at
Encoding: 64 64 32
Width: 938
Flags: W
LayerCount: 2
Fore
SplineSet
864 369 m 0,0,1
 864 266 864 266 813.5 196.5 c 128,-1,2
 763 127 763 127 692 127 c 0,3,4
 603 127 603 127 575 210 c 1,5,6
 518 127 518 127 429 127 c 0,7,8
 385 127 385 127 350 148 c 128,-1,9
 315 169 315 169 296 202 c 0,10,11
 257 267 257 267 257 342 c 0,12,13
 257 437 257 437 315.5 506.5 c 128,-1,14
 374 576 374 576 465 576 c 0,15,16
 514 576 514 576 564 540 c 1,17,18
 578 576 578 576 610 576 c 0,19,20
 664 576 664 576 664 496 c 0,21,22
 664 486 664 486 654 421 c 128,-1,23
 644 356 644 356 644 313 c 0,24,25
 644 209 644 209 691 209 c 0,26,27
 723 209 723 209 748.5 247.5 c 128,-1,28
 774 286 774 286 774 371 c 0,29,30
 774 521 774 521 685.5 599.5 c 128,-1,31
 597 678 597 678 468 678 c 128,-1,32
 339 678 339 678 249 581 c 128,-1,33
 159 484 159 484 159 338.5 c 128,-1,34
 159 193 159 193 236 109.5 c 128,-1,35
 313 26 313 26 421 26 c 0,36,37
 474 26 474 26 531 48.5 c 128,-1,38
 588 71 588 71 592 71 c 0,39,40
 608 71 608 71 618 61.5 c 128,-1,41
 628 52 628 52 628 37 c 0,42,43
 628 10 628 10 566.5 -22.5 c 128,-1,44
 505 -55 505 -55 417 -55 c 0,45,46
 268 -55 268 -55 166 54.5 c 128,-1,47
 64 164 64 164 64 338.5 c 128,-1,48
 64 513 64 513 180 639 c 128,-1,49
 296 765 296 765 467.5 765 c 128,-1,50
 639 765 639 765 751.5 658 c 128,-1,51
 864 551 864 551 864 369 c 0,0,1
561 334 m 1,52,-1
 561 453 l 1,53,54
 512 489 512 489 465.5 489 c 128,-1,55
 419 489 419 489 385.5 447.5 c 128,-1,56
 352 406 352 406 352 348.5 c 128,-1,57
 352 291 352 291 372 252 c 128,-1,58
 392 213 392 213 432.5 213 c 128,-1,59
 473 213 473 213 505.5 248 c 128,-1,60
 538 283 538 283 561 334 c 1,52,-1
EndSplineSet
EndChar

StartChar: A
Encoding: 65 65 33
Width: 583
Flags: W
LayerCount: 2
Fore
SplineSet
336 310 m 1,0,-1
 252 313 l 1,1,2
 258 224 258 224 242 180 c 0,3,4
 226 135 226 135 200 86 c 1,5,6
 231 82 231 82 287 82 c 0,7,8
 345 82 345 82 394 86 c 0,9,10
 450 89 450 89 466 89 c 0,11,12
 483 89 483 89 500 76 c 0,13,14
 516 63 516 63 516 42 c 0,15,16
 516 20 516 20 500 8 c 0,17,18
 481 -6 481 -6 456 -5 c 2,19,20
 456 -5 456 -5 301 0 c 1,21,22
 301 0 301 0 147 -5 c 0,23,24
 120 -6 120 -6 102 10 c 0,25,26
 86 25 86 25 86 53 c 0,27,28
 86 80 86 80 104 112 c 0,29,30
 120 137 120 137 142 182 c 0,31,32
 160 219 160 219 162 258 c 0,33,34
 162 300 162 300 161 311 c 1,35,36
 156 310 156 310 130 310 c 0,37,38
 75 310 75 310 75 350 c 0,39,40
 75 391 75 391 128 391 c 0,41,42
 134 391 134 391 139 390 c 2,43,44
 139 390 139 390 149 390 c 1,45,46
 148 393 148 393 138 437 c 0,47,48
 122 502 122 502 122 544 c 0,49,50
 122 663 122 663 174 712 c 0,51,52
 227 761 227 761 319 761 c 1,53,-1
 312 666 l 1,54,55
 269 666 269 666 244 643 c 0,56,57
 218 621 218 621 218 564 c 0,58,59
 218 511 218 511 241 388 c 1,60,-1
 336 391 l 1,61,-1
 356 380 l 2,62,63
 370 369 370 369 370 351 c 0,64,65
 370 328 370 328 356 322 c 2,66,-1
 336 310 l 1,0,-1
EndSplineSet
EndChar

StartChar: B
Encoding: 66 66 34
Width: 593
Flags: W
LayerCount: 2
Fore
SplineSet
328 750 m 1,0,-1
 477 756 l 2,1,2
 505 756 505 756 520 744 c 0,3,4
 537 731 537 731 537 710 c 0,5,6
 537 688 537 688 518 675 c 128,-1,7
 499 662 499 662 469 662 c 1,8,9
 468 621 468 621 468 257 c 0,10,11
 468 186 468 186 448 129 c 0,12,13
 427 74 427 74 393 44 c 0,14,15
 325 -15 325 -15 240 -15 c 0,16,17
 154 -15 154 -15 100 20 c 0,18,19
 46 53 46 53 46 87 c 0,20,21
 46 105 46 105 57 118 c 0,22,23
 68 129 68 129 86 129 c 0,24,25
 103 129 103 129 122 115 c 0,26,27
 143 99 143 99 168 86 c 0,28,29
 198 72 198 72 237 72 c 0,30,31
 296 72 296 72 336 122 c 0,32,33
 378 170 378 170 378 278 c 2,34,-1
 375 667 l 1,35,36
 312 667 312 667 261 664 c 128,-1,37
 210 661 210 661 191 661 c 0,38,39
 170 661 170 661 156 674 c 0,40,41
 139 685 139 685 139 708 c 128,-1,42
 139 731 139 731 156 742 c 0,43,44
 170 755 170 755 199 755 c 2,45,-1
 328 750 l 1,0,-1
EndSplineSet
EndChar

StartChar: C
Encoding: 67 67 35
Width: 651
Flags: W
LayerCount: 2
Fore
SplineSet
505 578 m 1,0,-1
 491 374 l 1,1,2
 422 356 422 356 351 362 c 0,3,4
 318 365 318 365 257 412 c 1,5,-1
 505 578 l 1,0,-1
380 679 m 0,6,7
 446 679 446 679 490 656 c 1,8,-1
 203 466 l 1,9,10
 203 598 203 598 234 629 c 0,11,12
 284 679 284 679 380 679 c 0,6,7
590 48 m 2,13,-1
 582 382 l 1,14,15
 582 629 582 629 588 629 c 0,16,17
 610 632 610 632 621 644 c 0,18,19
 632 657 632 657 632 676 c 0,20,21
 632 694 632 694 603 714 c 0,22,23
 575 733 575 733 532 744 c 0,24,25
 448 765 448 765 386 765 c 0,26,27
 237 765 237 765 158 694 c 0,28,29
 80 624 80 624 80 520 c 128,-1,30
 80 416 80 416 158 346 c 0,31,32
 236 274 236 274 360 274 c 0,33,34
 451 274 451 274 493 285 c 1,35,-1
 488 48 l 2,36,37
 488 23 488 23 502 6 c 0,38,39
 515 -10 515 -10 538 -10 c 128,-1,40
 561 -10 561 -10 576 6 c 0,41,42
 590 23 590 23 590 48 c 2,13,-1
EndSplineSet
EndChar

StartChar: D
Encoding: 68 68 36
Width: 862
Flags: W
LayerCount: 2
Fore
SplineSet
740 675 m 0,0,1
 758 654 758 654 758 622 c 0,2,3
 758 592 758 592 740 569 c 0,4,5
 722 548 722 548 694 548 c 128,-1,6
 666 548 666 548 648 569 c 0,7,8
 630 592 630 592 630 622 c 0,9,10
 630 654 630 654 648 675 c 0,11,12
 666 697 666 697 694 697 c 128,-1,13
 722 697 722 697 740 675 c 0,0,1
570 706 m 0,14,15
 599 671 599 671 599 624 c 128,-1,16
 599 577 599 577 570 543 c 0,17,18
 542 509 542 509 495 509 c 256,19,20
 448 509 448 509 420 542 c 0,21,22
 391 576 391 576 391 624 c 0,23,24
 391 671 391 671 420 706 c 0,25,26
 448 739 448 739 495 739 c 128,-1,27
 542 739 542 739 570 706 c 0,14,15
540 624 m 0,28,29
 540 651 540 651 528 669 c 0,30,31
 516 686 516 686 495 686 c 0,32,33
 475 686 475 686 461 669 c 0,34,35
 449 651 449 651 449 624 c 0,36,37
 449 598 449 598 461 580 c 0,38,39
 474 562 474 562 495 562 c 128,-1,40
 516 562 516 562 528 580 c 0,41,42
 540 596 540 596 540 624 c 0,28,29
331 675 m 0,43,44
 349 654 349 654 349 622 c 0,45,46
 349 592 349 592 331 569 c 0,47,48
 313 548 313 548 285 548 c 0,49,50
 256 548 256 548 239 569 c 0,51,52
 221 592 221 592 221 622 c 0,53,54
 221 654 221 654 239 675 c 0,55,56
 255 697 255 697 285 697 c 0,57,58
 313 697 313 697 331 675 c 0,43,44
144 675 m 0,59,60
 162 654 162 654 162 622 c 0,61,62
 162 592 162 592 144 569 c 0,63,64
 127 548 127 548 98 548 c 0,65,66
 70 548 70 548 52 569 c 0,67,68
 34 592 34 592 34 622 c 0,69,70
 34 654 34 654 52 675 c 0,71,72
 70 697 70 697 98 697 c 0,73,74
 128 697 128 697 144 675 c 0,59,60
801 395 m 2,75,-1
 796 244 l 1,76,-1
 801 78 l 2,77,78
 802 53 802 53 787 34 c 0,79,80
 773 17 773 17 751 17 c 0,81,82
 709 17 709 17 640 86 c 0,83,84
 562 160 562 160 520 195 c 1,85,86
 494 99 494 99 430 44 c 0,87,88
 365 -12 365 -12 283 -12 c 0,89,90
 183 -12 183 -12 107 58 c 0,91,92
 31 127 31 127 31 247 c 0,93,94
 31 338 31 338 82 408 c 0,95,96
 132 477 132 477 175 477 c 0,97,98
 190 477 190 477 200 467 c 0,99,100
 212 456 212 456 212 442 c 0,101,102
 212 429 212 429 198 409 c 0,103,104
 185 392 185 392 165 372 c 0,105,106
 147 352 147 352 132 320 c 0,107,108
 118 286 118 286 118 249 c 0,109,110
 118 179 118 179 164 130 c 1,111,112
 213 84 213 84 280 84 c 0,113,114
 351 84 351 84 394 133 c 0,115,116
 438 183 438 183 444 248 c 1,117,118
 410 282 410 282 399 303 c 0,119,120
 387 326 387 326 387 350 c 0,121,122
 387 376 387 376 402 390 c 0,123,124
 416 404 416 404 442 404 c 0,125,126
 467 404 467 404 492 377 c 0,127,128
 516 350 516 350 528 296 c 1,129,130
 615 217 615 217 711 139 c 1,131,132
 714 168 714 168 714 224 c 0,133,134
 714 287 714 287 710 335 c 0,135,136
 707 389 707 389 707 406 c 0,137,138
 707 424 707 424 720 438 c 0,139,140
 731 455 731 455 754 455 c 128,-1,141
 777 455 777 455 788 438 c 0,142,143
 802 420 802 420 801 395 c 2,75,-1
EndSplineSet
EndChar

StartChar: E
Encoding: 69 69 37
Width: 696
Flags: W
LayerCount: 2
Fore
SplineSet
328 311 m 1,0,1
 312 285 312 285 260 202 c 0,2,3
 242 172 242 172 223 141.5 c 128,-1,4
 204 111 204 111 202 108 c 0,5,6
 199 104 199 104 191.5 92.5 c 128,-1,7
 184 81 184 81 180 75 c 0,8,9
 177 70 177 70 174 65 c 128,-1,10
 171 60 171 60 168.5 55.5 c 128,-1,11
 166 51 166 51 165 50 c 2,12,-1
 152 31 l 2,13,14
 141 15 141 15 131 6 c 0,15,16
 115 -10 115 -10 96 -10 c 0,17,18
 79 -10 79 -10 67 2 c 128,-1,19
 55 14 55 14 55 28 c 0,20,21
 55 43 55 43 62 56 c 0,22,23
 67 68 67 68 86 100 c 0,24,25
 92 108 92 108 98.5 118 c 128,-1,26
 105 128 105 128 113 140.5 c 128,-1,27
 121 153 121 153 126 160 c 0,28,29
 221 296 221 296 278 387 c 1,30,31
 185 552 185 552 130 636 c 0,32,33
 106 672 106 672 74 672 c 0,34,35
 56 672 56 672 52 678 c 0,36,37
 48 683 48 683 48 695 c 0,38,39
 48 726 48 726 66 744 c 0,40,41
 85 763 85 763 110 763 c 0,42,43
 137 763 137 763 154 750 c 0,44,45
 174 737 174 737 201 698 c 0,46,47
 217 673 217 673 336 465 c 1,48,49
 343 476 343 476 366.5 515 c 128,-1,50
 390 554 390 554 408 582 c 0,51,52
 454 662 454 662 464 676 c 0,53,54
 477 698 477 698 478 701 c 0,55,56
 482 706 482 706 490 720 c 0,57,58
 493 725 493 725 497.5 731 c 128,-1,59
 502 737 502 737 503 738 c 2,60,-1
 514 749 l 2,61,62
 527 760 527 760 544 760 c 0,63,64
 562 760 562 760 574 748 c 0,65,66
 585 734 585 734 585 718 c 0,67,68
 585 703 585 703 565 666 c 0,69,70
 553 646 553 646 480 532 c 0,71,72
 463 507 463 507 442 474.5 c 128,-1,73
 421 442 421 442 407.5 421.5 c 128,-1,74
 394 401 394 401 386 388 c 1,75,76
 525 165 525 165 562 123 c 0,77,78
 598 78 598 78 626 78 c 0,79,80
 641 78 641 78 644 72 c 0,81,82
 648 68 648 68 648 57 c 0,83,84
 648 27 648 27 630 6 c 0,85,86
 609 -13 609 -13 585 -13 c 0,87,88
 544 -13 544 -13 495 53 c 0,89,90
 465 93 465 93 328 311 c 1,0,1
EndSplineSet
EndChar

StartChar: F
Encoding: 70 70 38
Width: 616
Flags: W
LayerCount: 2
Fore
SplineSet
284 440 m 2,0,-1
 454 445 l 2,1,2
 481 445 481 445 497 432 c 0,3,4
 513 420 513 420 513 399 c 0,5,6
 513 355 513 355 454 355 c 2,7,-1
 284 359 l 2,8,9
 232 359 232 359 217 358 c 1,10,11
 217 228 217 228 220 148 c 128,-1,12
 223 68 223 68 223 61 c 0,13,14
 223 -10 223 -10 172 -10 c 128,-1,15
 121 -10 121 -10 121 61 c 0,16,17
 121 82 121 82 122 108 c 0,18,19
 127 238 127 238 127 355 c 1,20,21
 60 355 60 355 60 399 c 0,22,23
 60 422 60 422 79 434 c 0,24,25
 99 445 99 445 127 445 c 1,26,27
 126 624 126 624 120 670 c 1,28,29
 108 690 108 690 108 710 c 0,30,31
 108 755 108 755 170 755 c 2,32,-1
 355 750 l 1,33,-1
 515 756 l 2,34,35
 543 756 543 756 558 744 c 0,36,37
 575 731 575 731 575 709 c 128,-1,38
 575 687 575 687 558 674 c 0,39,40
 543 662 543 662 515 662 c 2,41,-1
 355 668 l 2,42,43
 284 668 284 668 217 663 c 1,44,-1
 217 441 l 1,45,46
 230 440 230 440 284 440 c 2,0,-1
EndSplineSet
EndChar

StartChar: G
Encoding: 71 71 39
Width: 772
Flags: W
LayerCount: 2
Fore
SplineSet
561 456 m 128,-1,1
 561 445 561 445 556 439 c 0,2,3
 552 432 552 432 537 424 c 0,4,5
 519 415 519 415 512 412 c 0,6,7
 504 409 504 409 474 399 c 0,8,9
 441 388 441 388 430 384 c 0,10,11
 401 373 401 373 390 370 c 0,12,13
 385 368 385 368 377 364.5 c 128,-1,14
 369 361 369 361 364 359 c 128,-1,15
 359 357 359 357 355 356 c 0,16,17
 343 352 343 352 328 347 c 0,18,19
 301 339 301 339 291 339 c 0,20,21
 280 339 280 339 272 344 c 0,22,23
 264 350 264 350 264 359 c 0,24,25
 264 374 264 374 286 381 c 0,26,27
 296 385 296 385 344 401 c 2,28,-1
 395 418 l 2,29,30
 489 451 489 451 489 456 c 0,31,32
 489 460 489 460 418 486 c 2,33,-1
 395 494 l 1,34,-1
 344 511 l 2,35,36
 331 515 331 515 311 521.5 c 128,-1,37
 291 528 291 528 285 530 c 0,38,39
 264 539 264 539 264 553 c 0,40,41
 264 563 264 563 271 567 c 0,42,43
 278 573 278 573 287 573 c 0,44,45
 298 573 298 573 304 571 c 0,46,47
 313 570 313 570 328 565 c 0,48,49
 346 559 346 559 354 556 c 0,50,51
 416 533 416 533 461 517 c 0,52,53
 471 513 471 513 483 509.5 c 128,-1,54
 495 506 495 506 501.5 503.5 c 128,-1,55
 508 501 508 501 511 500 c 0,56,57
 519 497 519 497 537 488 c 0,58,59
 552 480 552 480 556 473 c 0,60,0
 561 467 561 467 561 456 c 128,-1,1
531 256 m 2,61,-1
 413 257 l 1,62,-1
 295 256 l 2,63,64
 282 256 282 256 273 262 c 0,65,66
 265 268 265 268 265 278 c 0,67,68
 265 287 265 287 273 295 c 0,69,70
 282 301 282 301 295 301 c 2,71,72
 295 301 295 301 413 299 c 2,73,74
 413 299 413 299 531 301 c 0,75,76
 544 301 544 301 553 295 c 0,77,78
 561 288 561 288 561 278 c 0,79,80
 561 267 561 267 553 262 c 0,81,82
 544 256 544 256 531 256 c 2,61,-1
712 353 m 1,83,84
 712 182 712 182 626 84 c 0,85,86
 542 -15 542 -15 402 -15 c 128,-1,87
 262 -15 262 -15 167 99 c 0,88,89
 72 214 72 214 72 376 c 0,90,91
 72 539 72 539 170 652 c 128,-1,92
 268 765 268 765 418 765 c 0,93,94
 511 765 511 765 588 728 c 1,95,-1
 558 634 l 1,96,97
 496 678 496 678 418 678 c 0,98,99
 310 678 310 678 239 589 c 128,-1,100
 168 500 168 500 168 378 c 0,101,102
 168 255 168 255 236 164 c 0,103,104
 303 72 303 72 407 72 c 0,105,106
 492 72 492 72 549 135 c 0,107,108
 605 197 605 197 610 314 c 1,109,-1
 712 353 l 1,83,84
EndSplineSet
EndChar

StartChar: H
Encoding: 72 72 40
Width: 768
Flags: W
LayerCount: 2
Fore
SplineSet
553 353 m 1,0,-1
 381 355 l 2,1,2
 248 355 248 355 213 354 c 1,3,4
 213 275 213 275 216 170 c 0,5,6
 219 67 219 67 219 61 c 0,7,8
 219 -10 219 -10 168 -10 c 128,-1,9
 117 -10 117 -10 117 61 c 0,10,11
 117 66 117 66 120 169 c 0,12,13
 123 273 123 273 123 351 c 1,14,15
 59 351 59 351 59 396 c 0,16,17
 59 417 59 417 76 430 c 0,18,19
 91 442 91 442 123 442 c 1,20,21
 123 521 123 521 120 602 c 0,22,23
 117 684 117 684 117 689 c 0,24,25
 117 760 117 760 168 760 c 128,-1,26
 219 760 219 760 219 689 c 0,27,28
 219 684 219 684 216 601 c 256,29,30
 213 518 213 518 213 439 c 1,31,32
 343 437 343 437 408 437 c 0,33,34
 489 437 489 437 553 439 c 1,35,36
 553 518 553 518 550 601 c 0,37,38
 550 625 550 625 549.5 646.5 c 128,-1,39
 549 668 549 668 548.5 678 c 128,-1,40
 548 688 548 688 548 689 c 0,41,42
 548 760 548 760 599 760 c 128,-1,43
 650 760 650 760 650 689 c 0,44,45
 650 684 650 684 647 603 c 128,-1,46
 644 522 644 522 644 443 c 1,47,48
 675 443 675 443 692 430 c 0,49,50
 709 416 709 416 709 396 c 128,-1,51
 709 376 709 376 692 362 c 0,52,53
 674 350 674 350 644 350 c 1,54,55
 644 272 644 272 647 168 c 0,56,57
 650 66 650 66 650 61 c 0,58,59
 650 -10 650 -10 599 -10 c 128,-1,60
 548 -10 548 -10 548 61 c 2,61,-1
 553 353 l 1,0,-1
EndSplineSet
EndChar

StartChar: I
Encoding: 73 73 41
Width: 604
Flags: W
LayerCount: 2
Fore
SplineSet
403 661 m 2,0,1
 403 661 403 661 304 664 c 1,2,3
 304 664 304 664 205 661 c 0,4,5
 182 661 182 661 170 673 c 0,6,7
 156 684 156 684 156 703 c 128,-1,8
 156 722 156 722 170 733 c 0,9,10
 182 745 182 745 205 745 c 2,11,-1
 304 742 l 1,12,-1
 403 745 l 2,13,14
 426 745 426 745 438 733 c 0,15,16
 452 722 452 722 452 703 c 128,-1,17
 452 684 452 684 438 673 c 0,18,19
 426 661 426 661 403 661 c 2,0,1
351 589 m 2,20,-1
 346 373 l 1,21,-1
 326 122 l 1,22,23
 348 170 348 170 419 302 c 0,24,25
 430 323 430 323 442 323 c 0,26,27
 453 323 453 323 461 312 c 0,28,29
 468 301 468 301 468 287 c 0,30,31
 468 278 468 278 466 264 c 0,32,33
 464 254 464 254 457 241 c 0,34,35
 455 238 455 238 450.5 229 c 128,-1,36
 446 220 446 220 443 215 c 0,37,38
 429 190 429 190 401 144 c 0,39,40
 390 125 390 125 367 83 c 0,41,42
 346 44 346 44 328 14 c 0,43,44
 314 -7 314 -7 301 -7 c 0,45,46
 286 -7 286 -7 274 14 c 0,47,48
 258 46 258 46 235 83 c 0,49,50
 220 108 220 108 206 136 c 0,51,52
 195 155 195 155 182 177 c 0,53,54
 170 197 170 197 159 215 c 0,55,56
 156 220 156 220 151.5 229 c 128,-1,57
 147 238 147 238 145 241 c 0,58,59
 134 265 134 265 134 282 c 0,60,61
 134 301 134 301 142 312 c 0,62,63
 148 323 148 323 160 323 c 128,-1,64
 172 323 172 323 183 302 c 0,65,66
 250 168 250 168 276 122 c 1,67,-1
 265 373 l 1,68,-1
 260 589 l 2,69,70
 259 614 259 614 272 632 c 0,71,72
 286 649 286 649 305 649 c 0,73,74
 330 649 330 649 338 632 c 0,75,76
 351 596 351 596 351 589 c 2,20,-1
EndSplineSet
EndChar

StartChar: J
Encoding: 74 74 42
Width: 651
Flags: W
LayerCount: 2
Fore
SplineSet
218 255 m 128,-1,1
 218 267 218 267 234 280 c 128,-1,2
 250 293 250 293 287.5 315 c 128,-1,3
 325 337 325 337 339.5 347 c 128,-1,4
 354 357 354 357 362 362 c 0,5,6
 382 373 382 373 402.5 373 c 128,-1,7
 423 373 423 373 435 365 c 128,-1,8
 447 357 447 357 447 345.5 c 128,-1,9
 447 334 447 334 436.5 326 c 128,-1,10
 426 318 426 318 398 305 c 128,-1,11
 370 292 370 292 366 290 c 0,12,13
 309 261 309 261 309 255 c 128,-1,14
 309 249 309 249 366 220 c 0,15,16
 374 215 374 215 392 207 c 128,-1,17
 410 199 410 199 420 194 c 0,18,19
 447 179 447 179 447 166 c 128,-1,20
 447 153 447 153 435 145 c 128,-1,21
 423 137 423 137 405.5 137 c 128,-1,22
 388 137 388 137 374.5 142.5 c 128,-1,23
 361 148 361 148 343 160.5 c 128,-1,24
 325 173 325 173 287.5 195 c 128,-1,25
 250 217 250 217 234 230 c 128,-1,0
 218 243 218 243 218 255 c 128,-1,1
324 93 m 0,26,27
 258 93 258 93 214 116 c 1,28,29
 211 164 211 164 211 259 c 0,30,31
 211 340 211 340 213 398 c 1,32,33
 274 413 274 413 348 413 c 128,-1,34
 422 413 422 413 474 368 c 0,35,36
 528 323 528 323 528 252 c 0,37,38
 528 182 528 182 474 138 c 0,39,40
 420 93 420 93 324 93 c 0,26,27
114 724 m 2,41,-1
 122 390 l 1,42,43
 122 143 122 143 116 143 c 0,44,45
 94 140 94 140 83 128 c 0,46,47
 72 115 72 115 72 96 c 0,48,49
 72 78 72 78 101 58 c 0,50,51
 129 39 129 39 172 28 c 0,52,53
 256 7 256 7 318 7 c 0,54,55
 467 7 467 7 546 78 c 0,56,57
 624 148 624 148 624 252 c 128,-1,58
 624 356 624 356 546 426 c 0,59,60
 468 498 468 498 344 498 c 0,61,62
 253 498 253 498 211 487 c 1,63,-1
 216 724 l 2,64,65
 216 749 216 749 202 766 c 0,66,67
 189 782 189 782 166 782 c 128,-1,68
 143 782 143 782 128 766 c 0,69,70
 114 749 114 749 114 724 c 2,41,-1
EndSplineSet
EndChar

StartChar: K
Encoding: 75 75 43
Width: 604
Flags: W
LayerCount: 2
Fore
SplineSet
554 311 m 1,0,-1
 343 237 l 1,1,-1
 558 83 l 1,2,-1
 556 0 l 1,3,-1
 343 141 l 1,4,-1
 344 50 l 2,5,6
 344 24 344 24 331 7 c 0,7,8
 317 -10 317 -10 298 -10 c 0,9,10
 274 -10 274 -10 266 7 c 0,11,12
 253 34 253 34 253 50 c 2,13,-1
 258 377 l 1,14,-1
 258 629 l 1,15,16
 216 576 216 576 105 447 c 0,17,18
 87 426 87 426 68 426 c 128,-1,19
 49 426 49 426 37 438 c 0,20,21
 25 448 25 448 25 462 c 128,-1,22
 25 476 25 476 28 486 c 0,23,24
 34 497 34 497 44 509 c 0,25,26
 50 517 50 517 66 535 c 0,27,28
 82 552 82 552 104.5 576 c 128,-1,29
 127 600 127 600 134 607 c 0,30,31
 163 636 163 636 190 668 c 0,32,33
 226 709 226 709 254 738 c 0,34,35
 276 760 276 760 298 760 c 0,36,37
 324 760 324 760 343 738 c 0,38,39
 391 685 391 685 406 668 c 0,40,41
 419 655 419 655 435 637.5 c 128,-1,42
 451 620 451 620 455 616 c 0,43,44
 482 586 482 586 494 574 c 0,45,46
 503 564 503 564 515 551 c 128,-1,47
 527 538 527 538 530 535 c 0,48,49
 538 527 538 527 554 509 c 0,50,51
 572 487 572 487 572 468 c 0,52,53
 572 448 572 448 560 438 c 0,54,55
 548 426 548 426 529 426 c 128,-1,56
 510 426 510 426 492 447 c 0,57,58
 395 565 395 565 339 629 c 1,59,-1
 343 308 l 1,60,-1
 550 387 l 1,61,-1
 554 311 l 1,0,-1
EndSplineSet
EndChar

StartChar: L
Encoding: 76 76 44
Width: 639
Flags: W
LayerCount: 2
Fore
SplineSet
472 233 m 0,0,1
 481 224 481 224 481 210 c 0,2,3
 481 197 481 197 469 185 c 0,4,5
 458 174 458 174 441 174 c 0,6,7
 425 174 425 174 415 184 c 0,8,9
 406 193 406 193 406 207 c 128,-1,10
 406 221 406 221 417 231 c 0,11,12
 427 242 427 242 445 242 c 0,13,14
 462 242 462 242 472 233 c 0,0,1
550 468 m 0,15,16
 550 446 550 446 543 428 c 0,17,18
 536 408 536 408 528 398 c 0,19,20
 519 384 519 384 507 370 c 2,21,-1
 486 349 l 2,22,23
 478 339 478 339 473 328 c 0,24,25
 466 314 466 314 466 302 c 0,26,27
 466 267 466 267 446 267 c 0,28,29
 437 267 437 267 431 276 c 0,30,31
 426 284 426 284 426 301 c 0,32,33
 426 316 426 316 429 330 c 0,34,35
 431 339 431 339 441 355 c 0,36,37
 457 377 457 377 475 395 c 1,38,39
 489 415 489 415 491 418 c 0,40,41
 496 426 496 426 502 440 c 0,42,43
 507 455 507 455 507 468 c 0,44,45
 507 491 507 491 492 506 c 0,46,47
 479 520 479 520 459 520 c 0,48,49
 431 520 431 520 412 497 c 0,50,51
 402 482 402 482 392 482 c 0,52,53
 384 482 384 482 379 488 c 128,-1,54
 374 494 374 494 374 504 c 0,55,56
 374 526 374 526 400 546 c 0,57,58
 425 568 425 568 457 568 c 0,59,60
 498 568 498 568 524 539 c 0,61,62
 550 512 550 512 550 468 c 0,15,16
476 662 m 2,63,-1
 317 668 l 2,64,65
 263 670 263 670 180 663 c 1,66,-1
 180 441 l 1,67,68
 214 439 214 439 217 440 c 2,69,-1
 234 445 l 2,70,71
 252 450 252 450 277 432 c 0,72,73
 293 420 293 420 293 399 c 0,74,75
 293 341 293 341 234 355 c 2,76,-1
 217 359 l 2,77,78
 213 360 213 360 180 358 c 1,79,-1
 180 279 l 2,80,81
 180 128 180 128 184 87 c 1,82,83
 266 80 266 80 320 82 c 2,84,-1
 479 88 l 2,85,86
 506 89 506 89 522 76 c 0,87,88
 539 63 539 63 539 41 c 128,-1,89
 539 19 539 19 522 6 c 0,90,91
 504 -7 504 -7 479 -6 c 2,92,-1
 320 0 l 1,93,-1
 139 -5 l 2,94,95
 83 -7 83 -7 85 41 c 0,96,97
 86 75 86 75 88 156 c 0,98,99
 90 260 90 260 90 355 c 2,100,-1
 90 445 l 2,101,102
 89 624 89 624 83 670 c 1,103,104
 71 690 71 690 71 710 c 0,105,106
 71 757 71 757 133 755 c 2,107,-1
 317 750 l 1,108,-1
 476 756 l 2,109,110
 503 757 503 757 520 744 c 0,111,112
 536 732 536 732 536 709 c 128,-1,113
 536 686 536 686 520 674 c 0,114,115
 503 661 503 661 476 662 c 2,63,-1
EndSplineSet
EndChar

StartChar: M
Encoding: 77 77 45
Width: 743
Flags: W
LayerCount: 2
Fore
SplineSet
569 680 m 4,0,1
 501 757 501 757 372 757 c 132,-1,2
 243 757 243 757 174 680 c 132,-1,3
 105 603 105 603 103 493 c 4,4,5
 102 458 102 458 102 364 c 4,6,7
 102 264 102 264 100 216 c 4,8,9
 100 191 100 191 99 153.5 c 132,-1,10
 98 116 98 116 98 104 c 4,11,12
 96 75 96 75 96 53 c 4,13,14
 96 -18 96 -18 147 -18 c 132,-1,15
 198 -18 198 -18 198 53 c 4,16,17
 198 55 198 55 197.5 62.5 c 132,-1,18
 197 70 197 70 196.5 85 c 132,-1,19
 196 100 196 100 196 116 c 4,20,21
 192 264 192 264 192 376 c 4,22,23
 192 475 192 475 200 512 c 4,24,25
 206 553 206 553 226 592 c 4,26,27
 264 670 264 670 371 670 c 4,28,29
 524 670 524 670 546 493 c 4,30,31
 551 455 551 455 551 398 c 4,32,33
 551 380 551 380 550.5 333 c 132,-1,34
 550 286 550 286 550 256 c 4,35,36
 549 231 549 231 548 184 c 132,-1,37
 547 137 547 137 546 116 c 4,38,39
 546 100 546 100 546 85.5 c 132,-1,40
 546 71 546 71 545.5 62.5 c 132,-1,41
 545 54 545 54 545 53 c 4,42,43
 545 -18 545 -18 596 -18 c 132,-1,44
 647 -18 647 -18 647 53 c 4,45,46
 647 75 647 75 646 104 c 4,47,48
 641 246 641 246 641 336 c 4,49,50
 641 458 641 458 640 493 c 4,51,52
 638 604 638 604 569 680 c 4,0,1
EndSplineSet
EndChar

StartChar: N
Encoding: 78 78 46
Width: 743
Flags: W
LayerCount: 2
Fore
SplineSet
626 372 m 2,0,-1
 629 62 l 2,1,2
 629 -10 629 -10 576 -10 c 0,3,4
 543 -10 543 -10 526 21 c 2,5,-1
 209 567 l 1,6,7
 209 334 209 334 211.5 195 c 128,-1,8
 214 56 214 56 214 39.5 c 128,-1,9
 214 23 214 23 199 6.5 c 128,-1,10
 184 -10 184 -10 163.5 -10 c 128,-1,11
 143 -10 143 -10 128.5 6.5 c 128,-1,12
 114 23 114 23 114 48 c 2,13,-1
 118 372 l 2,14,15
 118 475 118 475 115.5 581 c 128,-1,16
 113 687 113 687 113 689 c 0,17,18
 113 760 113 760 164 760 c 0,19,20
 201 760 201 760 219 729 c 0,21,22
 510 229 510 229 536 189 c 1,23,24
 536 472 536 472 533 579 c 128,-1,25
 530 686 530 686 530 689 c 0,26,27
 530 760 530 760 581 760 c 128,-1,28
 632 760 632 760 632 689 c 0,29,30
 632 681 632 681 630 636 c 0,31,32
 626 503 626 503 626 372 c 2,0,-1
EndSplineSet
EndChar

StartChar: O
Encoding: 79 79 47
Width: 824
Flags: W
LayerCount: 2
Fore
SplineSet
472 376 m 0,0,1
 472 412 472 412 456 434 c 0,2,3
 441 457 441 457 413 457 c 0,4,5
 386 457 386 457 369 434 c 0,6,7
 353 412 353 412 353 376 c 0,8,9
 353 341 353 341 369 319 c 0,10,11
 386 296 386 296 413 296 c 128,-1,12
 440 296 440 296 456 318 c 0,13,14
 472 341 472 341 472 376 c 0,0,1
586 164 m 0,15,16
 656 255 656 255 656 377 c 0,17,18
 656 498 656 498 587 588 c 0,19,20
 518 679 518 679 412 679 c 0,21,22
 307 679 307 679 238 588 c 0,23,24
 168 499 168 499 168 378 c 0,25,26
 168 256 168 256 238 164 c 0,27,28
 309 72 309 72 412 72 c 0,29,30
 517 72 517 72 586 164 c 0,15,16
752 376 m 256,31,32
 752 212 752 212 654 99 c 0,33,34
 558 -15 558 -15 412 -15 c 128,-1,35
 266 -15 266 -15 169 99 c 0,36,37
 72 212 72 212 72 376 c 0,38,39
 72 539 72 539 170 652 c 128,-1,40
 268 765 268 765 414 765 c 0,41,42
 558 765 558 765 656 652 c 0,43,44
 752 540 752 540 752 376 c 256,31,32
EndSplineSet
EndChar

StartChar: P
Encoding: 80 80 48
Width: 651
Flags: W
LayerCount: 2
Fore
SplineSet
487 515 m 128,-1,1
 487 503 487 503 471 490 c 128,-1,2
 455 477 455 477 417.5 455 c 128,-1,3
 380 433 380 433 365.5 423 c 128,-1,4
 351 413 351 413 343 408 c 0,5,6
 323 397 323 397 302.5 397 c 128,-1,7
 282 397 282 397 270 405 c 128,-1,8
 258 413 258 413 258 424.5 c 128,-1,9
 258 436 258 436 268.5 444 c 128,-1,10
 279 452 279 452 307 465 c 128,-1,11
 335 478 335 478 339 480 c 0,12,13
 396 509 396 509 396 515 c 128,-1,14
 396 521 396 521 339 550 c 0,15,16
 331 555 331 555 313 563 c 128,-1,17
 295 571 295 571 285 576 c 0,18,19
 258 591 258 591 258 604 c 128,-1,20
 258 617 258 617 270 625 c 128,-1,21
 282 633 282 633 299.5 633 c 128,-1,22
 317 633 317 633 330.5 627.5 c 128,-1,23
 344 622 344 622 362 609.5 c 128,-1,24
 380 597 380 597 417.5 575 c 128,-1,25
 455 553 455 553 471 540 c 128,-1,0
 487 527 487 527 487 515 c 128,-1,1
324 679 m 0,26,27
 258 679 258 679 214 656 c 1,28,29
 211 608 211 608 211 513 c 128,-1,30
 211 418 211 418 213 374 c 1,31,32
 274 359 274 359 347.5 359 c 128,-1,33
 421 359 421 359 474.5 404 c 128,-1,34
 528 449 528 449 528 519.5 c 128,-1,35
 528 590 528 590 474 634.5 c 128,-1,36
 420 679 420 679 324 679 c 0,26,27
114 45 m 2,37,-1
 122 382 l 1,38,39
 122 629 122 629 116 629 c 0,40,41
 94 632 94 632 83 644 c 128,-1,42
 72 656 72 656 72 675.5 c 128,-1,43
 72 695 72 695 101 714 c 128,-1,44
 130 733 130 733 172 744 c 0,45,46
 256 765 256 765 318 765 c 0,47,48
 468 765 468 765 546 694 c 128,-1,49
 624 623 624 623 624 520 c 128,-1,50
 624 417 624 417 546 345.5 c 128,-1,51
 468 274 468 274 344 274 c 0,52,53
 251 274 251 274 211 285 c 1,54,-1
 216 45 l 2,55,56
 216 19 216 19 202 3 c 128,-1,57
 188 -13 188 -13 165.5 -13 c 128,-1,58
 143 -13 143 -13 128.5 3 c 128,-1,59
 114 19 114 19 114 45 c 2,37,-1
EndSplineSet
EndChar

StartChar: Q
Encoding: 81 81 49
Width: 692
Flags: W
LayerCount: 2
Fore
SplineSet
476 241 m 1,0,-1
 347 244 l 2,1,2
 265 244 265 244 207 242 c 1,3,4
 188 182 188 182 176 138 c 0,5,6
 149 49 149 49 142 29 c 0,7,8
 128 -10 128 -10 96 -10 c 0,9,10
 76 -10 76 -10 66 2 c 0,11,12
 54 14 54 14 54 28 c 0,13,14
 54 46 54 46 56 52 c 0,15,16
 56 55 56 55 62 79 c 0,17,18
 66 91 66 91 74 113 c 2,19,20
 74 113 74 113 116 239 c 1,21,22
 87 239 87 239 70 252 c 0,23,24
 54 265 54 265 54 285 c 0,25,26
 54 332 54 332 128 332 c 2,27,-1
 146 332 l 1,28,29
 169 397 169 397 256 638 c 0,30,31
 272 681 272 681 273 683 c 0,32,33
 275 691 275 691 280 700 c 0,34,35
 283 711 283 711 288 718 c 0,36,37
 290 721 290 721 296 731 c 0,38,39
 300 738 300 738 306 744 c 0,40,41
 308 746 308 746 316 752 c 0,42,43
 330 760 330 760 344 760 c 128,-1,44
 358 760 358 760 367 757 c 128,-1,45
 376 754 376 754 384 746 c 128,-1,46
 392 738 392 738 398 729 c 0,47,48
 407 711 407 711 410 701 c 0,49,50
 416 688 416 688 424 666 c 0,51,52
 471 522 471 522 544 332 c 1,53,-1
 580 333 l 2,54,55
 606 333 606 333 622 319 c 0,56,57
 639 306 639 306 639 284 c 0,58,59
 639 240 639 240 573 237 c 1,60,-1
 600 156 l 2,61,62
 639 49 639 49 639 34 c 0,63,64
 639 17 639 17 628 4 c 0,65,66
 617 -10 617 -10 596 -10 c 0,67,68
 560 -10 560 -10 544 29 c 0,69,70
 515 116 515 116 476 241 c 1,0,-1
232 328 m 1,71,72
 318 326 318 326 356 326 c 0,73,74
 403 326 403 326 451 328 c 1,75,76
 346 630 346 630 344 630 c 0,77,78
 337 630 337 630 258 404 c 2,79,-1
 232 328 l 1,71,72
EndSplineSet
EndChar

StartChar: R
Encoding: 82 82 50
Width: 563
Flags: W
LayerCount: 2
Fore
SplineSet
408 278 m 1,0,-1
 492 281 l 2,1,2
 500 281 500 281 504.5 270.5 c 128,-1,3
 509 260 509 260 509 245 c 128,-1,4
 509 230 509 230 504.5 220 c 128,-1,5
 500 210 500 210 492 210 c 2,6,-1
 408 213 l 1,7,-1
 325 210 l 2,8,9
 317 210 317 210 312.5 220 c 128,-1,10
 308 230 308 230 308 245 c 128,-1,11
 308 260 308 260 312.5 270.5 c 128,-1,12
 317 281 317 281 325 281 c 2,13,14
 325 281 325 281 408 278 c 1,0,-1
455 442 m 128,-1,16
 469 425 469 425 468 398 c 0,17,18
 469 372 469 372 452 351 c 256,19,20
 435 330 435 330 410 330 c 128,-1,21
 385 330 385 330 372 348 c 0,22,23
 357 366 357 366 358 392 c 0,24,25
 357 418 357 418 374 438.5 c 128,-1,26
 391 459 391 459 416 459 c 128,-1,15
 441 459 441 459 455 442 c 128,-1,16
457 142 m 128,-1,28
 471 125 471 125 470 99 c 0,29,30
 471 73 471 73 454 52 c 0,31,32
 437 30 437 30 412 30 c 128,-1,33
 387 30 387 30 374 48 c 0,34,35
 359 66 359 66 360 92 c 0,36,37
 359 118 359 118 376 138.5 c 128,-1,38
 393 159 393 159 418 159 c 128,-1,27
 443 159 443 159 457 142 c 128,-1,28
192 355 m 1,39,-1
 195 57 l 2,40,41
 195 -12 195 -12 144 -12 c 0,42,43
 82 -12 82 -12 82 92 c 0,44,45
 82 198 82 198 109 385 c 1,46,47
 109 444 109 444 98 562 c 0,48,49
 86 673 86 673 86 698 c 0,50,51
 86 722 86 722 100 742 c 0,52,53
 113 760 113 760 138 760 c 0,54,55
 164 760 164 760 177 742 c 0,56,57
 191 722 191 722 191 700 c 0,58,59
 191 666 191 666 190 644 c 2,60,-1
 190 590 l 1,61,62
 218 657 218 657 279 712 c 0,63,64
 340 764 340 764 402 764 c 128,-1,65
 464 764 464 764 497 740 c 0,66,67
 530 714 530 714 530 686 c 0,68,69
 530 657 530 657 514 642 c 0,70,71
 500 625 500 625 476 625 c 128,-1,72
 452 625 452 625 426 650 c 0,73,74
 398 675 398 675 381 675 c 0,75,76
 334 675 334 675 272 568 c 0,77,78
 209 462 209 462 192 355 c 1,39,-1
EndSplineSet
EndChar

StartChar: S
Encoding: 83 83 51
Width: 586
Flags: W
LayerCount: 2
Fore
SplineSet
488 408 m 0,0,1
 520 370 520 370 520 329 c 128,-1,2
 520 288 520 288 494 250 c 0,3,4
 468 214 468 214 426 191 c 1,5,6
 485 149 485 149 485 83 c 128,-1,7
 485 17 485 17 426 -34 c 0,8,9
 368 -85 368 -85 272 -85 c 0,10,11
 201 -85 201 -85 136 -48 c 0,12,13
 69 -11 69 -11 69 26 c 0,14,15
 69 42 69 42 80 53 c 0,16,17
 90 63 90 63 108 63 c 0,18,19
 125 63 125 63 146 48 c 0,20,21
 207 2 207 2 266 2 c 0,22,23
 323 2 323 2 357 25 c 0,24,25
 390 48 390 48 390 81 c 0,26,27
 390 113 390 113 358 140 c 0,28,29
 325 165 325 165 280 187 c 0,30,31
 220 217 220 217 190 234 c 0,32,33
 144 258 144 258 112 294 c 0,34,35
 80 329 80 329 80 373 c 128,-1,36
 80 417 80 417 114 451 c 0,37,38
 148 486 148 486 204 499 c 1,39,40
 115 561 115 561 115 620 c 128,-1,41
 115 679 115 679 170 722 c 0,42,43
 226 765 226 765 302 765 c 0,44,45
 376 765 376 765 429 738 c 0,46,47
 481 711 481 711 481 675 c 0,48,49
 481 660 481 660 470 650 c 0,50,51
 461 640 461 640 444 640 c 0,52,53
 429 640 429 640 392 659 c 128,-1,54
 355 678 355 678 312 678 c 0,55,56
 268 678 268 678 240 662 c 0,57,58
 210 646 210 646 210 619 c 128,-1,59
 210 592 210 592 242 566 c 0,60,61
 271 542 271 542 320 516 c 0,62,63
 360 497 360 497 410 469 c 0,64,65
 457 443 457 443 488 408 c 0,0,1
405 276 m 256,66,67
 429 298 429 298 429 330 c 0,68,69
 429 361 429 361 376 394 c 0,70,71
 325 429 325 429 277 429 c 0,72,73
 231 429 231 429 201 414 c 128,-1,74
 171 399 171 399 171 374 c 0,75,76
 171 350 171 350 206 324 c 128,-1,77
 241 298 241 298 340 243 c 1,78,79
 381 254 381 254 405 276 c 256,66,67
EndSplineSet
EndChar

StartChar: T
Encoding: 84 84 52
Width: 593
Flags: W
LayerCount: 2
Fore
SplineSet
102 756 m 2,0,1
 102 756 102 756 301 750 c 1,2,3
 301 750 301 750 494 756 c 0,4,5
 520 756 520 756 538 744 c 0,6,7
 554 730 554 730 554 709 c 128,-1,8
 554 688 554 688 538 674 c 0,9,10
 520 662 520 662 494 662 c 2,11,-1
 350 668 l 1,12,13
 346 581 346 581 346 372 c 2,14,-1
 352 48 l 2,15,16
 352 23 352 23 338 6 c 0,17,18
 325 -10 325 -10 302 -10 c 128,-1,19
 279 -10 279 -10 264 6 c 0,20,21
 250 23 250 23 250 48 c 2,22,-1
 256 372 l 2,23,24
 256 533 256 533 251 668 c 1,25,-1
 102 662 l 2,26,27
 76 662 76 662 58 674 c 0,28,29
 42 688 42 688 42 709 c 128,-1,30
 42 730 42 730 58 744 c 0,31,32
 76 756 76 756 102 756 c 2,0,1
EndSplineSet
EndChar

StartChar: U
Encoding: 85 85 53
Width: 743
Flags: W
LayerCount: 2
Fore
SplineSet
569 62 m 0,0,1
 501 -15 501 -15 372 -15 c 128,-1,2
 243 -15 243 -15 174 62 c 128,-1,3
 105 139 105 139 103 249 c 0,4,5
 102 284 102 284 102 378 c 0,6,7
 102 478 102 478 100 526 c 0,8,9
 100 551 100 551 99 588.5 c 128,-1,10
 98 626 98 626 98 638 c 0,11,12
 96 667 96 667 96 689 c 0,13,14
 96 760 96 760 147 760 c 128,-1,15
 198 760 198 760 198 689 c 0,16,17
 198 687 198 687 197.5 679.5 c 128,-1,18
 197 672 197 672 196.5 657 c 128,-1,19
 196 642 196 642 196 626 c 0,20,21
 192 478 192 478 192 366 c 0,22,23
 192 267 192 267 200 230 c 0,24,25
 206 189 206 189 226 150 c 0,26,27
 264 72 264 72 371 72 c 0,28,29
 524 72 524 72 546 249 c 0,30,31
 551 287 551 287 551 344 c 0,32,33
 551 362 551 362 550.5 409 c 128,-1,34
 550 456 550 456 550 486 c 0,35,36
 549 511 549 511 548 558 c 128,-1,37
 547 605 547 605 546 626 c 0,38,39
 546 642 546 642 546 656.5 c 128,-1,40
 546 671 546 671 545.5 679.5 c 128,-1,41
 545 688 545 688 545 689 c 0,42,43
 545 760 545 760 596 760 c 128,-1,44
 647 760 647 760 647 689 c 0,45,46
 647 667 647 667 646 638 c 0,47,48
 641 496 641 496 641 406 c 0,49,50
 641 284 641 284 640 249 c 0,51,52
 638 138 638 138 569 62 c 0,0,1
EndSplineSet
EndChar

StartChar: V
Encoding: 86 86 54
Width: 673
Flags: W
LayerCount: 2
Fore
SplineSet
340 328 m 1,0,-1
 297 424 l 2,1,2
 274 469 274 469 247 516 c 0,3,4
 212 579 212 579 196 615 c 0,5,6
 179 649 179 649 179 684 c 0,7,8
 179 717 179 717 189 736 c 0,9,10
 198 757 198 757 213 757 c 0,11,12
 226 757 226 757 243 725 c 0,13,14
 258 698 258 698 292 623 c 0,15,16
 338 527 338 527 340 523 c 1,17,18
 352 547 352 547 385 619 c 0,19,20
 423 703 423 703 435 725 c 0,21,22
 453 758 453 758 466 758 c 0,23,24
 480 758 480 758 490 738 c 128,-1,25
 500 718 500 718 500 685 c 0,26,27
 500 655 500 655 483 618 c 0,28,29
 465 579 465 579 432 520 c 0,30,31
 400 461 400 461 383 426 c 2,32,-1
 340 328 l 1,0,-1
397 34 m 0,33,34
 380 -10 380 -10 336 -10 c 0,35,36
 302 -10 302 -10 276 40 c 0,37,38
 159 272 159 272 120 386 c 0,39,40
 115 402 115 402 88 480 c 0,41,42
 64 544 64 544 52 576 c 0,43,44
 40 609 40 609 40 623 c 128,-1,45
 40 637 40 637 52 652 c 0,46,47
 66 667 66 667 87 667 c 0,48,49
 122 667 122 667 140 622 c 0,50,51
 330 133 330 133 337 133 c 0,52,53
 374 133 374 133 538 622 c 0,54,55
 553 667 553 667 586 667 c 0,56,57
 608 667 608 667 620 652 c 0,58,59
 633 638 633 638 633 623 c 128,-1,60
 633 608 633 608 621 577 c 0,61,62
 571 432 571 432 554 390 c 0,63,64
 417 87 417 87 397 34 c 0,33,34
EndSplineSet
EndChar

StartChar: W
Encoding: 87 87 55
Width: 759
Flags: W
LayerCount: 2
Fore
SplineSet
128 376 m 1,0,-1
 123 636 l 1,1,2
 79 641 79 641 79 678 c 128,-1,3
 79 715 79 715 158 740 c 0,4,5
 238 764 238 764 322 764 c 0,6,7
 405 764 405 764 479 731 c 0,8,9
 552 698 552 698 596 642 c 0,10,11
 687 529 687 529 687 372 c 0,12,13
 687 220 687 220 600 108 c 0,14,15
 556 52 556 52 486 18 c 0,16,17
 416 -15 416 -15 317 -15 c 128,-1,18
 218 -15 218 -15 147 10 c 0,19,20
 75 36 75 36 75 74 c 0,21,22
 75 111 75 111 125 111 c 1,23,-1
 128 376 l 1,0,-1
520 590 m 0,24,25
 447 678 447 678 313 678 c 0,26,27
 258 678 258 678 222 661 c 1,28,29
 219 600 219 600 219 390 c 0,30,31
 219 193 219 193 224 85 c 1,32,33
 259 72 259 72 325 72 c 0,34,35
 390 72 390 72 442 98 c 0,36,37
 493 122 493 122 526 168 c 0,38,39
 591 259 591 259 591 380 c 0,40,41
 591 499 591 499 520 590 c 0,24,25
EndSplineSet
EndChar

StartChar: X
Encoding: 88 88 56
Width: 708
Flags: W
LayerCount: 2
Fore
SplineSet
256 431.5 m 128,-1,1
 256 443 256 443 263 453 c 256,2,3
 270 463 270 463 287 470 c 0,4,5
 302 479 302 479 318 485 c 0,6,7
 346 495 346 495 364 501 c 0,8,9
 373 503 373 503 384.5 507.5 c 128,-1,10
 396 512 396 512 403.5 514.5 c 128,-1,11
 411 517 411 517 418 519 c 0,12,13
 441 527 441 527 467 537 c 0,14,15
 474 540 474 540 484 543.5 c 128,-1,16
 494 547 494 547 500 549.5 c 128,-1,17
 506 552 506 552 510 554 c 0,18,19
 514 555 514 555 525.5 558.5 c 128,-1,20
 537 562 537 562 543 564 c 0,21,22
 574 575 574 575 589 575 c 0,23,24
 602 575 602 575 612 568 c 0,25,26
 621 560 621 560 621 550 c 0,27,28
 621 533 621 533 595 523 c 0,29,30
 573 515 573 515 523 498 c 0,31,32
 476 484 476 484 461 478 c 0,33,34
 345 438 345 438 345 432 c 256,35,36
 345 426 345 426 431 395 c 2,37,-1
 460 385 l 2,38,39
 475 379 475 379 522 365 c 0,40,41
 572 348 572 348 595 340 c 0,42,43
 620 331 620 331 620 313 c 0,44,45
 620 303 620 303 611 295 c 0,46,47
 601 288 601 288 592 288 c 0,48,49
 580 288 580 288 571 291 c 0,50,51
 559 293 559 293 542 299 c 0,52,53
 540 300 540 300 510 309 c 0,54,55
 430 340 430 340 379 357 c 0,56,57
 342 370 342 370 317 378 c 0,58,59
 301 385 301 385 287 393 c 0,60,61
 270 401 270 401 263 410 c 0,62,0
 256 420 256 420 256 431.5 c 128,-1,1
294 242 m 2,63,-1
 438 240 l 1,64,-1
 582 242 l 2,65,66
 600 242 600 242 609 234 c 0,67,68
 620 227 620 227 620 214.5 c 128,-1,69
 620 202 620 202 609 195 c 0,70,71
 600 187 600 187 582 187 c 2,72,-1
 438 189 l 1,73,74
 438 189 438 189 294 187 c 0,75,76
 276 187 276 187 267 195 c 0,77,78
 256 202 256 202 256 214.5 c 128,-1,79
 256 227 256 227 267 234 c 0,80,81
 276 242 276 242 294 242 c 2,63,-1
655 106 m 0,82,83
 655 70 655 70 580.5 27.5 c 128,-1,84
 506 -15 506 -15 405 -15 c 0,85,86
 262 -15 262 -15 167 99 c 128,-1,87
 72 213 72 213 72 376 c 128,-1,88
 72 539 72 539 167.5 652 c 128,-1,89
 263 765 263 765 407 765 c 0,90,91
 495 765 495 765 564.5 732 c 128,-1,92
 634 699 634 699 634 658 c 0,93,94
 634 638 634 638 622 626 c 128,-1,95
 610 614 610 614 589.5 614 c 128,-1,96
 569 614 569 614 535 637 c 0,97,98
 471 678 471 678 407 678 c 0,99,100
 303 678 303 678 235.5 588.5 c 128,-1,101
 168 499 168 499 168 376.5 c 128,-1,102
 168 254 168 254 235.5 163 c 128,-1,103
 303 72 303 72 401 72 c 128,-1,104
 499 72 499 72 580 121 c 0,105,106
 613 139 613 139 624.5 139 c 128,-1,107
 636 139 636 139 645.5 129.5 c 128,-1,108
 655 120 655 120 655 106 c 0,82,83
EndSplineSet
EndChar

StartChar: Y
Encoding: 89 89 57
Width: 607
Flags: W
LayerCount: 2
Fore
SplineSet
410 773 m 1,0,1
 410 773 410 773 448 729 c 1,2,-1
 300 444 l 1,3,4
 300 444 300 444 218 595 c 1,5,-1
 248 662 l 1,6,7
 248 662 248 662 300 550 c 1,8,-1
 410 773 l 1,0,1
347 303 m 1,9,10
 347 264 347 264 350 142 c 2,11,-1
 352 61 l 2,12,13
 354 -10 354 -10 301 -10 c 256,14,15
 248 -10 248 -10 250 61 c 2,16,-1
 252 144 l 2,17,18
 255 268 255 268 255 304 c 1,19,20
 63 634 63 634 43 673 c 0,21,22
 30 699 30 699 30 717 c 0,23,24
 30 734 30 734 36.5 747 c 128,-1,25
 43 760 43 760 65 760 c 0,26,27
 93 760 93 760 104 738 c 0,28,29
 105 736 105 736 169 603 c 0,30,31
 191 557 191 557 302 360 c 1,32,33
 381 497 381 497 368 495.5 c 128,-1,34
 355 494 355 494 388 552 c 0,35,36
 401 574 401 574 402 576 c 0,37,38
 404 577 404 577 407 584 c 128,-1,39
 410 591 410 591 414 595 c 0,40,41
 421 602 421 602 426 612 c 0,42,43
 428 616 428 616 436 624 c 0,44,45
 446 634 446 634 464 634 c 0,46,47
 484 634 484 634 494 622 c 0,48,49
 505 609 505 609 505 593 c 0,50,51
 505 575 505 575 490 548 c 2,52,-1
 500 564 l 2,53,54
 480 531 480 531 459 496 c 128,-1,55
 438 461 438 461 437 458 c 0,56,57
 435 454 435 454 421 430.5 c 128,-1,58
 407 407 407 407 398 390 c 0,59,60
 390 376 390 376 373 347 c 128,-1,61
 356 318 356 318 347 303 c 1,9,10
EndSplineSet
EndChar

StartChar: Z
Encoding: 90 90 58
Width: 618
Flags: W
LayerCount: 2
Fore
SplineSet
120 755 m 2,0,1
 120 755 120 755 295 750 c 1,2,3
 295 750 295 750 498 755 c 0,4,5
 555 756 555 756 555 714 c 0,6,7
 555 686 555 686 534 653 c 2,8,-1
 423 472 l 1,9,-1
 510 472 l 1,10,-1
 510 418 l 1,11,-1
 382 418 l 1,12,-1
 351 368 l 1,13,-1
 310 301 l 1,14,-1
 510 301 l 1,15,-1
 510 231 l 1,16,-1
 268 231 l 1,17,-1
 180 87 l 1,18,19
 243 82 243 82 308 82 c 0,20,21
 385 82 385 82 440 86 c 0,22,23
 502 89 502 89 520 89 c 0,24,25
 537 89 537 89 554 76 c 0,26,27
 570 63 570 63 570 42 c 128,-1,28
 570 21 570 21 554 8 c 0,29,30
 535 -6 535 -6 510 -5 c 2,31,-1
 335 0 l 1,32,-1
 106 -5 l 2,33,34
 65 -6 65 -6 50.5 5 c 128,-1,35
 36 16 36 16 49 38 c 2,36,-1
 160 231 l 1,37,-1
 62 231 l 1,38,-1
 62 301 l 1,39,-1
 197 301 l 1,40,-1
 200 301 l 1,41,42
 266 416 266 416 273 416 c 2,43,-1
 61 416 l 1,44,-1
 61 472 l 1,45,-1
 306 472 l 1,46,-1
 425 664 l 1,47,48
 385 668 385 668 316 668 c 0,49,50
 245 668 245 668 190 664 c 0,51,52
 128 661 128 661 110 661 c 0,53,54
 93 661 93 661 76 674 c 0,55,56
 60 687 60 687 60 708 c 128,-1,57
 60 729 60 729 76 742 c 0,58,59
 95 756 95 756 120 755 c 2,0,1
EndSplineSet
EndChar

StartChar: bracketleft
Encoding: 91 91 59
Width: 438
Flags: W
LayerCount: 2
Fore
SplineSet
193 0 m 1,0,-1
 337 3 l 2,1,2
 365 3 365 3 380 -9 c 0,3,4
 397 -20 397 -20 397 -42 c 0,5,6
 397 -63 397 -63 380 -74 c 0,7,8
 365 -86 365 -86 337 -86 c 2,9,-1
 243 -83 l 1,10,-1
 146 -87 l 2,11,12
 121 -87 121 -87 107 -74 c 0,13,14
 92 -62 92 -62 92 -46 c 256,15,16
 92 -30 92 -30 95 104 c 0,17,18
 98 239 98 239 98 375 c 0,19,20
 98 525 98 525 94 640 c 0,21,22
 91 770 91 770 91 790 c 256,23,24
 91 810 91 810 106 824 c 0,25,26
 121 839 121 839 146 839 c 2,27,-1
 243 835 l 1,28,-1
 337 838 l 2,29,30
 364 838 364 838 380 826 c 0,31,32
 397 812 397 812 397 793 c 128,-1,33
 397 774 397 774 380 760 c 0,34,35
 364 748 364 748 337 748 c 0,36,37
 326 748 326 748 314 749 c 0,38,39
 266 751 266 751 193 751 c 1,40,41
 193 748 193 748 190 618 c 0,42,43
 187 489 187 489 187 376 c 0,44,45
 187 264 187 264 190 136 c 128,-1,46
 193 8 193 8 193 0 c 1,0,-1
EndSplineSet
EndChar

StartChar: backslash
Encoding: 92 92 60
Width: 433
Flags: W
LayerCount: 2
Fore
SplineSet
82 820 m 0,0,1
 94 835 94 835 114 835 c 128,-1,2
 134 835 134 835 148 822 c 0,3,4
 161 807 161 807 165 787 c 0,5,6
 239 456 239 456 290 256 c 0,7,8
 361 -22 361 -22 361 -38 c 0,9,10
 361 -57 361 -57 348 -70 c 0,11,12
 336 -84 336 -84 314 -84 c 0,13,14
 293 -84 293 -84 280 -68 c 0,15,16
 269 -49 269 -49 262 -20 c 0,17,18
 197 278 197 278 148 468 c 0,19,20
 71 774 71 774 71 788 c 0,21,22
 71 804 71 804 82 820 c 0,0,1
EndSplineSet
EndChar

StartChar: bracketright
Encoding: 93 93 61
Width: 438
Flags: W
LayerCount: 2
Fore
SplineSet
245 752 m 1,0,-1
 101 749 l 2,1,2
 73 749 73 749 58 761 c 0,3,4
 41 772 41 772 41 794 c 0,5,6
 41 815 41 815 58 826 c 0,7,8
 73 838 73 838 101 838 c 2,9,-1
 195 835 l 1,10,-1
 292 839 l 2,11,12
 317 839 317 839 331 826 c 0,13,14
 346 814 346 814 346 798 c 256,15,16
 346 782 346 782 343 648 c 0,17,18
 340 513 340 513 340 377 c 0,19,20
 340 227 340 227 344 112 c 0,21,22
 347 -18 347 -18 347 -38 c 256,23,24
 347 -58 347 -58 332 -72 c 0,25,26
 317 -87 317 -87 292 -87 c 2,27,-1
 195 -83 l 1,28,-1
 101 -86 l 2,29,30
 74 -86 74 -86 58 -74 c 0,31,32
 41 -60 41 -60 41 -41 c 128,-1,33
 41 -22 41 -22 58 -8 c 0,34,35
 74 4 74 4 101 4 c 2,36,-1
 245 1 l 2,37,38
 245 3 245 3 248 134 c 0,39,40
 251 263 251 263 251 376 c 0,41,42
 251 488 251 488 248 616 c 128,-1,43
 245 744 245 744 245 752 c 1,0,-1
EndSplineSet
EndChar

StartChar: asciicircum
Encoding: 94 94 62
Width: 591
Flags: W
LayerCount: 2
Fore
SplineSet
79 458 m 0,0,1
 133 548 133 548 162 594 c 0,2,3
 177 618 177 618 197 650 c 128,-1,4
 217 682 217 682 227.5 699 c 128,-1,5
 238 716 238 716 244 726 c 0,6,7
 263 760 263 760 296 760 c 128,-1,8
 329 760 329 760 350 725 c 0,9,10
 508 471 508 471 526 437 c 0,11,12
 536 412 536 412 536 402 c 0,13,14
 536 388 536 388 524 376 c 128,-1,15
 512 364 512 364 490 364 c 256,16,17
 468 364 468 364 454 391 c 0,18,19
 394 498 394 498 359 560 c 0,20,21
 300 660 300 660 296 660 c 128,-1,22
 292 660 292 660 234 560 c 0,23,24
 167 444 167 444 139 391 c 0,25,26
 132 378 132 378 122 372 c 0,27,28
 111 364 111 364 96 364 c 128,-1,29
 81 364 81 364 69 376 c 128,-1,30
 57 388 57 388 57 404 c 0,31,32
 57 421 57 421 79 458 c 0,0,1
EndSplineSet
EndChar

StartChar: underscore
Encoding: 95 95 63
Width: 382
Flags: W
LayerCount: 2
Fore
SplineSet
189 14 m 1,0,-1
 50 11 l 2,1,2
 35 11 35 11 26 23 c 0,3,4
 16 34 16 34 16 52 c 128,-1,5
 16 70 16 70 26 81 c 0,6,7
 34 92 34 92 50 92 c 2,8,-1
 189 90 l 1,9,-1
 328 92 l 2,10,11
 343 92 343 92 353 81 c 0,12,13
 362 69 362 69 362 52 c 128,-1,14
 362 35 362 35 353 23 c 0,15,16
 342 11 342 11 328 11 c 2,17,-1
 189 14 l 1,0,-1
EndSplineSet
EndChar

StartChar: grave
Encoding: 96 96 64
Width: 330
Flags: W
LayerCount: 2
Fore
SplineSet
85 696 m 0,0,1
 85 713 85 713 96 726 c 0,2,3
 107 740 107 740 126 740 c 0,4,5
 143 740 143 740 156 730 c 0,6,7
 168 721 168 721 174 712 c 0,8,9
 176 708 176 708 181 697.5 c 128,-1,10
 186 687 186 687 188 682 c 0,11,12
 198 661 198 661 221 632 c 0,13,14
 245 604 245 604 245 591 c 128,-1,15
 245 578 245 578 236 571 c 0,16,17
 228 563 228 563 212 563 c 0,18,19
 180 563 180 563 132 608 c 0,20,21
 85 652 85 652 85 696 c 0,0,1
EndSplineSet
EndChar

StartChar: a
Encoding: 97 97 65
Width: 810
Flags: W
LayerCount: 2
Fore
SplineSet
648 367 m 1,0,1
 648 257 648 257 662 178 c 0,2,3
 677 101 677 101 698 90 c 0,4,5
 700 89 700 89 717 84 c 0,6,7
 727 84 727 84 733 80 c 0,8,9
 738 77 738 77 738 69 c 0,10,11
 738 33 738 33 718 10 c 128,-1,12
 698 -13 698 -13 665 -13 c 0,13,14
 622 -13 622 -13 599 37 c 0,15,16
 577 85 577 85 577 165 c 1,17,18
 526 84 526 84 466 33 c 0,19,20
 406 -15 406 -15 334 -15 c 0,21,22
 260 -15 260 -15 212 20 c 0,23,24
 163 53 163 53 132 110 c 0,25,26
 72 226 72 226 72 363 c 0,27,28
 72 528 72 528 157 646 c 0,29,30
 243 765 243 765 377 765 c 0,31,32
 427 765 427 765 478 746 c 0,33,34
 529 725 529 725 561 696 c 1,35,36
 561 765 561 765 612 765 c 0,37,38
 675 765 675 765 675 664 c 0,39,40
 675 589 675 589 648 367 c 1,0,1
569 355 m 1,41,-1
 563 600 l 1,42,43
 478 678 478 678 377 678 c 0,44,45
 294 678 294 678 231 588 c 0,46,47
 168 500 168 500 168 371 c 0,48,49
 168 240 168 240 212 158 c 0,50,51
 254 72 254 72 330 72 c 0,52,53
 403 72 403 72 480 167 c 0,54,55
 556 262 556 262 569 355 c 1,41,-1
484 986 m 0,56,57
 514 956 514 956 514 914 c 0,58,59
 514 873 514 873 486 843 c 0,60,61
 457 815 457 815 411 815 c 128,-1,62
 365 815 365 815 336 843 c 0,63,64
 308 873 308 873 308 914 c 0,65,66
 308 958 308 958 338 986 c 0,67,68
 366 1016 366 1016 411 1016 c 128,-1,69
 456 1016 456 1016 484 986 c 0,56,57
449 914 m 128,-1,71
 449 928 449 928 437 942 c 0,72,73
 425 955 425 955 410 955 c 0,74,75
 396 955 396 955 384 942 c 0,76,77
 373 929 373 929 373 914 c 0,78,79
 373 900 373 900 384 887 c 0,80,81
 395 875 395 875 410 875 c 0,82,83
 426 875 426 875 438 887 c 0,84,70
 449 900 449 900 449 914 c 128,-1,71
EndSplineSet
EndChar

StartChar: b
Encoding: 98 98 66
Width: 651
Flags: W
LayerCount: 2
Fore
SplineSet
324 93 m 0,0,1
 258 93 258 93 214 116 c 1,2,3
 211 164 211 164 211 259 c 0,4,5
 211 340 211 340 213 398 c 1,6,7
 274 413 274 413 348 413 c 128,-1,8
 422 413 422 413 474 368 c 0,9,10
 528 323 528 323 528 252 c 0,11,12
 528 182 528 182 474 138 c 0,13,14
 420 93 420 93 324 93 c 0,0,1
114 724 m 2,15,-1
 122 390 l 1,16,17
 122 143 122 143 116 143 c 0,18,19
 94 140 94 140 83 128 c 0,20,21
 72 115 72 115 72 96 c 0,22,23
 72 78 72 78 101 58 c 0,24,25
 129 39 129 39 172 28 c 0,26,27
 256 7 256 7 318 7 c 0,28,29
 467 7 467 7 546 78 c 0,30,31
 624 148 624 148 624 252 c 128,-1,32
 624 356 624 356 546 426 c 0,33,34
 468 498 468 498 344 498 c 0,35,36
 253 498 253 498 211 487 c 1,37,-1
 216 724 l 2,38,39
 216 749 216 749 202 766 c 0,40,41
 189 782 189 782 166 782 c 128,-1,42
 143 782 143 782 128 766 c 0,43,44
 114 749 114 749 114 724 c 2,15,-1
EndSplineSet
EndChar

StartChar: c
Encoding: 99 99 67
Width: 708
Flags: W
LayerCount: 2
Fore
SplineSet
515 -133 m 0,0,1
 515 -174 515 -174 478 -202 c 0,2,3
 440 -230 440 -230 388 -230 c 0,4,5
 337 -230 337 -230 304 -206 c 0,6,7
 273 -180 273 -180 273 -155 c 0,8,9
 273 -147 273 -147 280 -138 c 0,10,11
 290 -130 290 -130 300 -130 c 0,12,13
 312 -130 312 -130 336 -142 c 0,14,15
 363 -154 363 -154 381 -154 c 0,16,17
 401 -154 401 -154 412 -147 c 0,18,19
 424 -140 424 -140 424 -131 c 0,20,21
 424 -121 424 -121 410 -112 c 0,22,23
 404 -108 404 -108 393 -100.5 c 128,-1,24
 382 -93 382 -93 378 -90 c 0,25,26
 363 -82 363 -82 346 -58 c 0,27,28
 331 -34 331 -34 331 -6 c 1,29,30
 215 23 215 23 144 128 c 0,31,32
 72 236 72 236 72 376 c 0,33,34
 72 540 72 540 168 652 c 0,35,36
 263 765 263 765 407 765 c 0,37,38
 495 765 495 765 564 732 c 0,39,40
 634 699 634 699 634 658 c 0,41,42
 634 638 634 638 622 626 c 128,-1,43
 610 614 610 614 590 614 c 0,44,45
 572 614 572 614 535 637 c 0,46,47
 476 678 476 678 407 678 c 0,48,49
 302 678 302 678 236 588 c 0,50,51
 168 501 168 501 168 376 c 0,52,53
 168 253 168 253 236 163 c 0,54,55
 302 72 302 72 401 72 c 128,-1,56
 500 72 500 72 580 121 c 0,57,58
 613 139 613 139 624 139 c 0,59,60
 636 139 636 139 646 130 c 0,61,62
 655 120 655 120 655 106 c 0,63,64
 655 71 655 71 583 29 c 0,65,66
 510 -14 510 -14 412 -15 c 1,67,68
 415 -32 415 -32 441 -49 c 0,69,70
 463 -63 463 -63 491 -86 c 0,71,72
 515 -106 515 -106 515 -133 c 0,0,1
EndSplineSet
EndChar

StartChar: d
Encoding: 100 100 68
Width: 651
Flags: W
LayerCount: 2
Fore
SplineSet
368 93 m 0,0,1
 434 93 434 93 478 116 c 1,2,3
 481 164 481 164 481 259 c 0,4,5
 481 340 481 340 479 398 c 1,6,7
 418 413 418 413 344 413 c 128,-1,8
 270 413 270 413 218 368 c 0,9,10
 164 323 164 323 164 252 c 0,11,12
 164 182 164 182 218 138 c 0,13,14
 272 93 272 93 368 93 c 0,0,1
578 724 m 2,15,-1
 570 390 l 1,16,17
 570 143 570 143 576 143 c 0,18,19
 598 140 598 140 609 128 c 0,20,21
 620 115 620 115 620 96 c 0,22,23
 620 78 620 78 591 58 c 0,24,25
 563 39 563 39 520 28 c 0,26,27
 436 7 436 7 374 7 c 0,28,29
 225 7 225 7 146 78 c 0,30,31
 68 148 68 148 68 252 c 128,-1,32
 68 356 68 356 146 426 c 0,33,34
 224 498 224 498 348 498 c 0,35,36
 439 498 439 498 481 487 c 1,37,-1
 476 724 l 2,38,39
 476 749 476 749 490 766 c 0,40,41
 503 782 503 782 526 782 c 128,-1,42
 549 782 549 782 564 766 c 0,43,44
 578 749 578 749 578 724 c 2,15,-1
EndSplineSet
EndChar

StartChar: e
Encoding: 101 101 69
Width: 745
Flags: W
LayerCount: 2
Fore
SplineSet
596 553 m 0,0,1
 596 599 596 599 558 639 c 0,2,3
 519 678 519 678 452 678 c 0,4,5
 384 678 384 678 334 638 c 0,6,7
 240 565 240 565 213 421 c 1,8,9
 290 400 290 400 384 400 c 0,10,11
 480 400 480 400 538 440 c 128,-1,12
 596 480 596 480 596 553 c 0,0,1
597 28 m 0,13,14
 527 -15 527 -15 444 -15 c 0,15,16
 362 -15 362 -15 301 16 c 0,17,18
 239 48 239 48 201 99 c 0,19,20
 120 207 120 207 114 352 c 1,21,22
 42 374 42 374 42 423 c 0,23,24
 42 443 42 443 54 454 c 0,25,26
 65 466 65 466 80 466 c 128,-1,27
 95 466 95 466 122 454 c 1,28,29
 154 589 154 589 238 676 c 0,30,31
 324 765 324 765 448 765 c 0,32,33
 550 765 550 765 620 704 c 0,34,35
 692 642 692 642 692 557 c 256,36,37
 692 472 692 472 648 416 c 0,38,39
 565 315 565 315 390 315 c 0,40,41
 320 315 320 315 211 335 c 1,42,43
 220 227 220 227 282 150 c 0,44,45
 345 72 345 72 432 72 c 128,-1,46
 519 72 519 72 593 121 c 0,47,48
 626 139 626 139 638 139 c 0,49,50
 649 139 649 139 658 130 c 0,51,52
 668 120 668 120 668 106 c 0,53,54
 668 72 668 72 597 28 c 0,13,14
EndSplineSet
EndChar

StartChar: f
Encoding: 102 102 70
Width: 616
Flags: W
LayerCount: 2
Fore
SplineSet
513.177734375 159.572265625 m 6,0,-1
 514.657226562 31.1083984375 l 6,1,2
 514.657226562 1.271484375 514.657226562 1.271484375 488.501953125 1.271484375 c 4,3,4
 472.215820312 1.271484375 472.215820312 1.271484375 463.827148438 14.1171875 c 6,5,-1
 307.387695312 240.380859375 l 5,6,7
 307.387695312 143.825195312 307.387695312 143.825195312 308.62109375 86.22265625 c 132,-1,8
 309.85546875 28.6220703125 309.85546875 28.6220703125 309.85546875 21.7841796875 c 132,-1,9
 309.85546875 14.9462890625 309.85546875 14.9462890625 302.452148438 8.1083984375 c 132,-1,10
 295.049804688 1.271484375 295.049804688 1.271484375 284.93359375 1.271484375 c 132,-1,11
 274.815429688 1.271484375 274.815429688 1.271484375 267.661132812 8.1083984375 c 132,-1,12
 260.504882812 14.9462890625 260.504882812 14.9462890625 260.504882812 25.306640625 c 6,13,-1
 262.478515625 159.572265625 l 6,14,15
 262.478515625 202.255859375 262.478515625 202.255859375 261.244140625 246.181640625 c 132,-1,16
 260.010742188 290.108398438 260.010742188 290.108398438 260.010742188 290.9375 c 4,17,18
 260.010742188 320.360351562 260.010742188 320.360351562 285.1796875 320.360351562 c 4,19,20
 303.439453125 320.360351562 303.439453125 320.360351562 312.322265625 307.512695312 c 4,21,22
 455.930664062 100.3125 455.930664062 100.3125 468.762695312 83.7373046875 c 5,23,24
 468.762695312 201.01171875 468.762695312 201.01171875 467.280273438 245.352539062 c 132,-1,25
 465.80078125 289.693359375 465.80078125 289.693359375 465.80078125 290.9375 c 4,26,27
 465.80078125 320.360351562 465.80078125 320.360351562 490.969726562 320.360351562 c 132,-1,28
 516.137695312 320.360351562 516.137695312 320.360351562 516.137695312 290.9375 c 4,29,30
 516.137695312 287.622070312 516.137695312 287.622070312 515.150390625 268.973632812 c 4,31,32
 513.177734375 213.858398438 513.177734375 213.858398438 513.177734375 159.572265625 c 6,0,-1
284 440 m 1,33,-1
 454 445 l 2,34,35
 481 445 481 445 497 432 c 0,36,37
 513 420 513 420 513 399 c 0,38,39
 513 355 513 355 454 355 c 2,40,-1
 284 359 l 2,41,42
 232 359 232 359 217 358 c 1,43,44
 217 227.5 217 227.5 220 148 c 128,-1,45
 223 68.5 223 68.5 223 61 c 0,46,47
 223 -10 223 -10 172 -10 c 128,-1,48
 121 -10 121 -10 121 61 c 0,49,50
 121 82 121 82 122 108 c 0,51,52
 127 238 127 238 127 355 c 1,53,54
 60 355 60 355 60 399 c 0,55,56
 60 422 60 422 79 434 c 0,57,58
 99 445 99 445 127 445 c 1,59,60
 126 624 126 624 120 670 c 1,61,62
 108 690 108 690 108 710 c 0,63,64
 108 755 108 755 170 755 c 2,65,-1
 355 750 l 1,66,-1
 515 756 l 2,67,68
 543 756 543 756 558 744 c 0,69,70
 575 731 575 731 575 709 c 128,-1,71
 575 687 575 687 558 674 c 0,72,73
 543 662 543 662 515 662 c 2,74,-1
 355 668 l 2,75,76
 284 668 284 668 217 663 c 1,77,-1
 217 441 l 1,78,79
 230 440 230 440 284 440 c 1,33,-1
EndSplineSet
EndChar

StartChar: g
Encoding: 103 103 71
Width: 558
Flags: W
LayerCount: 2
Fore
SplineSet
429 482 m 1,0,-1
 429 633 l 1,1,2
 367 695 367 695 293 695 c 0,3,4
 235 695 235 695 170 624 c 0,5,6
 113 561 113 561 122 490 c 0,7,8
 128 419 128 419 161 364 c 0,9,10
 193 311 193 311 253 311 c 0,11,12
 318 311 318 311 350 346 c 0,13,14
 400 397 400 397 429 482 c 1,0,-1
427 714 m 1,15,16
 429 764 429 764 470 764 c 0,17,18
 525 764 525 764 521 691 c 0,19,20
 512 530 512 530 512 491 c 2,21,-1
 512 298 l 2,22,23
 512 160 512 160 443 75 c 0,24,25
 373 -10 373 -10 250 -10 c 0,26,27
 182 -10 182 -10 119 17 c 0,28,29
 57 44 57 44 57 98 c 0,30,31
 57 125 57 125 82 125 c 0,32,33
 91 125 91 125 140 105 c 0,34,35
 185 86 185 86 250 86 c 0,36,37
 313 86 313 86 378 139 c 0,38,39
 418 170 418 170 418 250 c 0,40,41
 418 287 418 287 412 326 c 1,42,43
 400 306 400 306 350 265 c 0,44,45
 302 223 302 223 242 223 c 0,46,47
 132 223 132 223 74 311 c 0,48,49
 24 388 24 388 24 496 c 0,50,51
 24 592 24 592 99 678 c 128,-1,52
 174 764 174 764 287 764 c 0,53,54
 363 764 363 764 427 714 c 1,15,16
EndSplineSet
EndChar

StartChar: h
Encoding: 104 104 72
Width: 768
Flags: W
LayerCount: 2
Fore
SplineSet
553 353 m 1,0,-1
 381 355 l 2,1,2
 248 355 248 355 213 354 c 1,3,4
 213 275 213 275 216 170 c 0,5,6
 219 67 219 67 219 61 c 0,7,8
 219 -10 219 -10 168 -10 c 128,-1,9
 117 -10 117 -10 117 61 c 0,10,11
 117 66 117 66 120 169 c 0,12,13
 123 273 123 273 123 351 c 1,14,15
 59 351 59 351 59 396 c 0,16,17
 59 417 59 417 76 430 c 0,18,19
 91 442 91 442 123 442 c 1,20,21
 123 521 123 521 120 602 c 0,22,23
 117 684 117 684 117 689 c 0,24,25
 117 760 117 760 168 760 c 128,-1,26
 219 760 219 760 219 689 c 0,27,28
 219 684 219 684 216 601 c 256,29,30
 213 518 213 518 213 439 c 1,31,32
 343 437 343 437 408 437 c 0,33,34
 489 437 489 437 553 439 c 2,35,-1
 644 443 l 1,36,-1
 644 350 l 2,37,38
 644 272 644 272 647 168 c 0,39,40
 650 66 650 66 650 61 c 0,41,42
 650 -10 650 -10 599 -10 c 128,-1,43
 548 -10 548 -10 548 61 c 2,44,-1
 553 353 l 1,0,-1
EndSplineSet
EndChar

StartChar: i
Encoding: 105 105 73
Width: 267
Flags: W
LayerCount: 2
Fore
SplineSet
174 742 m 0,0,1
 188 724 188 724 188 698 c 0,2,3
 188 674 188 674 172 653 c 0,4,5
 154 633 154 633 130 633 c 128,-1,6
 106 633 106 633 92 650 c 0,7,8
 79 666 79 666 79 692 c 0,9,10
 79 717 79 717 96 739 c 0,11,12
 113 760 113 760 137 760 c 0,13,14
 162 760 162 760 174 742 c 0,0,1
177 278 m 1,15,-1
 185 50 l 2,16,17
 185 22 185 22 172 2 c 0,18,19
 157 -15 157 -15 134 -15 c 128,-1,20
 111 -15 111 -15 96 2 c 0,21,22
 83 21 83 21 83 50 c 2,23,-1
 90 278 l 1,24,-1
 89 479 l 2,25,26
 89 505 89 505 101 520 c 128,-1,27
 113 535 113 535 134 535 c 128,-1,28
 155 535 155 535 167 520 c 128,-1,29
 179 505 179 505 179 479 c 2,30,-1
 177 278 l 1,15,-1
EndSplineSet
EndChar

StartChar: j
Encoding: 106 106 74
Width: 593
Flags: W
LayerCount: 2
Fore
SplineSet
272.208007812 380.243164062 m 5,0,-1
 193.87109375 381.407226562 l 6,1,2
 133.296875 381.407226562 133.296875 381.407226562 117.356445312 380.825195312 c 5,3,4
 117.356445312 334.862304688 117.356445312 334.862304688 118.72265625 273.7734375 c 4,5,6
 120.08984375 213.845703125 120.08984375 213.845703125 120.08984375 210.35546875 c 4,7,8
 120.08984375 169.047851562 120.08984375 169.047851562 96.861328125 169.047851562 c 132,-1,9
 73.634765625 169.047851562 73.634765625 169.047851562 73.634765625 210.35546875 c 4,10,11
 73.634765625 212.973632812 73.634765625 212.973632812 75.001953125 273.190429688 c 4,12,13
 76.3671875 333.69921875 76.3671875 333.69921875 76.3671875 379.079101562 c 5,14,15
 47.21875 379.079101562 47.21875 379.079101562 47.21875 405.26171875 c 4,16,17
 47.21875 417.479492188 47.21875 417.479492188 54.9619140625 425.041992188 c 4,18,19
 61.79296875 432.024414062 61.79296875 432.024414062 76.3671875 432.024414062 c 5,20,21
 76.3671875 477.987304688 76.3671875 477.987304688 75.001953125 525.11328125 c 4,22,23
 73.634765625 573.11328125 73.634765625 573.11328125 73.634765625 575.731445312 c 4,24,25
 73.634765625 617.040039062 73.634765625 617.040039062 96.861328125 617.040039062 c 132,-1,26
 120.08984375 617.040039062 120.08984375 617.040039062 120.08984375 575.731445312 c 4,27,28
 120.08984375 572.822265625 120.08984375 572.822265625 118.72265625 524.532226562 c 4,29,30
 117.356445312 476.532226562 117.356445312 476.532226562 117.356445312 430.279296875 c 5,31,32
 176.565429688 429.116210938 176.565429688 429.116210938 206.168945312 429.116210938 c 4,33,34
 243.05859375 429.116210938 243.05859375 429.116210938 272.208007812 430.279296875 c 5,35,36
 272.208007812 476.532226562 272.208007812 476.532226562 270.840820312 524.532226562 c 4,37,38
 270.840820312 538.495117188 270.840820312 538.495117188 270.614257812 551.004882812 c 132,-1,39
 270.385742188 563.512695312 270.385742188 563.512695312 270.158203125 569.331054688 c 132,-1,40
 269.9296875 575.149414062 269.9296875 575.149414062 269.9296875 575.731445312 c 4,41,42
 269.9296875 617.040039062 269.9296875 617.040039062 293.158203125 617.040039062 c 132,-1,43
 316.385742188 617.040039062 316.385742188 617.040039062 316.385742188 575.731445312 c 4,44,45
 316.385742188 572.822265625 316.385742188 572.822265625 315.01953125 525.6953125 c 132,-1,46
 313.653320312 478.569335938 313.653320312 478.569335938 313.653320312 432.606445312 c 5,47,48
 327.772460938 432.606445312 327.772460938 432.606445312 335.514648438 425.041992188 c 4,49,50
 343.256835938 416.897460938 343.256835938 416.897460938 343.256835938 405.26171875 c 132,-1,51
 343.256835938 393.625 343.256835938 393.625 335.514648438 385.48046875 c 4,52,53
 327.31640625 378.497070312 327.31640625 378.497070312 313.653320312 378.497070312 c 5,54,55
 313.653320312 333.1171875 313.653320312 333.1171875 315.01953125 272.608398438 c 4,56,57
 316.385742188 213.264648438 316.385742188 213.264648438 316.385742188 210.35546875 c 4,58,59
 316.385742188 169.047851562 316.385742188 169.047851562 293.158203125 169.047851562 c 132,-1,60
 269.9296875 169.047851562 269.9296875 169.047851562 269.9296875 210.35546875 c 6,61,-1
 272.208007812 380.243164062 l 5,0,-1
328 750 m 1,62,-1
 477 756 l 2,63,64
 505 756 505 756 520 744 c 0,65,66
 537 731 537 731 537 710 c 0,67,68
 537 688 537 688 518 675 c 128,-1,69
 499 662 499 662 469 662 c 1,70,71
 468 621 468 621 468 257 c 0,72,73
 468 186 468 186 448 129 c 0,74,75
 427 74 427 74 393 44 c 0,76,77
 325 -15 325 -15 240 -15 c 0,78,79
 154 -15 154 -15 100 20 c 0,80,81
 46 53 46 53 46 87 c 0,82,83
 46 105 46 105 57 118 c 0,84,85
 68 129 68 129 86 129 c 0,86,87
 103 129 103 129 122 115 c 0,88,89
 143 99 143 99 168 86 c 0,90,91
 198 72 198 72 237 72 c 0,92,93
 296 72 296 72 336 122 c 0,94,95
 378 170 378 170 378 278 c 2,96,-1
 375 667 l 1,97,98
 312 667 312 667 261 664 c 128,-1,99
 210 661 210 661 191 661 c 0,100,101
 170 661 170 661 156 674 c 0,102,103
 139 685 139 685 139 708 c 128,-1,104
 139 731 139 731 156 742 c 0,105,106
 170 755 170 755 199 755 c 2,107,-1
 328 750 l 1,62,-1
EndSplineSet
EndChar

StartChar: k
Encoding: 107 107 75
Width: 604
Flags: W
LayerCount: 2
Fore
SplineSet
34 260 m 0,0,1
 34 280 34 280 43 297 c 0,2,3
 53 314 53 314 76 328 c 0,4,5
 85 334 85 334 100 342 c 128,-1,6
 115 350 115 350 120 353 c 0,7,8
 140 362 140 362 186 380 c 0,9,10
 251 407 251 407 261 412 c 0,11,12
 296 427 296 427 331 443 c 0,13,14
 385 467 385 467 392 470 c 0,15,16
 418 483 418 483 438 490 c 0,17,18
 481 507 481 507 503 507 c 0,19,20
 523 507 523 507 535 495 c 0,21,22
 548 485 548 485 548 465 c 0,23,24
 548 435 548 435 512 417 c 0,25,26
 442 389 442 389 410 376 c 0,27,28
 350 353 350 353 322 340 c 0,29,30
 159 271 159 271 159 260 c 0,31,32
 159 252 159 252 281 199 c 2,33,-1
 321 181 l 2,34,35
 349 168 349 168 409 145 c 0,36,37
 470 120 470 120 511 103 c 0,38,39
 547 86 547 86 547 55 c 0,40,41
 547 37 547 37 534 25 c 0,42,43
 522 13 522 13 507 13 c 0,44,45
 490 13 490 13 477 17 c 0,46,47
 452 25 452 25 437 31 c 0,48,49
 417 38 417 38 391 51 c 0,50,51
 282 100 282 100 206 132 c 0,52,53
 136 160 136 160 120 168 c 0,54,55
 105 175 105 175 76 192 c 0,56,57
 51 209 51 209 43 224 c 0,58,59
 34 239 34 239 34 260 c 0,0,1
182 50 m 2,60,61
 182 24 182 24 169 7 c 0,62,63
 155 -10 155 -10 136 -10 c 0,64,65
 112 -10 112 -10 104 7 c 0,66,67
 91 34 91 34 91 50 c 2,68,-1
 96 377 l 1,69,-1
 96 629 l 1,70,-1
 92 738 l 1,71,72
 114 760 114 760 136 760 c 0,73,74
 162 760 162 760 181 738 c 1,75,-1
 177 629 l 1,76,-1
 181 308 l 1,77,-1
 182 50 l 2,60,61
EndSplineSet
EndChar

StartChar: l
Encoding: 108 108 76
Width: 267
Flags: W
LayerCount: 2
Fore
SplineSet
176 337 m 1,0,-1
 181 47 l 2,1,2
 181 24 181 24 166 6 c 0,3,4
 150 -10 150 -10 130 -10 c 128,-1,5
 110 -10 110 -10 96 6 c 0,6,7
 81 24 81 24 81 47 c 2,8,-1
 85 372 l 1,9,-1
 81 702 l 2,10,11
 81 727 81 727 96 742 c 0,12,13
 109 759 109 759 130 759 c 0,14,15
 152 759 152 759 166 742 c 0,16,17
 181 727 181 727 181 702 c 2,18,-1
 178 612 l 2,19,20
 176 492 176 492 176 434 c 2,21,-1
 176 337 l 1,0,-1
EndSplineSet
EndChar

StartChar: m
Encoding: 109 109 77
Width: 1218
Flags: W
LayerCount: 2
Fore
SplineSet
1083 460 m 2,0,-1
 1076 218 l 2,1,2
 1076 180 1076 180 1077 161 c 128,-1,3
 1078 142 1078 142 1085 121 c 128,-1,4
 1092 100 1092 100 1106 94 c 0,5,6
 1114 90 1114 90 1125 88.5 c 128,-1,7
 1136 87 1136 87 1141 84 c 128,-1,8
 1146 81 1146 81 1146 73 c 0,9,10
 1146 38 1146 38 1124 14.5 c 128,-1,11
 1102 -9 1102 -9 1072 -9 c 0,12,13
 1021 -9 1021 -9 1001.5 31 c 128,-1,14
 982 71 982 71 982 150 c 2,15,-1
 987 429 l 2,16,17
 987 538 987 538 950 604.5 c 128,-1,18
 913 671 913 671 847 671 c 128,-1,19
 781 671 781 671 718.5 583 c 128,-1,20
 656 495 656 495 631 383 c 1,21,-1
 635 60 l 2,22,23
 635 26 635 26 624 8.5 c 128,-1,24
 613 -9 613 -9 584 -9 c 0,25,26
 522 -9 522 -9 522 91 c 128,-1,27
 522 191 522 191 549 383 c 1,28,29
 549 671 549 671 406 671 c 0,30,31
 342 671 342 671 279.5 583 c 128,-1,32
 217 495 217 495 192 383 c 1,33,-1
 196 60 l 2,34,35
 196 -9 196 -9 145 -9 c 0,36,37
 83 -9 83 -9 83 91 c 128,-1,38
 83 191 83 191 110 383 c 1,39,40
 110 449 110 449 98.5 560.5 c 128,-1,41
 87 672 87 672 87 697.5 c 128,-1,42
 87 723 87 723 101 741.5 c 128,-1,43
 115 760 115 760 139.5 760 c 128,-1,44
 164 760 164 760 178 741.5 c 128,-1,45
 192 723 192 723 192 700 c 128,-1,46
 192 677 192 677 191.5 644.5 c 128,-1,47
 191 612 191 612 191 589 c 1,48,49
 283 760 283 760 425 760 c 0,50,51
 507 760 507 760 558.5 713.5 c 128,-1,52
 610 667 610 667 630 589 c 1,53,54
 725 760 725 760 865 760 c 0,55,56
 969 760 969 760 1026 672.5 c 128,-1,57
 1083 585 1083 585 1083 460 c 2,0,-1
EndSplineSet
EndChar

StartChar: n
Encoding: 110 110 78
Width: 805
Flags: W
LayerCount: 2
Fore
SplineSet
670 497 m 2,0,-1
 663 215 l 2,1,2
 663 171 663 171 664 158 c 0,3,4
 666 136 666 136 672 118 c 0,5,6
 680 97 680 97 693 91 c 0,7,8
 701 86 701 86 712 86 c 0,9,10
 727 82 727 82 728 81 c 0,11,12
 733 78 733 78 733 70 c 0,13,14
 733 34 733 34 711 12 c 0,15,16
 688 -12 688 -12 659 -12 c 0,17,18
 606 -12 606 -12 588 28 c 0,19,20
 568 67 568 67 568 147 c 2,21,-1
 574 431 l 2,22,23
 574 539 574 539 536 606 c 0,24,25
 498 671 498 671 426 671 c 0,26,27
 352 671 352 671 285 584 c 0,28,29
 216 493 216 493 191 385 c 1,30,-1
 195 57 l 2,31,32
 195 -12 195 -12 144 -12 c 0,33,34
 82 -12 82 -12 82 92 c 0,35,36
 82 198 82 198 109 385 c 1,37,38
 109 444 109 444 98 562 c 0,39,40
 86 673 86 673 86 698 c 0,41,42
 86 722 86 722 100 742 c 0,43,44
 113 760 113 760 138 760 c 0,45,46
 164 760 164 760 177 742 c 0,47,48
 191 722 191 722 191 700 c 0,49,50
 191 666 191 666 190 644 c 2,51,52
 190 644 190 644 190 589 c 1,53,54
 288 760 288 760 438 760 c 0,55,56
 548 760 548 760 610 684 c 0,57,58
 670 606 670 606 670 497 c 2,0,-1
EndSplineSet
EndChar

StartChar: o
Encoding: 111 111 79
Width: 824
Flags: W
LayerCount: 2
Fore
SplineSet
586 164 m 0,0,1
 656 255 656 255 656 377 c 0,2,3
 656 498 656 498 587 588 c 0,4,5
 518 679 518 679 412 679 c 0,6,7
 307 679 307 679 238 588 c 0,8,9
 168 499 168 499 168 378 c 0,10,11
 168 256 168 256 238 164 c 0,12,13
 309 72 309 72 412 72 c 0,14,15
 517 72 517 72 586 164 c 0,0,1
752 376 m 256,16,17
 752 212 752 212 654 99 c 0,18,19
 558 -15 558 -15 412 -15 c 128,-1,20
 266 -15 266 -15 169 99 c 0,21,22
 72 212 72 212 72 376 c 0,23,24
 72 539 72 539 170 652 c 128,-1,25
 268 765 268 765 414 765 c 0,26,27
 558 765 558 765 656 652 c 0,28,29
 752 540 752 540 752 376 c 256,16,17
EndSplineSet
EndChar

StartChar: p
Encoding: 112 112 80
Width: 617
Flags: W
LayerCount: 2
Fore
SplineSet
209 524 m 1,0,1
 208 499 208 499 208 430 c 0,2,3
 208 396 208 396 210 298 c 1,4,5
 264 284 264 284 329 284 c 0,6,7
 395 284 395 284 438 319 c 0,8,9
 479 354 479 354 479 411 c 0,10,11
 479 469 479 469 437 503 c 0,12,13
 394 538 394 538 328 538 c 0,14,15
 263 538 263 538 209 524 c 1,0,1
113 61 m 2,16,17
 113 61 113 61 119 375 c 1,18,19
 119 375 119 375 113 689 c 0,20,21
 113 760 113 760 164 760 c 128,-1,22
 215 760 215 760 215 689 c 0,23,24
 215 674 215 674 212 650 c 0,25,26
 210 620 210 620 210 612 c 1,27,28
 256 625 256 625 328 625 c 0,29,30
 437 625 437 625 506 564 c 0,31,32
 574 501 574 501 574 410 c 128,-1,33
 574 319 574 319 506 258 c 0,34,35
 441 197 441 197 329 197 c 0,36,37
 261 197 261 197 210 209 c 1,38,39
 215 84 215 84 215 61 c 0,40,41
 215 -10 215 -10 164 -10 c 128,-1,42
 113 -10 113 -10 113 61 c 2,16,17
EndSplineSet
EndChar

StartChar: q
Encoding: 113 113 81
Width: 930
Flags: W
LayerCount: 2
Fore
SplineSet
536.551757812 337.200195312 m 5,0,-1
 446.974609375 339 l 6,1,2
 380.311523438 339 380.311523438 339 349.7578125 337.799804688 c 5,3,4
 342.120117188 318 342.120117188 318 327.884765625 275.700195312 c 132,-1,5
 313.649414062 233.400390625 313.649414062 233.400390625 304.622070312 210 c 132,-1,6
 295.594726562 186.599609375 295.594726562 186.599609375 272.6796875 186.599609375 c 4,7,8
 259.486328125 186.599609375 259.486328125 186.599609375 251.500976562 193.799804688 c 132,-1,9
 243.515625 201 243.515625 201 243.515625 209.700195312 c 132,-1,10
 243.515625 218.400390625 243.515625 218.400390625 244.556640625 223.799804688 c 132,-1,11
 245.59765625 229.200195312 245.59765625 229.200195312 249.416992188 240 c 132,-1,12
 253.236328125 250.799804688 253.236328125 250.799804688 257.40234375 260.400390625 c 4,13,14
 277.541015625 312 277.541015625 312 286.567382812 336 c 5,15,16
 266.430664062 336 266.430664062 336 254.97265625 343.5 c 132,-1,17
 243.515625 351 243.515625 351 243.515625 363.599609375 c 4,18,19
 243.515625 391.799804688 243.515625 391.799804688 294.900390625 391.799804688 c 6,20,-1
 307.400390625 391.799804688 l 5,21,22
 374.061523438 552.599609375 374.061523438 552.599609375 384.130859375 575.700195312 c 132,-1,23
 394.200195312 598.799804688 394.200195312 598.799804688 395.587890625 602.400390625 c 132,-1,24
 396.9765625 606 396.9765625 606 400.1015625 612.900390625 c 132,-1,25
 403.2265625 619.799804688 403.2265625 619.799804688 405.657226562 623.099609375 c 132,-1,26
 408.086914062 626.400390625 408.086914062 626.400390625 411.559570312 631.200195312 c 132,-1,27
 415.03125 636 415.03125 636 418.15625 638.700195312 c 132,-1,28
 421.28125 641.400390625 421.28125 641.400390625 425.447265625 643.799804688 c 4,29,30
 434.475585938 648.599609375 434.475585938 648.599609375 444.543945312 648.599609375 c 132,-1,31
 454.612304688 648.599609375 454.612304688 648.599609375 460.862304688 646.799804688 c 132,-1,32
 467.111328125 645 467.111328125 645 472.666992188 640.200195312 c 132,-1,33
 478.221679688 635.400390625 478.221679688 635.400390625 482.041015625 630 c 132,-1,34
 485.860351562 624.599609375 485.860351562 624.599609375 491.068359375 613.200195312 c 132,-1,35
 496.276367188 601.799804688 496.276367188 601.799804688 500.442382812 592.200195312 c 4,36,37
 533.774414062 504 533.774414062 504 583.770507812 391.799804688 c 5,38,-1
 608.76953125 392.400390625 l 6,39,40
 626.82421875 392.400390625 626.82421875 392.400390625 638.28125 384 c 132,-1,41
 649.739257812 375.599609375 649.739257812 375.599609375 649.739257812 363 c 4,42,43
 649.739257812 336.599609375 649.739257812 336.599609375 603.908203125 334.799804688 c 5,44,45
 610.852539062 315.599609375 610.852539062 315.599609375 622.657226562 286.200195312 c 4,46,47
 649.739257812 222.599609375 649.739257812 222.599609375 649.739257812 212.700195312 c 132,-1,48
 649.739257812 202.799804688 649.739257812 202.799804688 641.752929688 194.700195312 c 132,-1,49
 633.767578125 186.599609375 633.767578125 186.599609375 619.879882812 186.599609375 c 4,50,51
 594.880859375 186.599609375 594.880859375 186.599609375 583.770507812 210 c 4,52,53
 571.965820312 239.400390625 571.965820312 239.400390625 536.551757812 337.200195312 c 5,0,-1
367.1171875 389.400390625 m 5,54,55
 411.559570312 388.200195312 411.559570312 388.200195312 452.875976562 388.200195312 c 132,-1,56
 494.192382812 388.200195312 494.192382812 388.200195312 519.19140625 389.400390625 c 5,57,58
 446.280273438 570.599609375 446.280273438 570.599609375 444.890625 570.599609375 c 4,59,60
 440.724609375 570.599609375 440.724609375 570.599609375 385.171875 435 c 6,61,-1
 367.1171875 389.400390625 l 5,54,55
780 376 m 0,62,63
 780 270 780 270 736 183 c 0,64,65
 695 97 695 97 620 43 c 1,66,67
 640 11 640 11 642 8 c 0,68,69
 672 -37 672 -37 672 -54 c 128,-1,70
 672 -71 672 -71 661 -82 c 0,71,72
 650 -94 650 -94 630 -94 c 0,73,74
 610.5 -94 610.5 -94 594 -67 c 2,75,-1
 555 3 l 1,76,77
 496 -15 496 -15 439 -15 c 0,78,79
 294 -15 294 -15 197 99 c 0,80,81
 100 212 100 212 100 376 c 0,82,83
 100 539 100 539 198 652 c 128,-1,84
 296 765 296 765 442 765 c 0,85,86
 586 765 586 765 684 652 c 0,87,88
 780 539.5 780 539.5 780 376 c 0,62,63
721.349609375 377.080078125 m 0,89,90
 721 510 721 510 642 608.16015625 c 0,91,92
 563 707 563 707 440.75 707.349609375 c 0,93,94
 322.675441852 707.007746249 322.675441852 707.007746249 240.650390625 608.16015625 c 0,95,96
 160 511 160 511 160.150390625 379.259765625 c 0,97,98
 160 246 160 246 240.650390625 146 c 0,99,100
 322 46 322 46 440.75 45.7197265625 c 0,101,102
 486 46 486 46 523.549804688 55.5302734375 c 1,103,-1
 585.650390625 93.6796875 l 1,104,105
 648.621548153 139.277738983 648.621548153 139.277738983 684.549804688 215.759765625 c 0,106,107
 721 294 721 294 721.349609375 377.080078125 c 0,89,90
EndSplineSet
EndChar

StartChar: r
Encoding: 114 114 82
Width: 563
Flags: W
LayerCount: 2
Fore
SplineSet
192 355 m 1,0,-1
 195 57 l 2,1,2
 195 -12 195 -12 144 -12 c 0,3,4
 82 -12 82 -12 82 92 c 0,5,6
 82 198 82 198 109 385 c 1,7,8
 109 444 109 444 98 562 c 0,9,10
 86 673 86 673 86 698 c 0,11,12
 86 722 86 722 100 742 c 0,13,14
 113 760 113 760 138 760 c 0,15,16
 164 760 164 760 177 742 c 0,17,18
 191 722 191 722 191 700 c 0,19,20
 191 666 191 666 190 644 c 2,21,22
 190 644 190 644 190 590 c 1,23,24
 218 657 218 657 279 712 c 0,25,26
 340 764 340 764 402 764 c 128,-1,27
 464 764 464 764 497 740 c 0,28,29
 530 714 530 714 530 686 c 0,30,31
 530 657 530 657 514 642 c 0,32,33
 500 625 500 625 476 625 c 128,-1,34
 452 625 452 625 426 650 c 0,35,36
 398 675 398 675 381 675 c 0,37,38
 334 675 334 675 272 568 c 0,39,40
 209 462 209 462 192 355 c 1,0,-1
EndSplineSet
EndChar

StartChar: s
Encoding: 115 115 83
Width: 606
Flags: W
LayerCount: 2
Fore
SplineSet
547 204 m 0,0,1
 547 110 547 110 476 48 c 0,2,3
 407 -15 407 -15 294 -15 c 0,4,5
 207 -15 207 -15 132 27 c 128,-1,6
 57 69 57 69 57 109 c 0,7,8
 57 127 57 127 69 139 c 128,-1,9
 81 151 81 151 100 151 c 0,10,11
 118 151 118 151 137 138 c 0,12,13
 150 130 150 130 172 112 c 0,14,15
 187 98 187 98 220 84 c 0,16,17
 253 72 253 72 294 72 c 0,18,19
 362 72 362 72 406 107 c 0,20,21
 451 142 451 142 451 204 c 0,22,23
 451 244 451 244 413 282 c 0,24,25
 377 318 377 318 321 349 c 0,26,27
 303 359 303 359 267 379.5 c 128,-1,28
 231 400 231 400 213 410 c 0,29,30
 156 445 156 445 121 488 c 0,31,32
 83 534 83 534 83 586 c 0,33,34
 83 660 83 660 147 712 c 0,35,36
 212 765 212 765 298 765 c 0,37,38
 383 765 383 765 446 736 c 0,39,40
 507 706 507 706 507 668 c 0,41,42
 507 648 507 648 495 638 c 0,43,44
 482 627 482 627 463 627 c 0,45,46
 443 627 443 627 424 640 c 0,47,48
 407 652 407 652 377 666 c 0,49,50
 350 679 350 679 302 679 c 0,51,52
 255 679 255 679 217 653 c 128,-1,53
 179 627 179 627 179 589 c 128,-1,54
 179 551 179 551 217 518 c 0,55,56
 255 486 255 486 309 456 c 128,-1,57
 363 426 363 426 417 393 c 0,58,59
 473 359 473 359 509 311 c 0,60,61
 547 261 547 261 547 204 c 0,0,1
EndSplineSet
EndChar

StartChar: t
Encoding: 116 116 84
Width: 616
Flags: W
LayerCount: 2
Fore
SplineSet
293 302 m 2,0,-1
 430 297 l 2,1,2
 457 295 457 295 473 310 c 0,3,4
 489 322 489 322 489 343 c 0,5,6
 489 389 489 389 430 387 c 2,7,-1
 293 383 l 2,8,9
 269 382 269 382 226 384 c 1,10,11
 226 514 226 514 229 594 c 128,-1,12
 232 674 232 674 232 681 c 0,13,14
 232 752 232 752 181 752 c 128,-1,15
 130 752 130 752 130 681 c 0,16,17
 130 660 130 660 131 634 c 0,18,19
 136 504 136 504 136 387 c 1,20,21
 45 387 45 387 45 343 c 0,22,23
 45 320 45 320 64 308 c 0,24,25
 84 297 84 297 136 297 c 1,26,27
 135 118 135 118 129 72 c 1,28,29
 117 52 117 52 117 32 c 0,30,31
 117 -15 117 -15 179 -13 c 2,32,-1
 364 -8 l 1,33,-1
 491 -14 l 2,34,35
 516 -15 516 -15 534 -2 c 0,36,37
 551 11 551 11 551 33 c 128,-1,38
 551 55 551 55 534 68 c 0,39,40
 517 82 517 82 491 80 c 2,41,-1
 364 74 l 2,42,43
 312 72 312 72 226 79 c 1,44,-1
 226 301 l 1,45,46
 276 303 276 303 293 302 c 2,0,-1
EndSplineSet
EndChar

StartChar: u
Encoding: 117 117 85
Width: 819
Flags: W
LayerCount: 2
Fore
SplineSet
202 646 m 2,0,-1
 191 314 l 2,1,2
 191 207 191 207 228 138 c 0,3,4
 267 72 267 72 342 72 c 0,5,6
 419 72 419 72 490 162 c 0,7,8
 560 250 560 250 574 360 c 1,9,-1
 570 688 l 2,10,11
 570 757 570 757 621 757 c 0,12,13
 683 757 683 757 683 655 c 0,14,15
 683 554 683 554 656 360 c 1,16,17
 656 252 656 252 670 174 c 0,18,19
 685 97 685 97 706 88 c 0,20,21
 709 86 709 86 726 82 c 0,22,23
 736 82 736 82 742 78 c 0,24,25
 747 75 747 75 747 67 c 0,26,27
 747 29 747 29 725 8 c 0,28,29
 703 -15 703 -15 669 -15 c 0,30,31
 584 -15 584 -15 584 158 c 1,32,33
 483 -15 483 -15 332 -15 c 0,34,35
 252 -15 252 -15 196 30 c 0,36,37
 96 114 96 114 96 297 c 1,38,-1
 104 536 l 2,39,40
 104 587 104 587 93 636 c 128,-1,41
 82 685 82 685 82 702 c 0,42,43
 82 724 82 724 98 740 c 0,44,45
 115 757 115 757 140 757 c 0,46,47
 202 757 202 757 202 646 c 2,0,-1
EndSplineSet
EndChar

StartChar: v
Encoding: 118 118 86
Width: 673
Flags: W
LayerCount: 2
Fore
SplineSet
397 40 m 0,0,1
 380 -10 380 -10 336 -10 c 0,2,3
 293 -10 293 -10 276 40 c 0,4,5
 142 417 142 417 120 480 c 0,6,7
 116 493 116 493 88 573 c 0,8,9
 56 659 56 659 52 670 c 0,10,11
 40 701 40 701 40 716 c 0,12,13
 40 730 40 730 52 745 c 0,14,15
 66 760 66 760 87 760 c 0,16,17
 125 760 125 760 140 715 c 0,18,19
 331 133 331 133 337 133 c 0,20,21
 348 133 348 133 538 715 c 0,22,23
 553 760 553 760 586 760 c 0,24,25
 608 760 608 760 620 745 c 0,26,27
 633 731 633 731 633 716 c 128,-1,28
 633 701 633 701 621 670 c 0,29,30
 561 507 561 507 554 482 c 0,31,32
 550 473 550 473 534 426.5 c 128,-1,33
 518 380 518 380 476.5 263.5 c 128,-1,34
 435 147 435 147 397 40 c 0,0,1
EndSplineSet
EndChar

StartChar: w
Encoding: 119 119 87
Width: 959
Flags: W
LayerCount: 2
Fore
SplineSet
378.299804688 599.280273438 m 5,0,-1
 375.549804688 713.6796875 l 5,1,2
 351.350585938 715.879882812 351.350585938 715.879882812 351.350585938 732.16015625 c 132,-1,3
 351.350585938 748.439453125 351.350585938 748.439453125 394.799804688 759.439453125 c 4,4,5
 438.799804688 770 438.799804688 770 485 770 c 4,6,7
 530.650390625 770 530.650390625 770 571.350585938 755.479492188 c 4,8,9
 611.5 740.959960938 611.5 740.959960938 635.700195312 716.319335938 c 4,10,11
 685.75 666.599609375 685.75 666.599609375 685.75 597.51953125 c 4,12,13
 685.75 530.859375 685.75 530.859375 637.900390625 481.359375 c 4,14,15
 613.975585938 456.939453125 613.975585938 456.939453125 575.200195312 441.759765625 c 4,16,17
 536.700195312 427.240234375 536.700195312 427.240234375 482.25 427.240234375 c 132,-1,18
 427.799804688 427.240234375 427.799804688 427.240234375 388.75 438.240234375 c 4,19,20
 349.150390625 449.6796875 349.150390625 449.6796875 349.150390625 466.399414062 c 4,21,22
 349.150390625 482.6796875 349.150390625 482.6796875 376.650390625 482.6796875 c 5,23,-1
 378.299804688 599.280273438 l 5,0,-1
593.900390625 693.439453125 m 4,24,25
 553.75 732.16015625 553.75 732.16015625 480.049804688 732.16015625 c 4,26,27
 449.799804688 732.16015625 449.799804688 732.16015625 430 724.6796875 c 5,28,29
 428.350585938 697.83984375 428.350585938 697.83984375 428.350585938 605.439453125 c 4,30,31
 428.350585938 518.759765625 428.350585938 518.759765625 431.100585938 471.240234375 c 5,32,33
 450.350585938 465.51953125 450.350585938 465.51953125 486.650390625 465.51953125 c 4,34,35
 522.400390625 465.51953125 522.400390625 465.51953125 551 476.959960938 c 4,36,37
 579.049804688 487.51953125 579.049804688 487.51953125 597.200195312 507.759765625 c 4,38,39
 632.950195312 547.799804688 632.950195312 547.799804688 632.950195312 601.040039062 c 4,40,41
 632.950195312 653.399414062 632.950195312 653.399414062 593.900390625 693.439453125 c 4,24,25
714 38 m 0,42,43
 698 -10 698 -10 654 -10 c 128,-1,44
 610 -10 610 -10 593 35 c 0,45,46
 573 88 573 88 530 178 c 0,47,48
 482 285 482 285 479 285 c 0,49,50
 477 285 477 285 456 212 c 0,51,52
 434 140 434 140 407 104 c 0,53,54
 382 73 382 73 370 38 c 0,55,56
 355 -10 355 -10 310 -10 c 0,57,58
 266.5 -10 266.5 -10 250 35 c 0,59,60
 239 68 239 68 227 106 c 0,61,62
 222 122 222 122 207.5 169 c 128,-1,63
 193 216 193 216 184 246 c 0,64,65
 174 277 174 277 161.5 316.5 c 128,-1,66
 149 356 149 356 146 364 c 0,67,68
 142 377 142 377 132 407 c 128,-1,69
 122 437 122 437 117 454 c 2,70,-1
 89 538 l 1,71,72
 78 584 78 584 66 611 c 2,73,-1
 42 653 l 1,74,75
 42 676 42 676 55 688 c 0,76,77
 68 702 68 702 86 702 c 0,78,79
 126.5 702 126.5 702 140 657 c 0,80,81
 187 507 187 507 258 290 c 0,82,83
 313.5 119 313.5 119 315 119 c 0,84,85
 318 119 318 119 365 198 c 0,86,87
 412 279 412 279 425 340 c 0,88,89
 430 363 430 363 446 378 c 0,90,91
 460 395 460 395 483 395 c 0,92,93
 516 395 516 395 542 344 c 0,94,95
 647 119 647 119 660 119 c 1,96,-1
 695 247 l 2,97,98
 726 360 726 360 771 498 c 0,99,100
 811.5 621 811.5 621 822 657 c 0,101,102
 834 702 834 702 867 702 c 0,103,104
 890 702 890 702 902 688 c 0,105,106
 914 673 914 673 914 651 c 0,107,108
 914 630 914 630 867 504 c 0,109,110
 819 375 819 375 790 280 c 0,111,112
 727 76 727 76 714 38 c 0,42,43
EndSplineSet
EndChar

StartChar: x
Encoding: 120 120 88
Width: 573
Flags: W
LayerCount: 2
Fore
SplineSet
112.681640625 710.916992188 m 2,0,1
 286.740234375 707.200195312 l 1,2,3
 455.55078125 710.916992188 l 2,4,5
 480 711 480 711 494.036132812 703.484375 c 0,6,7
 508 695 508 695 508.03125 681.807617188 c 0,8,9
 508 667 508 667 494.036132812 660.130859375 c 0,10,11
 477.128821777 652.061482953 477.128821777 652.061482953 455.55078125 652.698242188 c 2,12,-1
 329.598632812 656.415039062 l 1,13,14
 323.988173651 535.745639645 323.988173651 535.745639645 326.100585938 473.087890625 c 2,15,-1
 331.348632812 317.421875 l 2,16,17
 332 302 332 302 319.103515625 291.408203125 c 0,18,19
 308 281 308 281 287.614257812 281.499023438 c 0,20,21
 267 281 267 281 254.376953125 291.408203125 c 0,22,23
 241.623834505 302.321910286 241.623834505 302.321910286 242.1328125 317.421875 c 2,24,-1
 247.379882812 473.087890625 l 2,25,26
 249 522 249 522 243.006835938 656.415039062 c 1,27,-1
 112.681640625 652.698242188 l 2,28,29
 87 652 87 652 74.197265625 660.130859375 c 0,30,31
 60 669 60 669 60.2021484375 681.807617188 c 0,32,33
 60 699 60 699 74.197265625 703.484375 c 0,34,35
 102 711 102 711 112.681640625 710.916992188 c 2,0,1
286 128 m 0,36,37
 285 127 285 127 280.5 122.5 c 128,-1,38
 276 118 276 118 265.5 108.5 c 128,-1,39
 255 99 255 99 244 88 c 0,40,41
 208 56 208 56 161 9 c 0,42,43
 145 -7 145 -7 127 -7 c 128,-1,44
 109 -7 109 -7 97 5 c 128,-1,45
 85 17 85 17 85 34 c 128,-1,46
 85 51 85 51 106 70 c 0,47,48
 112 76 112 76 170 128 c 0,49,50
 202 154 202 154 233 182 c 1,51,52
 204 209 204 209 172 234 c 0,53,54
 133 265 133 265 108 290 c 0,55,56
 87 309 87 309 87 328 c 0,57,58
 87 346 87 346 100 358 c 0,59,60
 113 369 113 369 129 369 c 0,61,62
 146 369 146 369 167 351 c 0,63,64
 183 337 183 337 228 294 c 0,65,66
 273 249 273 249 286 238 c 1,67,68
 306 256 306 256 342 292 c 0,69,70
 382 332 382 332 404 351 c 0,71,72
 424 370 424 370 442 370 c 0,73,74
 458.5 370 458.5 370 472 358 c 0,75,76
 484 347 484 347 484 329 c 0,77,78
 484 310 484 310 463 291 c 0,79,80
 433 263 433 263 400 236 c 128,-1,81
 367 209 367 209 339 183 c 1,82,83
 354 168 354 168 400 130 c 0,84,85
 464 74 464 74 472 67 c 0,86,87
 488 51 488 51 488 34 c 0,88,89
 488 18 488 18 476 6 c 128,-1,90
 464 -6 464 -6 446 -6 c 128,-1,91
 428 -6 428 -6 412 10 c 0,92,93
 351 71 351 71 286 128 c 0,36,37
EndSplineSet
EndChar

StartChar: y
Encoding: 121 121 89
Width: 607
Flags: W
LayerCount: 2
Fore
SplineSet
347 303 m 1,0,1
 347 223 347 223 350 142 c 2,2,-1
 352 61 l 2,3,4
 352 -10 352 -10 301 -10 c 128,-1,5
 250 -10 250 -10 250 61 c 2,6,-1
 252 144 l 2,7,8
 255 227 255 227 255 304 c 1,9,10
 63 634 63 634 43 673 c 0,11,12
 30 699 30 699 30 717 c 0,13,14
 30 734 30 734 42 747 c 256,15,16
 54 760 54 760 76 760 c 0,17,18
 99 760 99 760 115 738 c 0,19,20
 127 723 127 723 190 603 c 0,21,22
 244 494 244 494 306 401 c 1,23,24
 331 439 331 439 390 549 c 0,25,26
 454 667 454 667 460 678 c 0,27,28
 467 688 467 688 474 702 c 0,29,30
 475 704 475 704 479 710 c 128,-1,31
 483 716 483 716 486 721 c 0,32,33
 492 734 492 734 498 738 c 0,34,35
 500 742 500 742 508 750 c 0,36,37
 518 760 518 760 536 760 c 128,-1,38
 554 760 554 760 566 748 c 0,39,40
 577 735 577 735 577 719 c 0,41,42
 577 702 577 702 562 674 c 0,43,44
 550 650 550 650 500 564 c 0,45,46
 480 531 480 531 459 496 c 128,-1,47
 438 461 438 461 437 458 c 0,48,49
 435 454 435 454 421 430.5 c 128,-1,50
 407 407 407 407 398 390 c 0,51,52
 390 376 390 376 373 347 c 128,-1,53
 356 318 356 318 347 303 c 1,0,1
EndSplineSet
EndChar

StartChar: z
Encoding: 122 122 90
Width: 618
Flags: W
LayerCount: 2
Fore
SplineSet
120 755 m 2,0,1
 120 755 120 755 295 750 c 1,2,3
 295 750 295 750 498 755 c 0,4,5
 555 755 555 755 555 714 c 0,6,7
 555 689 555 689 534 653 c 0,8,9
 522 630 522 630 456 530 c 0,10,11
 407 460 407 460 351 368 c 2,12,-1
 180 87 l 1,13,14
 243 82 243 82 308 82 c 0,15,16
 385 82 385 82 440 86 c 0,17,18
 502 89 502 89 520 89 c 0,19,20
 537 89 537 89 554 76 c 0,21,22
 570 63 570 63 570 42 c 128,-1,23
 570 21 570 21 554 8 c 0,24,25
 537 -5 537 -5 510 -5 c 2,26,-1
 335 0 l 1,27,-1
 106 -5 l 2,28,29
 49 -5 49 -5 49 38 c 0,30,31
 49 63 49 63 74 104 c 0,32,33
 97 142 97 142 160 238 c 0,34,35
 230 341 230 341 273 413 c 2,36,-1
 425 664 l 1,37,38
 385 668 385 668 316 668 c 0,39,40
 245 668 245 668 190 664 c 0,41,42
 128 661 128 661 110 661 c 0,43,44
 93 661 93 661 76 674 c 0,45,46
 60 687 60 687 60 708 c 128,-1,47
 60 729 60 729 76 742 c 0,48,49
 93 755 93 755 120 755 c 2,0,1
EndSplineSet
EndChar

StartChar: braceleft
Encoding: 123 123 91
Width: 369
Flags: W
LayerCount: 2
Fore
SplineSet
308 -8 m 0,0,1
 322 -17 322 -17 322 -38 c 0,2,3
 322 -58 322 -58 310 -70 c 0,4,5
 298 -83 298 -83 277 -83 c 0,6,7
 219 -83 219 -83 176 -51 c 0,8,9
 132 -20 132 -20 132 39 c 0,10,11
 132 73 132 73 140 122 c 0,12,13
 147 188 147 188 147 210 c 0,14,15
 147 303 147 303 125 322 c 1,16,17
 110 315 110 315 86 315 c 0,18,19
 65 315 65 315 47 330 c 0,20,21
 29 344 29 344 29 374 c 0,22,23
 29 405 29 405 48 418 c 0,24,25
 66 433 66 433 88 433 c 0,26,27
 111 433 111 433 126 426 c 1,28,29
 148 445 148 445 148 538 c 0,30,31
 148 575 148 575 140 628 c 0,32,33
 133 695 133 695 133 713 c 0,34,35
 133 771 133 771 176 803 c 0,36,37
 222 835 222 835 278 835 c 0,38,39
 299 835 299 835 311 822 c 0,40,41
 323 810 323 810 323 790 c 0,42,43
 323 769 323 769 308 760 c 0,44,45
 295 749 295 749 277 747 c 128,-1,46
 259 745 259 745 246 734 c 0,47,48
 231 725 231 725 231 706 c 0,49,50
 231 683 231 683 238 634 c 0,51,52
 245 584 245 584 245 534 c 0,53,54
 245 492 245 492 238 454 c 0,55,56
 228 416 228 416 223 408 c 0,57,58
 214 394 214 394 199 376 c 1,59,60
 214 358 214 358 222 344 c 0,61,62
 244 306 244 306 244 210 c 0,63,64
 244 165 244 165 237 116 c 0,65,66
 230 68 230 68 230 46 c 0,67,68
 230 27 230 27 244 18 c 0,69,70
 258 7 258 7 276 5 c 128,-1,71
 294 3 294 3 308 -8 c 0,0,1
EndSplineSet
EndChar

StartChar: bar
Encoding: 124 124 92
Width: 279
Flags: W
LayerCount: 2
Fore
SplineSet
178 603 m 1,0,-1
 183 499 l 2,1,2
 183 475 183 475 171 460 c 0,3,4
 159 446 159 446 138 446 c 0,5,6
 96 446 96 446 96 499 c 2,7,-1
 100 603 l 1,8,-1
 97 707 l 2,9,10
 97 760 97 760 138 760 c 0,11,12
 159 760 159 760 170 746 c 0,13,14
 182 731 182 731 182 707 c 2,15,-1
 178 603 l 1,0,-1
178 147 m 1,16,-1
 183 43 l 2,17,18
 183 19 183 19 171 4 c 0,19,20
 159 -10 159 -10 138 -10 c 0,21,22
 96 -10 96 -10 96 43 c 2,23,-1
 100 147 l 1,24,-1
 97 251 l 2,25,26
 97 304 97 304 138 304 c 0,27,28
 159 304 159 304 170 290 c 0,29,30
 182 275 182 275 182 251 c 2,31,-1
 178 147 l 1,16,-1
EndSplineSet
EndChar

StartChar: braceright
Encoding: 125 125 93
Width: 369
Flags: W
LayerCount: 2
Fore
SplineSet
180 376 m 1,0,1
 165 394 165 394 156 408 c 0,2,3
 148 421 148 421 142 454 c 0,4,5
 134 483 134 483 134 534 c 0,6,7
 134 584 134 584 141 634 c 0,8,9
 148 683 148 683 148 706 c 0,10,11
 148 725 148 725 134 734 c 0,12,13
 120 745 120 745 102 747 c 128,-1,14
 84 749 84 749 70 760 c 0,15,16
 56 769 56 769 56 790 c 0,17,18
 56 810 56 810 68 822 c 0,19,20
 80 835 80 835 101 835 c 0,21,22
 153 835 153 835 196 803 c 0,23,24
 236 771 236 771 236 713 c 0,25,26
 236 679 236 679 228 628 c 0,27,28
 221 558 221 558 221 538 c 0,29,30
 221 445 221 445 243 426 c 1,31,32
 258 433 258 433 282 433 c 0,33,34
 302 433 302 433 322 418 c 0,35,36
 340 404 340 404 340 374 c 128,-1,37
 340 344 340 344 322 330 c 0,38,39
 304 315 304 315 283 315 c 0,40,41
 261 315 261 315 244 322 c 1,42,43
 222 303 222 303 222 210 c 0,44,45
 222 173 222 173 230 122 c 0,46,47
 237 57 237 57 237 39 c 0,48,49
 237 -20 237 -20 196 -51 c 0,50,51
 156 -83 156 -83 102 -83 c 0,52,53
 81 -83 81 -83 69 -70 c 0,54,55
 57 -58 57 -58 57 -38 c 0,56,57
 57 -17 57 -17 72 -8 c 0,58,59
 85 3 85 3 103 5 c 128,-1,60
 121 7 121 7 134 18 c 0,61,62
 149 27 149 27 149 46 c 0,63,64
 149 68 149 68 142 116 c 0,65,66
 135 165 135 165 135 214 c 0,67,68
 135 262 135 262 142 296 c 0,69,70
 149 326 149 326 156 344 c 1,71,-1
 180 376 l 1,0,1
EndSplineSet
EndChar

StartChar: asciitilde
Encoding: 126 126 94
Width: 622
Flags: W
LayerCount: 2
Fore
SplineSet
549 404 m 0,0,1
 549 374 549 374 507 344 c 0,2,3
 466 312 466 312 422 312 c 0,4,5
 377 312 377 312 322 340 c 128,-1,6
 267 368 267 368 240 368 c 0,7,8
 214 368 214 368 180 338 c 0,9,10
 145 309 145 309 122 309 c 128,-1,11
 99 309 99 309 86 320 c 0,12,13
 74 330 74 330 74 349 c 0,14,15
 74 381 74 381 122 413 c 0,16,17
 169 444 169 444 225 444 c 0,18,19
 278 444 278 444 337 416 c 0,20,21
 392 387 392 387 420 387 c 0,22,23
 446 387 446 387 472 412 c 0,24,25
 498 436 498 436 514 436 c 0,26,27
 531 436 531 436 540 426 c 0,28,29
 549 417 549 417 549 404 c 0,0,1
EndSplineSet
EndChar

StartChar: uni0080
Encoding: 128 128 95
Width: 728
Flags: W
LayerCount: 2
Fore
SplineSet
559 375 m 0,0,1
 559 456 559 456 538 520 c 1,2,-1
 231 162 l 1,3,4
 285 72 285 72 371 72 c 128,-1,5
 457 72 457 72 508 161 c 0,6,7
 559 249 559 249 559 375 c 0,0,1
504 589 m 1,8,9
 453 678 453 678 367 678 c 128,-1,10
 281 678 281 678 227 588 c 128,-1,11
 173 498 173 498 173 375 c 0,12,13
 173 292 173 292 199 220 c 1,14,-1
 504 589 l 1,8,9
574 650 m 0,15,16
 651 536 651 536 651 374 c 0,17,18
 651 213 651 213 574 100 c 0,19,20
 499 -15 499 -15 367 -15 c 0,21,22
 238 -15 238 -15 156 100 c 1,23,24
 77 218 77 218 77 375 c 0,25,26
 77 476 77 476 110 565 c 0,27,28
 145 655 145 655 212 709 c 0,29,30
 279 765 279 765 366 765 c 0,31,32
 499 765 499 765 574 650 c 0,15,16
EndSplineSet
EndChar

StartChar: uni0081
Encoding: 129 129 96
Width: 467
Flags: W
LayerCount: 2
Fore
SplineSet
331 698 m 2,0,-1
 327 380 l 2,1,2
 327 226 327 226 330 148 c 0,3,4
 334 77 334 77 334 61 c 0,5,6
 334 -10 334 -10 283 -10 c 0,7,8
 261 -10 261 -10 249 4 c 256,9,10
 237 18 237 18 234 34 c 0,11,12
 232 54 232 54 232 66 c 0,13,14
 232 82 232 82 235 186 c 128,-1,15
 238 290 238 290 238 379 c 2,16,-1
 237 625 l 1,17,-1
 165 517 l 2,18,19
 160 510 160 510 153 499 c 0,20,21
 151 496 151 496 148.5 492.5 c 128,-1,22
 146 489 146 489 144.5 486.5 c 128,-1,23
 143 484 143 484 142 483 c 0,24,25
 140 481 140 481 136.5 476.5 c 128,-1,26
 133 472 133 472 132 470 c 0,27,28
 130 466 130 466 124 457 c 0,29,30
 118 451 118 451 115 447 c 0,31,32
 110 441 110 441 106 438 c 0,33,34
 104 437 104 437 98 433 c 0,35,36
 90 428 90 428 76 428 c 0,37,38
 60 428 60 428 50 440 c 0,39,40
 38 452 38 452 38 470 c 0,41,42
 38 487 38 487 52 510 c 0,43,44
 73 542 73 542 92 564 c 0,45,46
 99 573 99 573 106 582 c 128,-1,47
 113 591 113 591 116 595 c 128,-1,48
 119 599 119 599 120 600 c 0,49,50
 122 604 122 604 126 608 c 0,51,52
 127 609 127 609 141 627 c 0,53,54
 160 651 160 651 172 670 c 0,55,56
 191 694 191 694 202 711 c 0,57,58
 216 729 216 729 225 738 c 0,59,60
 247 760 247 760 274 760 c 0,61,62
 300 760 300 760 316 742 c 0,63,64
 331 724 331 724 331 698 c 2,0,-1
EndSplineSet
EndChar

StartChar: uni0082
Encoding: 130 130 97
Width: 618
Flags: W
LayerCount: 2
Fore
SplineSet
492 -5 m 2,0,1
 492 -5 492 -5 311 0 c 1,2,3
 311 0 311 0 126 -5 c 0,4,5
 98 -5 98 -5 79 8 c 0,6,7
 61 23 61 23 61 52 c 128,-1,8
 61 81 61 81 97 132 c 0,9,10
 132 182 132 182 184 241 c 0,11,12
 215 275 215 275 288 356 c 0,13,14
 411 492 411 492 411 562 c 0,15,16
 411 617 411 617 376 648 c 0,17,18
 343 678 343 678 292 678 c 0,19,20
 264 678 264 678 241 666 c 0,21,22
 215 650 215 650 207 640 c 0,23,24
 194 626 194 626 184 610 c 0,25,26
 176 596 176 596 167 585 c 0,27,28
 150 565 150 565 130 565 c 128,-1,29
 110 565 110 565 98 578 c 0,30,31
 85 591 85 591 85 608 c 0,32,33
 85 656 85 656 145 710 c 0,34,35
 204 765 204 765 300 765 c 128,-1,36
 396 765 396 765 451 708 c 0,37,38
 507 650 507 650 507 568 c 0,39,40
 507 518 507 518 466 448 c 0,41,42
 428 380 428 380 374 320 c 0,43,44
 353 295 353 295 263 192 c 0,45,46
 203 125 203 125 178 87 c 1,47,48
 240 82 240 82 294 82 c 0,49,50
 362 82 362 82 419 86 c 0,51,52
 484 89 484 89 501 89 c 0,53,54
 519 89 519 89 536 76 c 0,55,56
 552 63 552 63 552 42 c 128,-1,57
 552 21 552 21 536 8 c 0,58,59
 519 -5 519 -5 492 -5 c 2,0,1
EndSplineSet
EndChar

StartChar: uni0083
Encoding: 131 131 98
Width: 628
Flags: W
LayerCount: 2
Fore
SplineSet
154 755 m 2,0,1
 154 755 154 755 305 750 c 1,2,3
 305 750 305 750 471 755 c 0,4,5
 498 755 498 755 515 741 c 128,-1,6
 532 727 532 727 532 705 c 0,7,8
 532 664 532 664 464 594 c 0,9,10
 392 520 392 520 354 474 c 1,11,12
 450 448 450 448 505 384 c 0,13,14
 561 319 561 319 561 237 c 0,15,16
 561 138 561 138 492 61 c 0,17,18
 422 -15 422 -15 302 -15 c 0,19,20
 211 -15 211 -15 142 36 c 0,21,22
 72 85 72 85 72 129 c 0,23,24
 72 144 72 144 82 154 c 0,25,26
 92 166 92 166 106 166 c 256,27,28
 120 166 120 166 140 152 c 0,29,30
 154 142 154 142 178 119 c 0,31,32
 196 101 196 101 229 86 c 0,33,34
 263 72 263 72 300 72 c 0,35,36
 372 72 372 72 418 118 c 0,37,38
 465 165 465 165 465 234 c 0,39,40
 465 305 465 305 416 348 c 0,41,42
 366 392 366 392 301 398 c 1,43,44
 267 364 267 364 246 353 c 0,45,46
 223 341 223 341 198 341 c 0,47,48
 172 341 172 341 159 356 c 0,49,50
 145 370 145 370 145 396 c 0,51,52
 145 420 145 420 172 446 c 0,53,54
 199 470 199 470 253 482 c 1,55,56
 332 569 332 569 410 665 c 1,57,58
 381 668 381 668 324 668 c 0,59,60
 262 668 262 668 214 664 c 0,61,62
 160 661 160 661 144 661 c 0,63,64
 127 661 127 661 110 674 c 0,65,66
 94 687 94 687 94 708 c 128,-1,67
 94 729 94 729 110 742 c 0,68,69
 127 755 127 755 154 755 c 2,0,1
EndSplineSet
EndChar

StartChar: uni0084
Encoding: 132 132 99
Width: 648
Flags: W
LayerCount: 2
Fore
SplineSet
482 329 m 1,0,-1
 533 332 l 2,1,2
 560 332 560 332 578 320 c 0,3,4
 594 306 594 306 594 287 c 128,-1,5
 594 268 594 268 578 254 c 0,6,7
 560 242 560 242 533 242 c 2,8,-1
 482 243 l 1,9,-1
 488 50 l 2,10,11
 488 23 488 23 475 7 c 128,-1,12
 462 -9 462 -9 438 -9 c 0,13,14
 415 -9 415 -9 402 7 c 128,-1,15
 389 23 389 23 389 50 c 2,16,-1
 393 243 l 1,17,-1
 324 243 l 1,18,-1
 96 242 l 2,19,20
 71 242 71 242 55 256 c 0,21,22
 40 270 40 270 40 292 c 0,23,24
 40 312 40 312 58 342 c 0,25,26
 88 383 88 383 137 446 c 2,27,-1
 341 708 l 2,28,29
 381 760 381 760 425 760 c 0,30,31
 449 760 449 760 470 744 c 0,32,33
 488 726 488 726 488 690 c 0,34,35
 488 687 488 687 487.5 680.5 c 128,-1,36
 487 674 487 674 486.5 660.5 c 128,-1,37
 486 647 486 647 486 634 c 0,38,39
 482 507 482 507 482 329 c 1,0,-1
157 327 m 1,40,-1
 394 327 l 1,41,42
 394 413 394 413 392 492 c 0,43,44
 392 527 392 527 392 558.5 c 128,-1,45
 392 590 392 590 391.5 608 c 128,-1,46
 391 626 391 626 391 629 c 1,47,48
 274 490 274 490 157 327 c 1,40,-1
EndSplineSet
EndChar

StartChar: uni0085
Encoding: 133 133 100
Width: 645
Flags: W
LayerCount: 2
Fore
SplineSet
325 750 m 1,0,-1
 477 755 l 2,1,2
 506 755 506 755 520 742 c 0,3,4
 537 731 537 731 537 708 c 128,-1,5
 537 685 537 685 520 674 c 0,6,7
 506 661 506 661 488 661 c 0,8,9
 465 661 465 661 416 665 c 0,10,11
 368 669 368 669 331 669 c 0,12,13
 314 669 314 669 256 667 c 0,14,15
 196 665 196 665 193 665 c 1,16,17
 198 623 198 623 198 560 c 2,18,-1
 193 454 l 1,19,20
 261 498 261 498 337 498 c 0,21,22
 450 498 450 498 514 428 c 0,23,24
 577 356 577 356 577 250 c 0,25,26
 577 143 577 143 506 64 c 0,27,28
 436 -15 436 -15 314 -15 c 0,29,30
 214 -15 214 -15 146 42 c 0,31,32
 79 97 79 97 79 150 c 0,33,34
 79 168 79 168 92 182 c 0,35,36
 105 195 105 195 118 195 c 0,37,38
 132 195 132 195 142 190 c 0,39,40
 144 189 144 189 156 180 c 0,41,42
 157 178 157 178 161.5 172 c 128,-1,43
 166 166 166 166 168 162 c 0,44,45
 228 72 228 72 321 72 c 0,46,47
 390 72 390 72 436 126 c 0,48,49
 482 179 482 179 482 251 c 0,50,51
 482 322 482 322 442 368 c 0,52,53
 401 415 401 415 332 415 c 0,54,55
 268 415 268 415 188 359 c 0,56,57
 163 340 163 340 146 340 c 0,58,59
 96 340 96 340 96 390 c 0,60,61
 96 406 96 406 103 461 c 128,-1,62
 110 516 110 516 110 560 c 0,63,64
 110 600 110 600 104 641 c 128,-1,65
 98 682 98 682 98 699 c 0,66,67
 98 754 98 754 164 754 c 2,68,-1
 325 750 l 1,0,-1
EndSplineSet
EndChar

StartChar: uni0086
Encoding: 134 134 101
Width: 647
Flags: W
LayerCount: 2
Fore
SplineSet
517 414 m 0,0,1
 579 340 579 340 579 240 c 128,-1,2
 579 140 579 140 514 63 c 128,-1,3
 449 -14 449 -14 331 -14 c 0,4,5
 212 -14 212 -14 145 70 c 0,6,7
 77 156 77 156 77 285 c 0,8,9
 77 482 77 482 188 620 c 0,10,11
 298 760 298 760 466 760 c 0,12,13
 504 760 504 760 522 748 c 0,14,15
 542 737 542 737 542 717 c 0,16,17
 542 669 542 669 477 669 c 0,18,19
 370 669 370 669 286 596 c 0,20,21
 204 520 204 520 182 416 c 1,22,23
 251 487 251 487 353 487 c 0,24,25
 456 487 456 487 517 414 c 0,0,1
224 121 m 0,26,27
 263 73 263 73 330 73 c 0,28,29
 395 73 395 73 440 120 c 0,30,31
 483 168 483 168 483 236 c 0,32,33
 483 305 483 305 442 352 c 0,34,35
 400 400 400 400 335 400 c 0,36,37
 271 400 271 400 226 352 c 0,38,39
 183 304 183 304 183 237 c 0,40,41
 183 168 183 168 224 121 c 0,26,27
EndSplineSet
EndChar

StartChar: uni0087
Encoding: 135 135 102
Width: 560
Flags: W
LayerCount: 2
Fore
SplineSet
273 750 m 1,0,-1
 439 754 l 2,1,2
 520 754 520 754 520 695 c 0,3,4
 520 673 520 673 498 630 c 0,5,6
 473 579 473 579 434 507 c 0,7,8
 321 298 321 298 244 31 c 0,9,10
 232 -9 232 -9 195 -9 c 0,11,12
 176 -9 176 -9 162 5 c 0,13,14
 149 18 149 18 149 47 c 0,15,16
 149 78 149 78 172 137 c 0,17,18
 187 179 187 179 238 302 c 0,19,20
 282 404 282 404 319 482 c 0,21,22
 330 505 330 505 349.5 545.5 c 128,-1,23
 369 586 369 586 377 601 c 0,24,25
 395 637 395 637 405 663 c 1,26,27
 347 668 347 668 292 668 c 0,28,29
 225 668 225 668 172 664 c 0,30,31
 113 661 113 661 96 661 c 128,-1,32
 79 661 79 661 62 674 c 0,33,34
 46 687 46 687 46 708 c 128,-1,35
 46 729 46 729 62 742 c 0,36,37
 79 755 79 755 106 755 c 2,38,-1
 273 750 l 1,0,-1
EndSplineSet
EndChar

StartChar: uni0088
Encoding: 136 136 103
Width: 646
Flags: W
LayerCount: 2
Fore
SplineSet
572 204 m 0,0,1
 572 113 572 113 502 49 c 128,-1,2
 432 -15 432 -15 323 -15 c 128,-1,3
 214 -15 214 -15 144 49 c 128,-1,4
 74 113 74 113 74 204 c 0,5,6
 74 337 74 337 237 419 c 1,7,8
 114 491 114 491 114 590 c 0,9,10
 114 662 114 662 174 714 c 0,11,12
 232 766 232 766 322 766 c 0,13,14
 413 766 413 766 472 714 c 0,15,16
 532 662 532 662 532 590 c 0,17,18
 532 494 532 494 416 419 c 1,19,20
 572 336 572 336 572 204 c 0,0,1
476 204 m 0,21,22
 476 304 476 304 323 371 c 1,23,24
 170 304 170 304 170 204 c 0,25,26
 170 146 170 146 214 108 c 0,27,28
 258 72 258 72 323 72 c 128,-1,29
 388 72 388 72 432 108 c 0,30,31
 476 146 476 146 476 204 c 0,21,22
439 590 m 0,32,33
 439 627 439 627 404 653 c 0,34,35
 367 679 367 679 324 679 c 0,36,37
 280 679 280 679 243 653 c 0,38,39
 207 628 207 628 207 590 c 0,40,41
 207 553 207 553 238 525 c 0,42,43
 272 494 272 494 325 464 c 1,44,45
 379 494 379 494 409 524 c 0,46,47
 439 552 439 552 439 590 c 0,32,33
EndSplineSet
EndChar

StartChar: uni0089
Encoding: 137 137 104
Width: 645
Flags: W
LayerCount: 2
Fore
SplineSet
128 341 m 0,0,1
 66 418 66 418 66 516 c 0,2,3
 66 616 66 616 134 690 c 0,4,5
 202 765 202 765 317 765 c 128,-1,6
 432 765 432 765 500 681 c 0,7,8
 568 596 568 596 568 466 c 0,9,10
 568 264 568 264 458 124 c 0,11,12
 347 -14 347 -14 179 -14 c 0,13,14
 141 -14 141 -14 124 -1 c 0,15,16
 104 12 104 12 104 32 c 0,17,18
 104 51 104 51 120 66 c 0,19,20
 137 80 137 80 170 80 c 0,21,22
 280 80 280 80 360 154 c 0,23,24
 440 226 440 226 464 337 c 1,25,26
 392 265 392 265 291 265 c 0,27,28
 189 265 189 265 128 341 c 0,0,1
205 631 m 0,29,30
 162 585 162 585 162 515 c 128,-1,31
 162 445 162 445 202 399 c 0,32,33
 241 352 241 352 309 352 c 0,34,35
 378 352 378 352 421 404 c 0,36,37
 465 456 465 456 465 521 c 128,-1,38
 465 586 465 586 422 632 c 0,39,40
 377 678 377 678 313 678 c 128,-1,41
 249 678 249 678 205 631 c 0,29,30
EndSplineSet
EndChar

StartChar: uni008A
Encoding: 138 138 105
Width: 583
Flags: W
LayerCount: 2
Fore
SplineSet
336 310 m 1,0,-1
 252 313 l 1,1,2
 258 224 258 224 242 180 c 0,3,4
 226 135 226 135 200 86 c 1,5,6
 231 82 231 82 287 82 c 0,7,8
 345 82 345 82 394 86 c 0,9,10
 450 89 450 89 466 89 c 0,11,12
 483 89 483 89 500 76 c 0,13,14
 516 63 516 63 516 42 c 0,15,16
 516 20 516 20 500 8 c 0,17,18
 481 -6 481 -6 456 -5 c 2,19,20
 456 -5 456 -5 301 0 c 1,21,22
 301 0 301 0 147 -5 c 0,23,24
 120 -6 120 -6 102 10 c 0,25,26
 86 25 86 25 86 53 c 0,27,28
 86 80 86 80 104 112 c 0,29,30
 120 137 120 137 142 182 c 0,31,32
 160 219 160 219 162 258 c 0,33,34
 162 300 162 300 161 311 c 1,35,36
 156 310 156 310 130 310 c 0,37,38
 75 310 75 310 75 350 c 0,39,40
 75 391 75 391 128 391 c 0,41,42
 134 391 134 391 139 390 c 2,43,44
 139 390 139 390 149 390 c 1,45,46
 148 393 148 393 138 437 c 0,47,48
 122 502 122 502 122 544 c 0,49,50
 122 663 122 663 174 712 c 0,51,52
 227 761 227 761 319 761 c 1,53,-1
 312 666 l 1,54,55
 269 666 269 666 244 643 c 0,56,57
 218 621 218 621 218 564 c 0,58,59
 218 511 218 511 241 388 c 1,60,-1
 336 391 l 1,61,-1
 356 380 l 2,62,63
 370 369 370 369 370 351 c 0,64,65
 370 328 370 328 356 322 c 2,66,-1
 336 310 l 1,0,-1
EndSplineSet
EndChar

StartChar: uni008B
Encoding: 139 139 106
Width: 593
Flags: W
LayerCount: 2
Fore
SplineSet
328 750 m 1,0,-1
 477 756 l 2,1,2
 505 756 505 756 520 744 c 0,3,4
 537 731 537 731 537 710 c 0,5,6
 537 688 537 688 518 675 c 128,-1,7
 499 662 499 662 469 662 c 1,8,9
 468 621 468 621 468 257 c 0,10,11
 468 186 468 186 448 129 c 0,12,13
 427 74 427 74 393 44 c 0,14,15
 325 -15 325 -15 240 -15 c 0,16,17
 154 -15 154 -15 100 20 c 0,18,19
 46 53 46 53 46 87 c 0,20,21
 46 105 46 105 57 118 c 0,22,23
 68 129 68 129 86 129 c 0,24,25
 103 129 103 129 122 115 c 0,26,27
 143 99 143 99 168 86 c 0,28,29
 198 72 198 72 237 72 c 0,30,31
 296 72 296 72 336 122 c 0,32,33
 378 170 378 170 378 278 c 2,34,-1
 375 667 l 1,35,36
 312 667 312 667 261 664 c 128,-1,37
 210 661 210 661 191 661 c 0,38,39
 170 661 170 661 156 674 c 0,40,41
 139 685 139 685 139 708 c 128,-1,42
 139 731 139 731 156 742 c 0,43,44
 170 755 170 755 199 755 c 2,45,-1
 328 750 l 1,0,-1
EndSplineSet
EndChar

StartChar: uni008C
Encoding: 140 140 107
Width: 651
Flags: W
LayerCount: 2
Fore
SplineSet
505 578 m 1,0,-1
 491 374 l 1,1,2
 422 356 422 356 351 362 c 0,3,4
 318 365 318 365 257 412 c 1,5,-1
 505 578 l 1,0,-1
380 679 m 0,6,7
 446 679 446 679 490 656 c 1,8,-1
 203 466 l 1,9,10
 203 598 203 598 234 629 c 0,11,12
 284 679 284 679 380 679 c 0,6,7
590 48 m 2,13,-1
 582 382 l 1,14,15
 582 629 582 629 588 629 c 0,16,17
 610 632 610 632 621 644 c 0,18,19
 632 657 632 657 632 676 c 0,20,21
 632 694 632 694 603 714 c 0,22,23
 575 733 575 733 532 744 c 0,24,25
 448 765 448 765 386 765 c 0,26,27
 237 765 237 765 158 694 c 0,28,29
 80 624 80 624 80 520 c 128,-1,30
 80 416 80 416 158 346 c 0,31,32
 236 274 236 274 360 274 c 0,33,34
 451 274 451 274 493 285 c 1,35,-1
 488 48 l 2,36,37
 488 23 488 23 502 6 c 0,38,39
 515 -10 515 -10 538 -10 c 128,-1,40
 561 -10 561 -10 576 6 c 0,41,42
 590 23 590 23 590 48 c 2,13,-1
EndSplineSet
EndChar

StartChar: uni008D
Encoding: 141 141 108
Width: 862
Flags: W
LayerCount: 2
Fore
SplineSet
740 675 m 0,0,1
 758 654 758 654 758 622 c 0,2,3
 758 592 758 592 740 569 c 0,4,5
 722 548 722 548 694 548 c 128,-1,6
 666 548 666 548 648 569 c 0,7,8
 630 592 630 592 630 622 c 0,9,10
 630 654 630 654 648 675 c 0,11,12
 666 697 666 697 694 697 c 128,-1,13
 722 697 722 697 740 675 c 0,0,1
570 706 m 0,14,15
 599 671 599 671 599 624 c 128,-1,16
 599 577 599 577 570 543 c 0,17,18
 542 509 542 509 495 509 c 256,19,20
 448 509 448 509 420 542 c 0,21,22
 391 576 391 576 391 624 c 0,23,24
 391 671 391 671 420 706 c 0,25,26
 448 739 448 739 495 739 c 128,-1,27
 542 739 542 739 570 706 c 0,14,15
540 624 m 0,28,29
 540 651 540 651 528 669 c 0,30,31
 516 686 516 686 495 686 c 0,32,33
 475 686 475 686 461 669 c 0,34,35
 449 651 449 651 449 624 c 0,36,37
 449 598 449 598 461 580 c 0,38,39
 474 562 474 562 495 562 c 128,-1,40
 516 562 516 562 528 580 c 0,41,42
 540 596 540 596 540 624 c 0,28,29
331 675 m 0,43,44
 349 654 349 654 349 622 c 0,45,46
 349 592 349 592 331 569 c 0,47,48
 313 548 313 548 285 548 c 0,49,50
 256 548 256 548 239 569 c 0,51,52
 221 592 221 592 221 622 c 0,53,54
 221 654 221 654 239 675 c 0,55,56
 255 697 255 697 285 697 c 0,57,58
 313 697 313 697 331 675 c 0,43,44
144 675 m 0,59,60
 162 654 162 654 162 622 c 0,61,62
 162 592 162 592 144 569 c 0,63,64
 127 548 127 548 98 548 c 0,65,66
 70 548 70 548 52 569 c 0,67,68
 34 592 34 592 34 622 c 0,69,70
 34 654 34 654 52 675 c 0,71,72
 70 697 70 697 98 697 c 0,73,74
 128 697 128 697 144 675 c 0,59,60
801 395 m 2,75,-1
 796 244 l 1,76,-1
 801 78 l 2,77,78
 802 53 802 53 787 34 c 0,79,80
 773 17 773 17 751 17 c 0,81,82
 709 17 709 17 640 86 c 0,83,84
 562 160 562 160 520 195 c 1,85,86
 494 99 494 99 430 44 c 0,87,88
 365 -12 365 -12 283 -12 c 0,89,90
 183 -12 183 -12 107 58 c 0,91,92
 31 127 31 127 31 247 c 0,93,94
 31 338 31 338 82 408 c 0,95,96
 132 477 132 477 175 477 c 0,97,98
 190 477 190 477 200 467 c 0,99,100
 212 456 212 456 212 442 c 0,101,102
 212 429 212 429 198 409 c 0,103,104
 185 392 185 392 165 372 c 0,105,106
 147 352 147 352 132 320 c 0,107,108
 118 286 118 286 118 249 c 0,109,110
 118 179 118 179 164 130 c 1,111,112
 213 84 213 84 280 84 c 0,113,114
 351 84 351 84 394 133 c 0,115,116
 438 183 438 183 444 248 c 1,117,118
 410 282 410 282 399 303 c 0,119,120
 387 326 387 326 387 350 c 0,121,122
 387 376 387 376 402 390 c 0,123,124
 416 404 416 404 442 404 c 0,125,126
 467 404 467 404 492 377 c 0,127,128
 516 350 516 350 528 296 c 1,129,130
 615 217 615 217 711 139 c 1,131,132
 714 168 714 168 714 224 c 0,133,134
 714 287 714 287 710 335 c 0,135,136
 707 389 707 389 707 406 c 0,137,138
 707 424 707 424 720 438 c 0,139,140
 731 455 731 455 754 455 c 128,-1,141
 777 455 777 455 788 438 c 0,142,143
 802 420 802 420 801 395 c 2,75,-1
EndSplineSet
EndChar

StartChar: uni008E
Encoding: 142 142 109
Width: 696
Flags: W
LayerCount: 2
Fore
SplineSet
328 311 m 1,0,1
 312 285 312 285 260 202 c 0,2,3
 242 172 242 172 223 141.5 c 128,-1,4
 204 111 204 111 202 108 c 0,5,6
 199 104 199 104 191.5 92.5 c 128,-1,7
 184 81 184 81 180 75 c 0,8,9
 177 70 177 70 174 65 c 128,-1,10
 171 60 171 60 168.5 55.5 c 128,-1,11
 166 51 166 51 165 50 c 2,12,-1
 152 31 l 2,13,14
 141 15 141 15 131 6 c 0,15,16
 115 -10 115 -10 96 -10 c 0,17,18
 79 -10 79 -10 67 2 c 128,-1,19
 55 14 55 14 55 28 c 0,20,21
 55 43 55 43 62 56 c 0,22,23
 67 68 67 68 86 100 c 0,24,25
 92 108 92 108 98.5 118 c 128,-1,26
 105 128 105 128 113 140.5 c 128,-1,27
 121 153 121 153 126 160 c 0,28,29
 221 296 221 296 278 387 c 1,30,31
 185 552 185 552 130 636 c 0,32,33
 106 672 106 672 74 672 c 0,34,35
 56 672 56 672 52 678 c 0,36,37
 48 683 48 683 48 695 c 0,38,39
 48 726 48 726 66 744 c 0,40,41
 85 763 85 763 110 763 c 0,42,43
 137 763 137 763 154 750 c 0,44,45
 174 737 174 737 201 698 c 0,46,47
 217 673 217 673 336 465 c 1,48,49
 343 476 343 476 366.5 515 c 128,-1,50
 390 554 390 554 408 582 c 0,51,52
 454 662 454 662 464 676 c 0,53,54
 477 698 477 698 478 701 c 0,55,56
 482 706 482 706 490 720 c 0,57,58
 493 725 493 725 497.5 731 c 128,-1,59
 502 737 502 737 503 738 c 2,60,-1
 514 749 l 2,61,62
 527 760 527 760 544 760 c 0,63,64
 562 760 562 760 574 748 c 0,65,66
 585 734 585 734 585 718 c 0,67,68
 585 703 585 703 565 666 c 0,69,70
 553 646 553 646 480 532 c 0,71,72
 463 507 463 507 442 474.5 c 128,-1,73
 421 442 421 442 407.5 421.5 c 128,-1,74
 394 401 394 401 386 388 c 1,75,76
 525 165 525 165 562 123 c 0,77,78
 598 78 598 78 626 78 c 0,79,80
 641 78 641 78 644 72 c 0,81,82
 648 68 648 68 648 57 c 0,83,84
 648 27 648 27 630 6 c 0,85,86
 609 -13 609 -13 585 -13 c 0,87,88
 544 -13 544 -13 495 53 c 0,89,90
 465 93 465 93 328 311 c 1,0,1
EndSplineSet
EndChar

StartChar: uni008F
Encoding: 143 143 110
Width: 616
Flags: W
LayerCount: 2
Fore
SplineSet
284 440 m 2,0,-1
 454 445 l 2,1,2
 481 445 481 445 497 432 c 0,3,4
 513 420 513 420 513 399 c 0,5,6
 513 355 513 355 454 355 c 2,7,-1
 284 359 l 2,8,9
 232 359 232 359 217 358 c 1,10,11
 217 228 217 228 220 148 c 128,-1,12
 223 68 223 68 223 61 c 0,13,14
 223 -10 223 -10 172 -10 c 128,-1,15
 121 -10 121 -10 121 61 c 0,16,17
 121 82 121 82 122 108 c 0,18,19
 127 238 127 238 127 355 c 1,20,21
 60 355 60 355 60 399 c 0,22,23
 60 422 60 422 79 434 c 0,24,25
 99 445 99 445 127 445 c 1,26,27
 126 624 126 624 120 670 c 1,28,29
 108 690 108 690 108 710 c 0,30,31
 108 755 108 755 170 755 c 2,32,-1
 355 750 l 1,33,-1
 515 756 l 2,34,35
 543 756 543 756 558 744 c 0,36,37
 575 731 575 731 575 709 c 128,-1,38
 575 687 575 687 558 674 c 0,39,40
 543 662 543 662 515 662 c 2,41,-1
 355 668 l 2,42,43
 284 668 284 668 217 663 c 1,44,-1
 217 441 l 1,45,46
 230 440 230 440 284 440 c 2,0,-1
EndSplineSet
EndChar

StartChar: uni0090
Encoding: 144 144 111
Width: 490
Flags: W
LayerCount: 2
Fore
SplineSet
385 127 m 0,0,1
 438 104 438 104 438 70 c 128,-1,2
 438 36 438 36 385 13 c 0,3,4
 331 -11 331 -11 246 -11 c 128,-1,5
 161 -11 161 -11 107 12 c 0,6,7
 54 36 54 36 53 70 c 0,8,9
 53 104 53 104 107 127 c 0,10,11
 160 151 160 151 246 151 c 0,12,13
 331 151 331 151 385 127 c 0,0,1
383.603515625 68.958984375 m 0,14,15
 384 86 384 86 348.958984375 97.26953125 c 0,16,17
 314 109 314 109 252.897460938 109.141601562 c 0,18,19
 185 108 185 108 155.260742188 97.26953125 c 0,20,21
 121 85 121 85 120.616210938 68.958984375 c 0,22,23
 121 52 121 52 155.260742188 40.6484375 c 0,24,25
 191.853515625 28.7763671875 191.853515625 28.7763671875 252.897460938 28.7763671875 c 0,26,27
 308.721679688 28.98046875 308.721679688 28.98046875 348.958984375 40.6484375 c 0,28,29
 384 51 384 51 383.603515625 68.958984375 c 0,14,15
385 326 m 0,30,31
 438 303 438 303 438 269 c 128,-1,32
 438 235 438 235 385 212 c 0,33,34
 331 188 331 188 246 188 c 128,-1,35
 161 188 161 188 107 211 c 0,36,37
 54 235 54 235 53 269 c 0,38,39
 53 303 53 303 107 326 c 0,40,41
 160 350 160 350 246 350 c 0,42,43
 331 350 331 350 385 326 c 0,30,31
383.603515625 267.958984375 m 0,44,45
 384 285 384 285 348.958984375 296.26953125 c 0,46,47
 314 308 314 308 252.897460938 308.141601562 c 0,48,49
 185 307 185 307 155.260742188 296.26953125 c 0,50,51
 121 284 121 284 120.616210938 267.958984375 c 0,52,53
 121 251 121 251 155.260742188 239.6484375 c 0,54,55
 191.853515625 227.776367188 191.853515625 227.776367188 252.897460938 227.776367188 c 0,56,57
 308.721679688 227.98046875 308.721679688 227.98046875 348.958984375 239.6484375 c 0,58,59
 384 250 384 250 383.603515625 267.958984375 c 0,44,45
385 524 m 0,60,61
 438 501 438 501 438 467 c 128,-1,62
 438 433 438 433 385 410 c 0,63,64
 331 386 331 386 246 386 c 128,-1,65
 161 386 161 386 107 409 c 0,66,67
 54 433 54 433 53 467 c 0,68,69
 53 501 53 501 107 524 c 0,70,71
 160 548 160 548 246 548 c 0,72,73
 331 548 331 548 385 524 c 0,60,61
383.603515625 465.958984375 m 0,74,75
 384 483 384 483 348.958984375 494.26953125 c 0,76,77
 314 506 314 506 252.897460938 506.141601562 c 0,78,79
 185 505 185 505 155.260742188 494.26953125 c 0,80,81
 121 482 121 482 120.616210938 465.958984375 c 0,82,83
 121 449 121 449 155.260742188 437.6484375 c 0,84,85
 191.853515625 425.776367188 191.853515625 425.776367188 252.897460938 425.776367188 c 0,86,87
 308.721679688 425.98046875 308.721679688 425.98046875 348.958984375 437.6484375 c 0,88,89
 384 448 384 448 383.603515625 465.958984375 c 0,74,75
385 723 m 0,90,91
 438 700 438 700 438 666 c 128,-1,92
 438 632 438 632 385 609 c 0,93,94
 331 585 331 585 246 585 c 128,-1,95
 161 585 161 585 107 608 c 0,96,97
 54 632 54 632 53 666 c 0,98,99
 53 700 53 700 107 723 c 0,100,101
 160 747 160 747 246 747 c 0,102,103
 331 747 331 747 385 723 c 0,90,91
383.603515625 664.958984375 m 0,104,105
 384 682 384 682 348.958984375 693.26953125 c 0,106,107
 314 705 314 705 252.897460938 705.141601562 c 0,108,109
 185 704 185 704 155.260742188 693.26953125 c 0,110,111
 121 681 121 681 120.616210938 664.958984375 c 0,112,113
 121 648 121 648 155.260742188 636.6484375 c 0,114,115
 191.85387551 624.776367188 191.85387551 624.776367188 252.897460938 624.776367188 c 0,116,117
 308.721947902 624.980682544 308.721947902 624.980682544 348.958984375 636.6484375 c 0,118,119
 384 647 384 647 383.603515625 664.958984375 c 0,104,105
EndSplineSet
EndChar

StartChar: uni0091
Encoding: 145 145 112
Width: 490
Flags: W
LayerCount: 2
Fore
SplineSet
385 127 m 0,0,1
 438 104 438 104 438 70 c 128,-1,2
 438 36 438 36 385 13 c 0,3,4
 331 -11 331 -11 246 -11 c 128,-1,5
 161 -11 161 -11 107 12 c 0,6,7
 54 36 54 36 53 70 c 0,8,9
 53 104 53 104 107 127 c 0,10,11
 160 151 160 151 246 151 c 0,12,13
 331 151 331 151 385 127 c 0,0,1
385 326 m 0,14,15
 438 303 438 303 438 269 c 128,-1,16
 438 235 438 235 385 212 c 0,17,18
 331 188 331 188 246 188 c 128,-1,19
 161 188 161 188 107 211 c 0,20,21
 54 235 54 235 53 269 c 0,22,23
 53 303 53 303 107 326 c 0,24,25
 160 350 160 350 246 350 c 0,26,27
 331 350 331 350 385 326 c 0,14,15
383.603515625 267.958984375 m 0,28,29
 384 285 384 285 348.958984375 296.26953125 c 0,30,31
 314 308 314 308 252.897460938 308.141601562 c 0,32,33
 185 307 185 307 155.260742188 296.26953125 c 0,34,35
 121 284 121 284 120.616210938 267.958984375 c 0,36,37
 121 251 121 251 155.260742188 239.6484375 c 0,38,39
 191.853515625 227.776367188 191.853515625 227.776367188 252.897460938 227.776367188 c 0,40,41
 308.721679688 227.98046875 308.721679688 227.98046875 348.958984375 239.6484375 c 0,42,43
 384 250 384 250 383.603515625 267.958984375 c 0,28,29
385 524 m 0,44,45
 438 501 438 501 438 467 c 128,-1,46
 438 433 438 433 385 410 c 0,47,48
 331 386 331 386 246 386 c 128,-1,49
 161 386 161 386 107 409 c 0,50,51
 54 433 54 433 53 467 c 0,52,53
 53 501 53 501 107 524 c 0,54,55
 160 548 160 548 246 548 c 0,56,57
 331 548 331 548 385 524 c 0,44,45
383.603515625 465.958984375 m 0,58,59
 384 483 384 483 348.958984375 494.26953125 c 0,60,61
 314 506 314 506 252.897460938 506.141601562 c 0,62,63
 185 505 185 505 155.260742188 494.26953125 c 0,64,65
 121 482 121 482 120.616210938 465.958984375 c 0,66,67
 121 449 121 449 155.260742188 437.6484375 c 0,68,69
 191.853515625 425.776367188 191.853515625 425.776367188 252.897460938 425.776367188 c 0,70,71
 308.721679688 425.98046875 308.721679688 425.98046875 348.958984375 437.6484375 c 0,72,73
 384 448 384 448 383.603515625 465.958984375 c 0,58,59
385 723 m 0,74,75
 438 700 438 700 438 666 c 128,-1,76
 438 632 438 632 385 609 c 0,77,78
 331 585 331 585 246 585 c 128,-1,79
 161 585 161 585 107 608 c 0,80,81
 54 632 54 632 53 666 c 0,82,83
 53 700 53 700 107 723 c 0,84,85
 160 747 160 747 246 747 c 0,86,87
 331 747 331 747 385 723 c 0,74,75
383.603515625 664.958984375 m 0,88,89
 384 682 384 682 348.958984375 693.26953125 c 0,90,91
 314 705 314 705 252.897460938 705.141601562 c 0,92,93
 185 704 185 704 155.260742188 693.26953125 c 0,94,95
 121 681 121 681 120.616210938 664.958984375 c 0,96,97
 121 648 121 648 155.260742188 636.6484375 c 0,98,99
 191.85387551 624.776367188 191.85387551 624.776367188 252.897460938 624.776367188 c 0,100,101
 308.721947902 624.980682544 308.721947902 624.980682544 348.958984375 636.6484375 c 0,102,103
 384 647 384 647 383.603515625 664.958984375 c 0,88,89
EndSplineSet
EndChar

StartChar: uni0092
Encoding: 146 146 113
Width: 490
Flags: W
LayerCount: 2
Fore
SplineSet
385 127 m 0,0,1
 438 104 438 104 438 70 c 128,-1,2
 438 36 438 36 385 13 c 0,3,4
 331 -11 331 -11 246 -11 c 128,-1,5
 161 -11 161 -11 107 12 c 0,6,7
 54 36 54 36 53 70 c 0,8,9
 53 104 53 104 107 127 c 0,10,11
 160 151 160 151 246 151 c 0,12,13
 331 151 331 151 385 127 c 0,0,1
383.603515625 68.958984375 m 0,14,15
 384 86 384 86 348.958984375 97.26953125 c 0,16,17
 314 109 314 109 252.897460938 109.141601562 c 0,18,19
 185 108 185 108 155.260742188 97.26953125 c 0,20,21
 121 85 121 85 120.616210938 68.958984375 c 0,22,23
 121 52 121 52 155.260742188 40.6484375 c 0,24,25
 191.853515625 28.7763671875 191.853515625 28.7763671875 252.897460938 28.7763671875 c 0,26,27
 308.721679688 28.98046875 308.721679688 28.98046875 348.958984375 40.6484375 c 0,28,29
 384 51 384 51 383.603515625 68.958984375 c 0,14,15
385 326 m 0,30,31
 438 303 438 303 438 269 c 128,-1,32
 438 235 438 235 385 212 c 0,33,34
 331 188 331 188 246 188 c 128,-1,35
 161 188 161 188 107 211 c 0,36,37
 54 235 54 235 53 269 c 0,38,39
 53 303 53 303 107 326 c 0,40,41
 160 350 160 350 246 350 c 0,42,43
 331 350 331 350 385 326 c 0,30,31
385 524 m 0,44,45
 438 501 438 501 438 467 c 128,-1,46
 438 433 438 433 385 410 c 0,47,48
 331 386 331 386 246 386 c 128,-1,49
 161 386 161 386 107 409 c 0,50,51
 54 433 54 433 53 467 c 0,52,53
 53 501 53 501 107 524 c 0,54,55
 160 548 160 548 246 548 c 0,56,57
 331 548 331 548 385 524 c 0,44,45
383.603515625 465.958984375 m 0,58,59
 384 483 384 483 348.958984375 494.26953125 c 0,60,61
 314 506 314 506 252.897460938 506.141601562 c 0,62,63
 185 505 185 505 155.260742188 494.26953125 c 0,64,65
 121 482 121 482 120.616210938 465.958984375 c 0,66,67
 121 449 121 449 155.260742188 437.6484375 c 0,68,69
 191.853515625 425.776367188 191.853515625 425.776367188 252.897460938 425.776367188 c 0,70,71
 308.721679688 425.98046875 308.721679688 425.98046875 348.958984375 437.6484375 c 0,72,73
 384 448 384 448 383.603515625 465.958984375 c 0,58,59
385 723 m 0,74,75
 438 700 438 700 438 666 c 128,-1,76
 438 632 438 632 385 609 c 0,77,78
 331 585 331 585 246 585 c 128,-1,79
 161 585 161 585 107 608 c 0,80,81
 54 632 54 632 53 666 c 0,82,83
 53 700 53 700 107 723 c 0,84,85
 160 747 160 747 246 747 c 0,86,87
 331 747 331 747 385 723 c 0,74,75
383.603515625 664.958984375 m 0,88,89
 384 682 384 682 348.958984375 693.26953125 c 0,90,91
 314 705 314 705 252.897460938 705.141601562 c 0,92,93
 185 704 185 704 155.260742188 693.26953125 c 0,94,95
 121 681 121 681 120.616210938 664.958984375 c 0,96,97
 121 648 121 648 155.260742188 636.6484375 c 0,98,99
 191.85387551 624.776367188 191.85387551 624.776367188 252.897460938 624.776367188 c 0,100,101
 308.721947902 624.980682544 308.721947902 624.980682544 348.958984375 636.6484375 c 0,102,103
 384 647 384 647 383.603515625 664.958984375 c 0,88,89
EndSplineSet
EndChar

StartChar: uni0093
Encoding: 147 147 114
Width: 490
Flags: W
LayerCount: 2
Fore
SplineSet
385 127 m 0,0,1
 438 104 438 104 438 70 c 128,-1,2
 438 36 438 36 385 13 c 0,3,4
 331 -11 331 -11 246 -11 c 128,-1,5
 161 -11 161 -11 107 12 c 0,6,7
 54 36 54 36 53 70 c 0,8,9
 53 104 53 104 107 127 c 0,10,11
 160 151 160 151 246 151 c 0,12,13
 331 151 331 151 385 127 c 0,0,1
385 326 m 0,14,15
 438 303 438 303 438 269 c 128,-1,16
 438 235 438 235 385 212 c 0,17,18
 331 188 331 188 246 188 c 128,-1,19
 161 188 161 188 107 211 c 0,20,21
 54 235 54 235 53 269 c 0,22,23
 53 303 53 303 107 326 c 0,24,25
 160 350 160 350 246 350 c 0,26,27
 331 350 331 350 385 326 c 0,14,15
385 524 m 0,28,29
 438 501 438 501 438 467 c 128,-1,30
 438 433 438 433 385 410 c 0,31,32
 331 386 331 386 246 386 c 128,-1,33
 161 386 161 386 107 409 c 0,34,35
 54 433 54 433 53 467 c 0,36,37
 53 501 53 501 107 524 c 0,38,39
 160 548 160 548 246 548 c 0,40,41
 331 548 331 548 385 524 c 0,28,29
383.603515625 465.958984375 m 0,42,43
 384 483 384 483 348.958984375 494.26953125 c 0,44,45
 314 506 314 506 252.897460938 506.141601562 c 0,46,47
 185 505 185 505 155.260742188 494.26953125 c 0,48,49
 121 482 121 482 120.616210938 465.958984375 c 0,50,51
 121 449 121 449 155.260742188 437.6484375 c 0,52,53
 191.853515625 425.776367188 191.853515625 425.776367188 252.897460938 425.776367188 c 0,54,55
 308.721679688 425.98046875 308.721679688 425.98046875 348.958984375 437.6484375 c 0,56,57
 384 448 384 448 383.603515625 465.958984375 c 0,42,43
385 723 m 0,58,59
 438 700 438 700 438 666 c 128,-1,60
 438 632 438 632 385 609 c 0,61,62
 331 585 331 585 246 585 c 128,-1,63
 161 585 161 585 107 608 c 0,64,65
 54 632 54 632 53 666 c 0,66,67
 53 700 53 700 107 723 c 0,68,69
 160 747 160 747 246 747 c 0,70,71
 331 747 331 747 385 723 c 0,58,59
383.603515625 664.958984375 m 0,72,73
 384 682 384 682 348.958984375 693.26953125 c 0,74,75
 314 705 314 705 252.897460938 705.141601562 c 0,76,77
 185 704 185 704 155.260742188 693.26953125 c 0,78,79
 121 681 121 681 120.616210938 664.958984375 c 0,80,81
 121 648 121 648 155.260742188 636.6484375 c 0,82,83
 191.85387551 624.776367188 191.85387551 624.776367188 252.897460938 624.776367188 c 0,84,85
 308.721947902 624.980682544 308.721947902 624.980682544 348.958984375 636.6484375 c 0,86,87
 384 647 384 647 383.603515625 664.958984375 c 0,72,73
EndSplineSet
EndChar

StartChar: uni0094
Encoding: 148 148 115
Width: 490
Flags: W
LayerCount: 2
Fore
SplineSet
385 127 m 0,0,1
 438 104 438 104 438 70 c 128,-1,2
 438 36 438 36 385 13 c 0,3,4
 331 -11 331 -11 246 -11 c 128,-1,5
 161 -11 161 -11 107 12 c 0,6,7
 54 36 54 36 53 70 c 0,8,9
 53 104 53 104 107 127 c 0,10,11
 160 151 160 151 246 151 c 0,12,13
 331 151 331 151 385 127 c 0,0,1
383.603515625 68.958984375 m 0,14,15
 384 86 384 86 348.958984375 97.26953125 c 0,16,17
 314 109 314 109 252.897460938 109.141601562 c 0,18,19
 185 108 185 108 155.260742188 97.26953125 c 0,20,21
 121 85 121 85 120.616210938 68.958984375 c 0,22,23
 121 52 121 52 155.260742188 40.6484375 c 0,24,25
 191.853515625 28.7763671875 191.853515625 28.7763671875 252.897460938 28.7763671875 c 0,26,27
 308.721679688 28.98046875 308.721679688 28.98046875 348.958984375 40.6484375 c 0,28,29
 384 51 384 51 383.603515625 68.958984375 c 0,14,15
385 326 m 0,30,31
 438 303 438 303 438 269 c 128,-1,32
 438 235 438 235 385 212 c 0,33,34
 331 188 331 188 246 188 c 128,-1,35
 161 188 161 188 107 211 c 0,36,37
 54 235 54 235 53 269 c 0,38,39
 53 303 53 303 107 326 c 0,40,41
 160 350 160 350 246 350 c 0,42,43
 331 350 331 350 385 326 c 0,30,31
383.603515625 267.958984375 m 0,44,45
 384 285 384 285 348.958984375 296.26953125 c 0,46,47
 314 308 314 308 252.897460938 308.141601562 c 0,48,49
 185 307 185 307 155.260742188 296.26953125 c 0,50,51
 121 284 121 284 120.616210938 267.958984375 c 0,52,53
 121 251 121 251 155.260742188 239.6484375 c 0,54,55
 191.853515625 227.776367188 191.853515625 227.776367188 252.897460938 227.776367188 c 0,56,57
 308.721679688 227.98046875 308.721679688 227.98046875 348.958984375 239.6484375 c 0,58,59
 384 250 384 250 383.603515625 267.958984375 c 0,44,45
385 524 m 0,60,61
 438 501 438 501 438 467 c 128,-1,62
 438 433 438 433 385 410 c 0,63,64
 331 386 331 386 246 386 c 128,-1,65
 161 386 161 386 107 409 c 0,66,67
 54 433 54 433 53 467 c 0,68,69
 53 501 53 501 107 524 c 0,70,71
 160 548 160 548 246 548 c 0,72,73
 331 548 331 548 385 524 c 0,60,61
385 723 m 0,74,75
 438 700 438 700 438 666 c 128,-1,76
 438 632 438 632 385 609 c 0,77,78
 331 585 331 585 246 585 c 128,-1,79
 161 585 161 585 107 608 c 0,80,81
 54 632 54 632 53 666 c 0,82,83
 53 700 53 700 107 723 c 0,84,85
 160 747 160 747 246 747 c 0,86,87
 331 747 331 747 385 723 c 0,74,75
383.603515625 664.958984375 m 0,88,89
 384 682 384 682 348.958984375 693.26953125 c 0,90,91
 314 705 314 705 252.897460938 705.141601562 c 0,92,93
 185 704 185 704 155.260742188 693.26953125 c 0,94,95
 121 681 121 681 120.616210938 664.958984375 c 0,96,97
 121 648 121 648 155.260742188 636.6484375 c 0,98,99
 191.85387551 624.776367188 191.85387551 624.776367188 252.897460938 624.776367188 c 0,100,101
 308.721947902 624.980682544 308.721947902 624.980682544 348.958984375 636.6484375 c 0,102,103
 384 647 384 647 383.603515625 664.958984375 c 0,88,89
EndSplineSet
EndChar

StartChar: uni0095
Encoding: 149 149 116
Width: 490
Flags: W
LayerCount: 2
Fore
SplineSet
385 127 m 0,0,1
 438 104 438 104 438 70 c 128,-1,2
 438 36 438 36 385 13 c 0,3,4
 331 -11 331 -11 246 -11 c 128,-1,5
 161 -11 161 -11 107 12 c 0,6,7
 54 36 54 36 53 70 c 0,8,9
 53 104 53 104 107 127 c 0,10,11
 160 151 160 151 246 151 c 0,12,13
 331 151 331 151 385 127 c 0,0,1
385 326 m 0,14,15
 438 303 438 303 438 269 c 128,-1,16
 438 235 438 235 385 212 c 0,17,18
 331 188 331 188 246 188 c 128,-1,19
 161 188 161 188 107 211 c 0,20,21
 54 235 54 235 53 269 c 0,22,23
 53 303 53 303 107 326 c 0,24,25
 160 350 160 350 246 350 c 0,26,27
 331 350 331 350 385 326 c 0,14,15
383.603515625 267.958984375 m 0,28,29
 384 285 384 285 348.958984375 296.26953125 c 0,30,31
 314 308 314 308 252.897460938 308.141601562 c 0,32,33
 185 307 185 307 155.260742188 296.26953125 c 0,34,35
 121 284 121 284 120.616210938 267.958984375 c 0,36,37
 121 251 121 251 155.260742188 239.6484375 c 0,38,39
 191.853515625 227.776367188 191.853515625 227.776367188 252.897460938 227.776367188 c 0,40,41
 308.721679688 227.98046875 308.721679688 227.98046875 348.958984375 239.6484375 c 0,42,43
 384 250 384 250 383.603515625 267.958984375 c 0,28,29
385 524 m 0,44,45
 438 501 438 501 438 467 c 128,-1,46
 438 433 438 433 385 410 c 0,47,48
 331 386 331 386 246 386 c 128,-1,49
 161 386 161 386 107 409 c 0,50,51
 54 433 54 433 53 467 c 0,52,53
 53 501 53 501 107 524 c 0,54,55
 160 548 160 548 246 548 c 0,56,57
 331 548 331 548 385 524 c 0,44,45
385 723 m 0,58,59
 438 700 438 700 438 666 c 128,-1,60
 438 632 438 632 385 609 c 0,61,62
 331 585 331 585 246 585 c 128,-1,63
 161 585 161 585 107 608 c 0,64,65
 54 632 54 632 53 666 c 0,66,67
 53 700 53 700 107 723 c 0,68,69
 160 747 160 747 246 747 c 0,70,71
 331 747 331 747 385 723 c 0,58,59
383.603515625 664.958984375 m 0,72,73
 384 682 384 682 348.958984375 693.26953125 c 0,74,75
 314 705 314 705 252.897460938 705.141601562 c 0,76,77
 185 704 185 704 155.260742188 693.26953125 c 0,78,79
 121 681 121 681 120.616210938 664.958984375 c 0,80,81
 121 648 121 648 155.260742188 636.6484375 c 0,82,83
 191.85387551 624.776367188 191.85387551 624.776367188 252.897460938 624.776367188 c 0,84,85
 308.721947902 624.980682544 308.721947902 624.980682544 348.958984375 636.6484375 c 0,86,87
 384 647 384 647 383.603515625 664.958984375 c 0,72,73
EndSplineSet
EndChar

StartChar: uni0096
Encoding: 150 150 117
Width: 490
Flags: W
LayerCount: 2
Fore
SplineSet
385 127 m 0,0,1
 438 104 438 104 438 70 c 128,-1,2
 438 36 438 36 385 13 c 0,3,4
 331 -11 331 -11 246 -11 c 128,-1,5
 161 -11 161 -11 107 12 c 0,6,7
 54 36 54 36 53 70 c 0,8,9
 53 104 53 104 107 127 c 0,10,11
 160 151 160 151 246 151 c 0,12,13
 331 151 331 151 385 127 c 0,0,1
383.603515625 68.958984375 m 0,14,15
 384 86 384 86 348.958984375 97.26953125 c 0,16,17
 314 109 314 109 252.897460938 109.141601562 c 0,18,19
 185 108 185 108 155.260742188 97.26953125 c 0,20,21
 121 85 121 85 120.616210938 68.958984375 c 0,22,23
 121 52 121 52 155.260742188 40.6484375 c 0,24,25
 191.853515625 28.7763671875 191.853515625 28.7763671875 252.897460938 28.7763671875 c 0,26,27
 308.721679688 28.98046875 308.721679688 28.98046875 348.958984375 40.6484375 c 0,28,29
 384 51 384 51 383.603515625 68.958984375 c 0,14,15
385 326 m 0,30,31
 438 303 438 303 438 269 c 128,-1,32
 438 235 438 235 385 212 c 0,33,34
 331 188 331 188 246 188 c 128,-1,35
 161 188 161 188 107 211 c 0,36,37
 54 235 54 235 53 269 c 0,38,39
 53 303 53 303 107 326 c 0,40,41
 160 350 160 350 246 350 c 0,42,43
 331 350 331 350 385 326 c 0,30,31
385 524 m 0,44,45
 438 501 438 501 438 467 c 128,-1,46
 438 433 438 433 385 410 c 0,47,48
 331 386 331 386 246 386 c 128,-1,49
 161 386 161 386 107 409 c 0,50,51
 54 433 54 433 53 467 c 0,52,53
 53 501 53 501 107 524 c 0,54,55
 160 548 160 548 246 548 c 0,56,57
 331 548 331 548 385 524 c 0,44,45
385 723 m 0,58,59
 438 700 438 700 438 666 c 128,-1,60
 438 632 438 632 385 609 c 0,61,62
 331 585 331 585 246 585 c 128,-1,63
 161 585 161 585 107 608 c 0,64,65
 54 632 54 632 53 666 c 0,66,67
 53 700 53 700 107 723 c 0,68,69
 160 747 160 747 246 747 c 0,70,71
 331 747 331 747 385 723 c 0,58,59
383.603515625 664.958984375 m 0,72,73
 384 682 384 682 348.958984375 693.26953125 c 0,74,75
 314 705 314 705 252.897460938 705.141601562 c 0,76,77
 185 704 185 704 155.260742188 693.26953125 c 0,78,79
 121 681 121 681 120.616210938 664.958984375 c 0,80,81
 121 648 121 648 155.260742188 636.6484375 c 0,82,83
 191.85387551 624.776367188 191.85387551 624.776367188 252.897460938 624.776367188 c 0,84,85
 308.721947902 624.980682544 308.721947902 624.980682544 348.958984375 636.6484375 c 0,86,87
 384 647 384 647 383.603515625 664.958984375 c 0,72,73
EndSplineSet
EndChar

StartChar: uni0097
Encoding: 151 151 118
Width: 490
Flags: W
LayerCount: 2
Fore
SplineSet
385 127 m 0,0,1
 438 104 438 104 438 70 c 128,-1,2
 438 36 438 36 385 13 c 0,3,4
 331 -11 331 -11 246 -11 c 128,-1,5
 161 -11 161 -11 107 12 c 0,6,7
 54 36 54 36 53 70 c 0,8,9
 53 104 53 104 107 127 c 0,10,11
 160 151 160 151 246 151 c 0,12,13
 331 151 331 151 385 127 c 0,0,1
385 326 m 0,14,15
 438 303 438 303 438 269 c 128,-1,16
 438 235 438 235 385 212 c 0,17,18
 331 188 331 188 246 188 c 128,-1,19
 161 188 161 188 107 211 c 0,20,21
 54 235 54 235 53 269 c 0,22,23
 53 303 53 303 107 326 c 0,24,25
 160 350 160 350 246 350 c 0,26,27
 331 350 331 350 385 326 c 0,14,15
385 524 m 0,28,29
 438 501 438 501 438 467 c 128,-1,30
 438 433 438 433 385 410 c 0,31,32
 331 386 331 386 246 386 c 128,-1,33
 161 386 161 386 107 409 c 0,34,35
 54 433 54 433 53 467 c 0,36,37
 53 501 53 501 107 524 c 0,38,39
 160 548 160 548 246 548 c 0,40,41
 331 548 331 548 385 524 c 0,28,29
385 723 m 0,42,43
 438 700 438 700 438 666 c 128,-1,44
 438 632 438 632 385 609 c 0,45,46
 331 585 331 585 246 585 c 128,-1,47
 161 585 161 585 107 608 c 0,48,49
 54 632 54 632 53 666 c 0,50,51
 53 700 53 700 107 723 c 0,52,53
 160 747 160 747 246 747 c 0,54,55
 331 747 331 747 385 723 c 0,42,43
383.603515625 664.958984375 m 0,56,57
 384 682 384 682 348.958984375 693.26953125 c 0,58,59
 314 705 314 705 252.897460938 705.141601562 c 0,60,61
 185 704 185 704 155.260742188 693.26953125 c 0,62,63
 121 681 121 681 120.616210938 664.958984375 c 0,64,65
 121 648 121 648 155.260742188 636.6484375 c 0,66,67
 191.85387551 624.776367188 191.85387551 624.776367188 252.897460938 624.776367188 c 0,68,69
 308.721947902 624.980682544 308.721947902 624.980682544 348.958984375 636.6484375 c 0,70,71
 384 647 384 647 383.603515625 664.958984375 c 0,56,57
EndSplineSet
EndChar

StartChar: uni0098
Encoding: 152 152 119
Width: 490
Flags: W
LayerCount: 2
Fore
SplineSet
385 127 m 0,0,1
 438 104 438 104 438 70 c 128,-1,2
 438 36 438 36 385 13 c 0,3,4
 331 -11 331 -11 246 -11 c 128,-1,5
 161 -11 161 -11 107 12 c 0,6,7
 54 36 54 36 53 70 c 0,8,9
 53 104 53 104 107 127 c 0,10,11
 160 151 160 151 246 151 c 0,12,13
 331 151 331 151 385 127 c 0,0,1
383.603515625 68.958984375 m 0,14,15
 384 86 384 86 348.958984375 97.26953125 c 0,16,17
 314 109 314 109 252.897460938 109.141601562 c 0,18,19
 185 108 185 108 155.260742188 97.26953125 c 0,20,21
 121 85 121 85 120.616210938 68.958984375 c 0,22,23
 121 52 121 52 155.260742188 40.6484375 c 0,24,25
 191.853515625 28.7763671875 191.853515625 28.7763671875 252.897460938 28.7763671875 c 0,26,27
 308.721679688 28.98046875 308.721679688 28.98046875 348.958984375 40.6484375 c 0,28,29
 384 51 384 51 383.603515625 68.958984375 c 0,14,15
385 326 m 0,30,31
 438 303 438 303 438 269 c 128,-1,32
 438 235 438 235 385 212 c 0,33,34
 331 188 331 188 246 188 c 128,-1,35
 161 188 161 188 107 211 c 0,36,37
 54 235 54 235 53 269 c 0,38,39
 53 303 53 303 107 326 c 0,40,41
 160 350 160 350 246 350 c 0,42,43
 331 350 331 350 385 326 c 0,30,31
383.603515625 267.958984375 m 0,44,45
 384 285 384 285 348.958984375 296.26953125 c 0,46,47
 314 308 314 308 252.897460938 308.141601562 c 0,48,49
 185 307 185 307 155.260742188 296.26953125 c 0,50,51
 121 284 121 284 120.616210938 267.958984375 c 0,52,53
 121 251 121 251 155.260742188 239.6484375 c 0,54,55
 191.853515625 227.776367188 191.853515625 227.776367188 252.897460938 227.776367188 c 0,56,57
 308.721679688 227.98046875 308.721679688 227.98046875 348.958984375 239.6484375 c 0,58,59
 384 250 384 250 383.603515625 267.958984375 c 0,44,45
385 524 m 0,60,61
 438 501 438 501 438 467 c 128,-1,62
 438 433 438 433 385 410 c 0,63,64
 331 386 331 386 246 386 c 128,-1,65
 161 386 161 386 107 409 c 0,66,67
 54 433 54 433 53 467 c 0,68,69
 53 501 53 501 107 524 c 0,70,71
 160 548 160 548 246 548 c 0,72,73
 331 548 331 548 385 524 c 0,60,61
383.603515625 465.958984375 m 0,74,75
 384 483 384 483 348.958984375 494.26953125 c 0,76,77
 314 506 314 506 252.897460938 506.141601562 c 0,78,79
 185 505 185 505 155.260742188 494.26953125 c 0,80,81
 121 482 121 482 120.616210938 465.958984375 c 0,82,83
 121 449 121 449 155.260742188 437.6484375 c 0,84,85
 191.853515625 425.776367188 191.853515625 425.776367188 252.897460938 425.776367188 c 0,86,87
 308.721679688 425.98046875 308.721679688 425.98046875 348.958984375 437.6484375 c 0,88,89
 384 448 384 448 383.603515625 465.958984375 c 0,74,75
385 723 m 0,90,91
 438 700 438 700 438 666 c 128,-1,92
 438 632 438 632 385 609 c 0,93,94
 331 585 331 585 246 585 c 128,-1,95
 161 585 161 585 107 608 c 0,96,97
 54 632 54 632 53 666 c 0,98,99
 53 700 53 700 107 723 c 0,100,101
 160 747 160 747 246 747 c 0,102,103
 331 747 331 747 385 723 c 0,90,91
EndSplineSet
EndChar

StartChar: uni0099
Encoding: 153 153 120
Width: 490
Flags: W
LayerCount: 2
Fore
SplineSet
385 127 m 0,0,1
 438 104 438 104 438 70 c 128,-1,2
 438 36 438 36 385 13 c 0,3,4
 331 -11 331 -11 246 -11 c 128,-1,5
 161 -11 161 -11 107 12 c 0,6,7
 54 36 54 36 53 70 c 0,8,9
 53 104 53 104 107 127 c 0,10,11
 160 151 160 151 246 151 c 0,12,13
 331 151 331 151 385 127 c 0,0,1
385 326 m 0,14,15
 438 303 438 303 438 269 c 128,-1,16
 438 235 438 235 385 212 c 0,17,18
 331 188 331 188 246 188 c 128,-1,19
 161 188 161 188 107 211 c 0,20,21
 54 235 54 235 53 269 c 0,22,23
 53 303 53 303 107 326 c 0,24,25
 160 350 160 350 246 350 c 0,26,27
 331 350 331 350 385 326 c 0,14,15
383.603515625 267.958984375 m 0,28,29
 384 285 384 285 348.958984375 296.26953125 c 0,30,31
 314 308 314 308 252.897460938 308.141601562 c 0,32,33
 185 307 185 307 155.260742188 296.26953125 c 0,34,35
 121 284 121 284 120.616210938 267.958984375 c 0,36,37
 121 251 121 251 155.260742188 239.6484375 c 0,38,39
 191.853515625 227.776367188 191.853515625 227.776367188 252.897460938 227.776367188 c 0,40,41
 308.721679688 227.98046875 308.721679688 227.98046875 348.958984375 239.6484375 c 0,42,43
 384 250 384 250 383.603515625 267.958984375 c 0,28,29
385 524 m 0,44,45
 438 501 438 501 438 467 c 128,-1,46
 438 433 438 433 385 410 c 0,47,48
 331 386 331 386 246 386 c 128,-1,49
 161 386 161 386 107 409 c 0,50,51
 54 433 54 433 53 467 c 0,52,53
 53 501 53 501 107 524 c 0,54,55
 160 548 160 548 246 548 c 0,56,57
 331 548 331 548 385 524 c 0,44,45
383.603515625 465.958984375 m 0,58,59
 384 483 384 483 348.958984375 494.26953125 c 0,60,61
 314 506 314 506 252.897460938 506.141601562 c 0,62,63
 185 505 185 505 155.260742188 494.26953125 c 0,64,65
 121 482 121 482 120.616210938 465.958984375 c 0,66,67
 121 449 121 449 155.260742188 437.6484375 c 0,68,69
 191.853515625 425.776367188 191.853515625 425.776367188 252.897460938 425.776367188 c 0,70,71
 308.721679688 425.98046875 308.721679688 425.98046875 348.958984375 437.6484375 c 0,72,73
 384 448 384 448 383.603515625 465.958984375 c 0,58,59
385 723 m 0,74,75
 438 700 438 700 438 666 c 128,-1,76
 438 632 438 632 385 609 c 0,77,78
 331 585 331 585 246 585 c 128,-1,79
 161 585 161 585 107 608 c 0,80,81
 54 632 54 632 53 666 c 0,82,83
 53 700 53 700 107 723 c 0,84,85
 160 747 160 747 246 747 c 0,86,87
 331 747 331 747 385 723 c 0,74,75
EndSplineSet
EndChar

StartChar: uni009A
Encoding: 154 154 121
Width: 490
Flags: W
LayerCount: 2
Fore
SplineSet
385 127 m 0,0,1
 438 104 438 104 438 70 c 128,-1,2
 438 36 438 36 385 13 c 0,3,4
 331 -11 331 -11 246 -11 c 128,-1,5
 161 -11 161 -11 107 12 c 0,6,7
 54 36 54 36 53 70 c 0,8,9
 53 104 53 104 107 127 c 0,10,11
 160 151 160 151 246 151 c 0,12,13
 331 151 331 151 385 127 c 0,0,1
383.603515625 68.958984375 m 0,14,15
 384 86 384 86 348.958984375 97.26953125 c 0,16,17
 314 109 314 109 252.897460938 109.141601562 c 0,18,19
 185 108 185 108 155.260742188 97.26953125 c 0,20,21
 121 85 121 85 120.616210938 68.958984375 c 0,22,23
 121 52 121 52 155.260742188 40.6484375 c 0,24,25
 191.853515625 28.7763671875 191.853515625 28.7763671875 252.897460938 28.7763671875 c 0,26,27
 308.721679688 28.98046875 308.721679688 28.98046875 348.958984375 40.6484375 c 0,28,29
 384 51 384 51 383.603515625 68.958984375 c 0,14,15
385 326 m 0,30,31
 438 303 438 303 438 269 c 128,-1,32
 438 235 438 235 385 212 c 0,33,34
 331 188 331 188 246 188 c 128,-1,35
 161 188 161 188 107 211 c 0,36,37
 54 235 54 235 53 269 c 0,38,39
 53 303 53 303 107 326 c 0,40,41
 160 350 160 350 246 350 c 0,42,43
 331 350 331 350 385 326 c 0,30,31
385 524 m 0,44,45
 438 501 438 501 438 467 c 128,-1,46
 438 433 438 433 385 410 c 0,47,48
 331 386 331 386 246 386 c 128,-1,49
 161 386 161 386 107 409 c 0,50,51
 54 433 54 433 53 467 c 0,52,53
 53 501 53 501 107 524 c 0,54,55
 160 548 160 548 246 548 c 0,56,57
 331 548 331 548 385 524 c 0,44,45
383.603515625 465.958984375 m 0,58,59
 384 483 384 483 348.958984375 494.26953125 c 0,60,61
 314 506 314 506 252.897460938 506.141601562 c 0,62,63
 185 505 185 505 155.260742188 494.26953125 c 0,64,65
 121 482 121 482 120.616210938 465.958984375 c 0,66,67
 121 449 121 449 155.260742188 437.6484375 c 0,68,69
 191.853515625 425.776367188 191.853515625 425.776367188 252.897460938 425.776367188 c 0,70,71
 308.721679688 425.98046875 308.721679688 425.98046875 348.958984375 437.6484375 c 0,72,73
 384 448 384 448 383.603515625 465.958984375 c 0,58,59
385 723 m 0,74,75
 438 700 438 700 438 666 c 128,-1,76
 438 632 438 632 385 609 c 0,77,78
 331 585 331 585 246 585 c 128,-1,79
 161 585 161 585 107 608 c 0,80,81
 54 632 54 632 53 666 c 0,82,83
 53 700 53 700 107 723 c 0,84,85
 160 747 160 747 246 747 c 0,86,87
 331 747 331 747 385 723 c 0,74,75
EndSplineSet
EndChar

StartChar: uni009B
Encoding: 155 155 122
Width: 490
Flags: W
LayerCount: 2
Fore
SplineSet
385 127 m 0,0,1
 438 104 438 104 438 70 c 128,-1,2
 438 36 438 36 385 13 c 0,3,4
 331 -11 331 -11 246 -11 c 128,-1,5
 161 -11 161 -11 107 12 c 0,6,7
 54 36 54 36 53 70 c 0,8,9
 53 104 53 104 107 127 c 0,10,11
 160 151 160 151 246 151 c 0,12,13
 331 151 331 151 385 127 c 0,0,1
385 326 m 0,14,15
 438 303 438 303 438 269 c 128,-1,16
 438 235 438 235 385 212 c 0,17,18
 331 188 331 188 246 188 c 128,-1,19
 161 188 161 188 107 211 c 0,20,21
 54 235 54 235 53 269 c 0,22,23
 53 303 53 303 107 326 c 0,24,25
 160 350 160 350 246 350 c 0,26,27
 331 350 331 350 385 326 c 0,14,15
385 524 m 0,28,29
 438 501 438 501 438 467 c 128,-1,30
 438 433 438 433 385 410 c 0,31,32
 331 386 331 386 246 386 c 128,-1,33
 161 386 161 386 107 409 c 0,34,35
 54 433 54 433 53 467 c 0,36,37
 53 501 53 501 107 524 c 0,38,39
 160 548 160 548 246 548 c 0,40,41
 331 548 331 548 385 524 c 0,28,29
383.603515625 465.958984375 m 0,42,43
 384 483 384 483 348.958984375 494.26953125 c 0,44,45
 314 506 314 506 252.897460938 506.141601562 c 0,46,47
 185 505 185 505 155.260742188 494.26953125 c 0,48,49
 121 482 121 482 120.616210938 465.958984375 c 0,50,51
 121 449 121 449 155.260742188 437.6484375 c 0,52,53
 191.853515625 425.776367188 191.853515625 425.776367188 252.897460938 425.776367188 c 0,54,55
 308.721679688 425.98046875 308.721679688 425.98046875 348.958984375 437.6484375 c 0,56,57
 384 448 384 448 383.603515625 465.958984375 c 0,42,43
385 723 m 0,58,59
 438 700 438 700 438 666 c 128,-1,60
 438 632 438 632 385 609 c 0,61,62
 331 585 331 585 246 585 c 128,-1,63
 161 585 161 585 107 608 c 0,64,65
 54 632 54 632 53 666 c 0,66,67
 53 700 53 700 107 723 c 0,68,69
 160 747 160 747 246 747 c 0,70,71
 331 747 331 747 385 723 c 0,58,59
EndSplineSet
EndChar

StartChar: uni009C
Encoding: 156 156 123
Width: 490
Flags: W
LayerCount: 2
Fore
SplineSet
385 127 m 0,0,1
 438 104 438 104 438 70 c 128,-1,2
 438 36 438 36 385 13 c 0,3,4
 331 -11 331 -11 246 -11 c 128,-1,5
 161 -11 161 -11 107 12 c 0,6,7
 54 36 54 36 53 70 c 0,8,9
 53 104 53 104 107 127 c 0,10,11
 160 151 160 151 246 151 c 0,12,13
 331 151 331 151 385 127 c 0,0,1
383.603515625 68.958984375 m 0,14,15
 384 86 384 86 348.958984375 97.26953125 c 0,16,17
 314 109 314 109 252.897460938 109.141601562 c 0,18,19
 185 108 185 108 155.260742188 97.26953125 c 0,20,21
 121 85 121 85 120.616210938 68.958984375 c 0,22,23
 121 52 121 52 155.260742188 40.6484375 c 0,24,25
 191.853515625 28.7763671875 191.853515625 28.7763671875 252.897460938 28.7763671875 c 0,26,27
 308.721679688 28.98046875 308.721679688 28.98046875 348.958984375 40.6484375 c 0,28,29
 384 51 384 51 383.603515625 68.958984375 c 0,14,15
385 326 m 0,30,31
 438 303 438 303 438 269 c 128,-1,32
 438 235 438 235 385 212 c 0,33,34
 331 188 331 188 246 188 c 128,-1,35
 161 188 161 188 107 211 c 0,36,37
 54 235 54 235 53 269 c 0,38,39
 53 303 53 303 107 326 c 0,40,41
 160 350 160 350 246 350 c 0,42,43
 331 350 331 350 385 326 c 0,30,31
383.603515625 267.958984375 m 0,44,45
 384 285 384 285 348.958984375 296.26953125 c 0,46,47
 314 308 314 308 252.897460938 308.141601562 c 0,48,49
 185 307 185 307 155.260742188 296.26953125 c 0,50,51
 121 284 121 284 120.616210938 267.958984375 c 0,52,53
 121 251 121 251 155.260742188 239.6484375 c 0,54,55
 191.853515625 227.776367188 191.853515625 227.776367188 252.897460938 227.776367188 c 0,56,57
 308.721679688 227.98046875 308.721679688 227.98046875 348.958984375 239.6484375 c 0,58,59
 384 250 384 250 383.603515625 267.958984375 c 0,44,45
385 524 m 0,60,61
 438 501 438 501 438 467 c 128,-1,62
 438 433 438 433 385 410 c 0,63,64
 331 386 331 386 246 386 c 128,-1,65
 161 386 161 386 107 409 c 0,66,67
 54 433 54 433 53 467 c 0,68,69
 53 501 53 501 107 524 c 0,70,71
 160 548 160 548 246 548 c 0,72,73
 331 548 331 548 385 524 c 0,60,61
385 723 m 0,74,75
 438 700 438 700 438 666 c 128,-1,76
 438 632 438 632 385 609 c 0,77,78
 331 585 331 585 246 585 c 128,-1,79
 161 585 161 585 107 608 c 0,80,81
 54 632 54 632 53 666 c 0,82,83
 53 700 53 700 107 723 c 0,84,85
 160 747 160 747 246 747 c 0,86,87
 331 747 331 747 385 723 c 0,74,75
EndSplineSet
EndChar

StartChar: uni009D
Encoding: 157 157 124
Width: 490
Flags: W
LayerCount: 2
Fore
SplineSet
385 127 m 0,0,1
 438 104 438 104 438 70 c 128,-1,2
 438 36 438 36 385 13 c 0,3,4
 331 -11 331 -11 246 -11 c 128,-1,5
 161 -11 161 -11 107 12 c 0,6,7
 54 36 54 36 53 70 c 0,8,9
 53 104 53 104 107 127 c 0,10,11
 160 151 160 151 246 151 c 0,12,13
 331 151 331 151 385 127 c 0,0,1
385 326 m 0,14,15
 438 303 438 303 438 269 c 128,-1,16
 438 235 438 235 385 212 c 0,17,18
 331 188 331 188 246 188 c 128,-1,19
 161 188 161 188 107 211 c 0,20,21
 54 235 54 235 53 269 c 0,22,23
 53 303 53 303 107 326 c 0,24,25
 160 350 160 350 246 350 c 0,26,27
 331 350 331 350 385 326 c 0,14,15
383.603515625 267.958984375 m 0,28,29
 384 285 384 285 348.958984375 296.26953125 c 0,30,31
 314 308 314 308 252.897460938 308.141601562 c 0,32,33
 185 307 185 307 155.260742188 296.26953125 c 0,34,35
 121 284 121 284 120.616210938 267.958984375 c 0,36,37
 121 251 121 251 155.260742188 239.6484375 c 0,38,39
 191.853515625 227.776367188 191.853515625 227.776367188 252.897460938 227.776367188 c 0,40,41
 308.721679688 227.98046875 308.721679688 227.98046875 348.958984375 239.6484375 c 0,42,43
 384 250 384 250 383.603515625 267.958984375 c 0,28,29
385 524 m 0,44,45
 438 501 438 501 438 467 c 128,-1,46
 438 433 438 433 385 410 c 0,47,48
 331 386 331 386 246 386 c 128,-1,49
 161 386 161 386 107 409 c 0,50,51
 54 433 54 433 53 467 c 0,52,53
 53 501 53 501 107 524 c 0,54,55
 160 548 160 548 246 548 c 0,56,57
 331 548 331 548 385 524 c 0,44,45
385 723 m 0,58,59
 438 700 438 700 438 666 c 128,-1,60
 438 632 438 632 385 609 c 0,61,62
 331 585 331 585 246 585 c 128,-1,63
 161 585 161 585 107 608 c 0,64,65
 54 632 54 632 53 666 c 0,66,67
 53 700 53 700 107 723 c 0,68,69
 160 747 160 747 246 747 c 0,70,71
 331 747 331 747 385 723 c 0,58,59
EndSplineSet
EndChar

StartChar: uni009E
Encoding: 158 158 125
Width: 490
Flags: W
LayerCount: 2
Fore
SplineSet
385 127 m 0,0,1
 438 104 438 104 438 70 c 128,-1,2
 438 36 438 36 385 13 c 0,3,4
 331 -11 331 -11 246 -11 c 128,-1,5
 161 -11 161 -11 107 12 c 0,6,7
 54 36 54 36 53 70 c 0,8,9
 53 104 53 104 107 127 c 0,10,11
 160 151 160 151 246 151 c 0,12,13
 331 151 331 151 385 127 c 0,0,1
383.603515625 68.958984375 m 0,14,15
 384 86 384 86 348.958984375 97.26953125 c 0,16,17
 314 109 314 109 252.897460938 109.141601562 c 0,18,19
 185 108 185 108 155.260742188 97.26953125 c 0,20,21
 121 85 121 85 120.616210938 68.958984375 c 0,22,23
 121 52 121 52 155.260742188 40.6484375 c 0,24,25
 191.853515625 28.7763671875 191.853515625 28.7763671875 252.897460938 28.7763671875 c 0,26,27
 308.721679688 28.98046875 308.721679688 28.98046875 348.958984375 40.6484375 c 0,28,29
 384 51 384 51 383.603515625 68.958984375 c 0,14,15
385 326 m 0,30,31
 438 303 438 303 438 269 c 128,-1,32
 438 235 438 235 385 212 c 0,33,34
 331 188 331 188 246 188 c 128,-1,35
 161 188 161 188 107 211 c 0,36,37
 54 235 54 235 53 269 c 0,38,39
 53 303 53 303 107 326 c 0,40,41
 160 350 160 350 246 350 c 0,42,43
 331 350 331 350 385 326 c 0,30,31
385 524 m 0,44,45
 438 501 438 501 438 467 c 128,-1,46
 438 433 438 433 385 410 c 0,47,48
 331 386 331 386 246 386 c 128,-1,49
 161 386 161 386 107 409 c 0,50,51
 54 433 54 433 53 467 c 0,52,53
 53 501 53 501 107 524 c 0,54,55
 160 548 160 548 246 548 c 0,56,57
 331 548 331 548 385 524 c 0,44,45
385 723 m 0,58,59
 438 700 438 700 438 666 c 128,-1,60
 438 632 438 632 385 609 c 0,61,62
 331 585 331 585 246 585 c 128,-1,63
 161 585 161 585 107 608 c 0,64,65
 54 632 54 632 53 666 c 0,66,67
 53 700 53 700 107 723 c 0,68,69
 160 747 160 747 246 747 c 0,70,71
 331 747 331 747 385 723 c 0,58,59
EndSplineSet
EndChar

StartChar: uni009F
Encoding: 159 159 126
Width: 490
Flags: W
LayerCount: 2
Fore
SplineSet
385 124 m 0,0,1
 438 102 438 102 438 67 c 0,2,3
 438 34 438 34 385 10 c 0,4,5
 331 -14 331 -14 246 -14 c 128,-1,6
 161 -14 161 -14 107 9 c 0,7,8
 55 32 55 32 53 67 c 0,9,10
 55 102 55 102 107 124 c 0,11,12
 160 148 160 148 246 148 c 0,13,14
 331 148 331 148 385 124 c 0,0,1
385 321 m 0,15,16
 438 299 438 299 438 264 c 128,-1,17
 438 229 438 229 385 207 c 0,18,19
 331 183 331 183 246 183 c 0,20,21
 160 183 160 183 107 207 c 0,22,23
 53 230 53 230 53 264 c 256,24,25
 53 298 53 298 107 321 c 0,26,27
 160 345 160 345 246 345 c 0,28,29
 331 345 331 345 385 321 c 0,15,16
385 526 m 0,30,31
 438 504 438 504 438 469 c 128,-1,32
 438 434 438 434 385 412 c 0,33,34
 331 388 331 388 246 388 c 128,-1,35
 161 388 161 388 107 411 c 0,36,37
 55 434 55 434 53 469 c 0,38,39
 55 504 55 504 107 526 c 0,40,41
 160 550 160 550 246 550 c 0,42,43
 331 550 331 550 385 526 c 0,30,31
385 723 m 0,44,45
 438 700 438 700 438 666 c 128,-1,46
 438 632 438 632 385 609 c 0,47,48
 331 585 331 585 246 585 c 128,-1,49
 161 585 161 585 107 608 c 0,50,51
 54 632 54 632 53 666 c 0,52,53
 53 700 53 700 107 723 c 0,54,55
 160 747 160 747 246 747 c 0,56,57
 331 747 331 747 385 723 c 0,44,45
EndSplineSet
EndChar

StartChar: exclamdown
Encoding: 161 161 128
Width: 930
Flags: W
LayerCount: 2
Fore
SplineSet
536.551757812 337.200195312 m 5,0,-1
 446.974609375 339 l 6,1,2
 380.311523438 339 380.311523438 339 349.7578125 337.799804688 c 5,3,4
 342.120117188 318 342.120117188 318 327.884765625 275.700195312 c 132,-1,5
 313.649414062 233.400390625 313.649414062 233.400390625 304.622070312 210 c 132,-1,6
 295.594726562 186.599609375 295.594726562 186.599609375 272.6796875 186.599609375 c 4,7,8
 259.486328125 186.599609375 259.486328125 186.599609375 251.500976562 193.799804688 c 132,-1,9
 243.515625 201 243.515625 201 243.515625 209.700195312 c 132,-1,10
 243.515625 218.400390625 243.515625 218.400390625 244.556640625 223.799804688 c 132,-1,11
 245.59765625 229.200195312 245.59765625 229.200195312 249.416992188 240 c 132,-1,12
 253.236328125 250.799804688 253.236328125 250.799804688 257.40234375 260.400390625 c 4,13,14
 277.541015625 312 277.541015625 312 286.567382812 336 c 5,15,16
 266.430664062 336 266.430664062 336 254.97265625 343.5 c 132,-1,17
 243.515625 351 243.515625 351 243.515625 363.599609375 c 4,18,19
 243.515625 391.799804688 243.515625 391.799804688 294.900390625 391.799804688 c 6,20,-1
 307.400390625 391.799804688 l 5,21,22
 374.061523438 552.599609375 374.061523438 552.599609375 384.130859375 575.700195312 c 132,-1,23
 394.200195312 598.799804688 394.200195312 598.799804688 395.587890625 602.400390625 c 132,-1,24
 396.9765625 606 396.9765625 606 400.1015625 612.900390625 c 132,-1,25
 403.2265625 619.799804688 403.2265625 619.799804688 405.657226562 623.099609375 c 132,-1,26
 408.086914062 626.400390625 408.086914062 626.400390625 411.559570312 631.200195312 c 132,-1,27
 415.03125 636 415.03125 636 418.15625 638.700195312 c 132,-1,28
 421.28125 641.400390625 421.28125 641.400390625 425.447265625 643.799804688 c 4,29,30
 434.475585938 648.599609375 434.475585938 648.599609375 444.543945312 648.599609375 c 132,-1,31
 454.612304688 648.599609375 454.612304688 648.599609375 460.862304688 646.799804688 c 132,-1,32
 467.111328125 645 467.111328125 645 472.666992188 640.200195312 c 132,-1,33
 478.221679688 635.400390625 478.221679688 635.400390625 482.041015625 630 c 132,-1,34
 485.860351562 624.599609375 485.860351562 624.599609375 491.068359375 613.200195312 c 132,-1,35
 496.276367188 601.799804688 496.276367188 601.799804688 500.442382812 592.200195312 c 4,36,37
 533.774414062 504 533.774414062 504 583.770507812 391.799804688 c 5,38,-1
 608.76953125 392.400390625 l 6,39,40
 626.82421875 392.400390625 626.82421875 392.400390625 638.28125 384 c 132,-1,41
 649.739257812 375.599609375 649.739257812 375.599609375 649.739257812 363 c 4,42,43
 649.739257812 336.599609375 649.739257812 336.599609375 603.908203125 334.799804688 c 5,44,45
 610.852539062 315.599609375 610.852539062 315.599609375 622.657226562 286.200195312 c 4,46,47
 649.739257812 222.599609375 649.739257812 222.599609375 649.739257812 212.700195312 c 132,-1,48
 649.739257812 202.799804688 649.739257812 202.799804688 641.752929688 194.700195312 c 132,-1,49
 633.767578125 186.599609375 633.767578125 186.599609375 619.879882812 186.599609375 c 4,50,51
 594.880859375 186.599609375 594.880859375 186.599609375 583.770507812 210 c 4,52,53
 571.965820312 239.400390625 571.965820312 239.400390625 536.551757812 337.200195312 c 5,0,-1
367.1171875 389.400390625 m 5,54,55
 411.559570312 388.200195312 411.559570312 388.200195312 452.875976562 388.200195312 c 132,-1,56
 494.192382812 388.200195312 494.192382812 388.200195312 519.19140625 389.400390625 c 5,57,58
 446.280273438 570.599609375 446.280273438 570.599609375 444.890625 570.599609375 c 4,59,60
 440.724609375 570.599609375 440.724609375 570.599609375 385.171875 435 c 6,61,-1
 367.1171875 389.400390625 l 5,54,55
780 376 m 0,62,63
 780 270 780 270 736 183 c 0,64,65
 695 97 695 97 620 43 c 1,66,67
 640 11 640 11 642 8 c 0,68,69
 672 -37 672 -37 672 -54 c 128,-1,70
 672 -71 672 -71 661 -82 c 0,71,72
 650 -94 650 -94 630 -94 c 0,73,74
 610.5 -94 610.5 -94 594 -67 c 2,75,-1
 555 3 l 1,76,77
 496 -15 496 -15 439 -15 c 0,78,79
 294 -15 294 -15 197 99 c 0,80,81
 100 212 100 212 100 376 c 0,82,83
 100 539 100 539 198 652 c 128,-1,84
 296 765 296 765 442 765 c 0,85,86
 586 765 586 765 684 652 c 0,87,88
 780 539.5 780 539.5 780 376 c 0,62,63
721.349609375 377.080078125 m 0,89,90
 721 510 721 510 642 608.16015625 c 0,91,92
 563 707 563 707 440.75 707.349609375 c 0,93,94
 322.675441852 707.007746249 322.675441852 707.007746249 240.650390625 608.16015625 c 0,95,96
 160 511 160 511 160.150390625 379.259765625 c 0,97,98
 160 246 160 246 240.650390625 146 c 0,99,100
 322 46 322 46 440.75 45.7197265625 c 0,101,102
 486 46 486 46 523.549804688 55.5302734375 c 1,103,-1
 585.650390625 93.6796875 l 1,104,105
 648.621548153 139.277738983 648.621548153 139.277738983 684.549804688 215.759765625 c 0,106,107
 721 294 721 294 721.349609375 377.080078125 c 0,89,90
EndSplineSet
EndChar

StartChar: cent
Encoding: 162 162 129
Width: 810
Flags: W
LayerCount: 2
Fore
SplineSet
648 367 m 1,0,1
 648 255 648 255 662.5 177.5 c 128,-1,2
 677 100 677 100 698 90 c 0,3,4
 706 86 706 86 717 84.5 c 128,-1,5
 728 83 728 83 733 80 c 128,-1,6
 738 77 738 77 738 69 c 0,7,8
 738 33 738 33 718 10 c 128,-1,9
 698 -13 698 -13 665 -13 c 0,10,11
 621 -13 621 -13 599 37 c 128,-1,12
 577 87 577 87 577 165 c 1,13,14
 524 81 524 81 465.5 33 c 128,-1,15
 407 -15 407 -15 334.5 -15 c 128,-1,16
 262 -15 262 -15 212 19.5 c 128,-1,17
 162 54 162 54 132 110 c 0,18,19
 72 225 72 225 72 363 c 0,20,21
 72 527 72 527 157 646 c 128,-1,22
 242 765 242 765 377 765 c 0,23,24
 429 765 429 765 478.5 745.5 c 128,-1,25
 528 726 528 726 561 696 c 1,26,27
 561 765 561 765 612 765 c 0,28,29
 675 765 675 765 675 664 c 0,30,31
 675 589 675 589 648 367 c 1,0,1
569 355 m 1,32,-1
 563 600 l 1,33,34
 478 678 478 678 377 678 c 0,35,36
 294 678 294 678 231 588.5 c 128,-1,37
 168 499 168 499 168 371 c 128,-1,38
 168 243 168 243 211.5 157.5 c 128,-1,39
 255 72 255 72 329.5 72 c 128,-1,40
 404 72 404 72 479.5 167 c 128,-1,41
 555 262 555 262 569 355 c 1,32,-1
484.5 986 m 132,-1,43
 514 956 514 956 514 913.5 c 132,-1,44
 514 871 514 871 485.5 843 c 132,-1,45
 457 815 457 815 411 815 c 132,-1,46
 365 815 365 815 336.5 843 c 132,-1,47
 308 871 308 871 308 914 c 132,-1,48
 308 957 308 957 337.5 986.5 c 132,-1,49
 367 1016 367 1016 411 1016 c 132,-1,42
 455 1016 455 1016 484.5 986 c 132,-1,43
449 914 m 132,-1,51
 449 929 449 929 437 942 c 132,-1,52
 425 955 425 955 410.5 955 c 132,-1,53
 396 955 396 955 384.5 942.5 c 132,-1,54
 373 930 373 930 373 914.5 c 132,-1,55
 373 899 373 899 384 887 c 132,-1,56
 395 875 395 875 410.5 875 c 132,-1,57
 426 875 426 875 437.5 887 c 132,-1,50
 449 899 449 899 449 914 c 132,-1,51
EndSplineSet
EndChar

StartChar: sterling
Encoding: 163 163 130
Width: 267
Flags: W
LayerCount: 2
Fore
SplineSet
174 742 m 0,0,1
 188 724 188 724 188 698 c 0,2,3
 188 674 188 674 172 653 c 0,4,5
 154 633 154 633 130 633 c 0,6,7
 106 633 106 633 92 650 c 0,8,9
 79 666 79 666 79 692 c 0,10,11
 79 717 79 717 96 739 c 0,12,13
 113 760 113 760 137 760 c 0,14,15
 162 760 162 760 174 742 c 0,0,1
177 278 m 1,16,-1
 185 50 l 2,17,18
 185 22 185 22 172 2 c 0,19,20
 157 -15 157 -15 134 -15 c 0,21,22
 111 -15 111 -15 96 2 c 0,23,24
 83 21 83 21 83 50 c 2,25,-1
 90 278 l 1,26,-1
 89 479 l 2,27,28
 89 505 89 505 101 520 c 0,29,30
 113 535 113 535 134 535 c 0,31,32
 155 535 155 535 167 520 c 0,33,34
 179 505 179 505 179 479 c 2,35,-1
 177 278 l 1,16,-1
EndSplineSet
EndChar

StartChar: currency
Encoding: 164 164 131
Width: 819
Flags: W
LayerCount: 2
Fore
SplineSet
202 646 m 1,0,-1
 191 314 l 2,1,2
 191 207 191 207 228 138 c 0,3,4
 267 72 267 72 342 72 c 0,5,6
 419 72 419 72 490 162 c 0,7,8
 560.5 250.5 560.5 250.5 574 360 c 1,9,-1
 570 688 l 2,10,11
 570 757 570 757 621 757 c 0,12,13
 683 757 683 757 683 655 c 0,14,15
 683 554 683 554 656 360 c 1,16,17
 656 252 656 252 670 174 c 0,18,19
 685 97 685 97 706 88 c 0,20,21
 709 86 709 86 726 82 c 0,22,23
 736 82 736 82 742 78 c 0,24,25
 747 75 747 75 747 67 c 0,26,27
 747 29 747 29 725 8 c 0,28,29
 703 -15 703 -15 669 -15 c 0,30,31
 584 -15 584 -15 584 158 c 1,32,33
 483 -15 483 -15 332 -15 c 0,34,35
 252 -15 252 -15 196 30 c 0,36,37
 96 114 96 114 96 297 c 1,38,-1
 104 536 l 2,39,40
 104 587 104 587 93 636 c 0,41,42
 82 685 82 685 82 702 c 0,43,44
 82 724 82 724 98 740 c 0,45,46
 115 757 115 757 140 757 c 0,47,48
 202 757 202 757 202 646 c 1,0,-1
EndSplineSet
EndChar

StartChar: yen
Encoding: 165 165 132
Width: 745
Flags: W
LayerCount: 2
Fore
SplineSet
596 553 m 0,0,1
 596 599 596 599 558 639 c 0,2,3
 519 678 519 678 452 678 c 0,4,5
 384 678 384 678 334 638 c 0,6,7
 240 565 240 565 213 421 c 1,8,9
 289.5 400 289.5 400 384 400 c 0,10,11
 480 400 480 400 538 440 c 0,12,13
 596 480 596 480 596 553 c 0,0,1
597 28 m 0,14,15
 527 -15 527 -15 444 -15 c 0,16,17
 362 -15 362 -15 301 16 c 0,18,19
 239 48 239 48 201 99 c 0,20,21
 120 207 120 207 114 352 c 1,22,23
 42 374 42 374 42 423 c 0,24,25
 42 443 42 443 54 454 c 0,26,27
 65 466 65 466 80 466 c 0,28,29
 95 466 95 466 122 454 c 1,30,31
 154 589 154 589 238 676 c 0,32,33
 324 765 324 765 448 765 c 0,34,35
 550 765 550 765 620 704 c 0,36,37
 692 642.5 692 642.5 692 557 c 0,38,39
 692 472 692 472 648 416 c 0,40,41
 565 315 565 315 390 315 c 0,42,43
 320 315 320 315 211 335 c 1,44,45
 220 227 220 227 282 150 c 0,46,47
 345 72 345 72 432 72 c 0,48,49
 519 72 519 72 593 121 c 0,50,51
 626 139 626 139 638 139 c 0,52,53
 649 139 649 139 658 130 c 0,54,55
 668 120 668 120 668 106 c 0,56,57
 668 72 668 72 597 28 c 0,14,15
EndSplineSet
EndChar

StartChar: brokenbar
Encoding: 166 166 133
Width: 824
Flags: W
LayerCount: 2
Fore
SplineSet
586 164 m 0,0,1
 656 255 656 255 656 377 c 0,2,3
 656 498 656 498 587 588 c 0,4,5
 518 679 518 679 412 679 c 0,6,7
 307 679 307 679 238 588 c 0,8,9
 168 499 168 499 168 378 c 0,10,11
 168 256 168 256 238 164 c 0,12,13
 309 72 309 72 412 72 c 0,14,15
 517 72 517 72 586 164 c 0,0,1
752 376 m 0,16,17
 752 212 752 212 654 99 c 0,18,19
 558 -15 558 -15 412 -15 c 0,20,21
 266 -15 266 -15 169 99 c 0,22,23
 72 212 72 212 72 376 c 0,24,25
 72 539 72 539 170 652 c 0,26,27
 268 765 268 765 414 765 c 0,28,29
 558 765 558 765 656 652 c 0,30,31
 752 539.5 752 539.5 752 376 c 0,16,17
EndSplineSet
EndChar

StartChar: section
Encoding: 167 167 134
Width: 616
Flags: W
LayerCount: 2
Fore
SplineSet
513.177734375 159.572265625 m 6,0,-1
 514.657226562 31.1083984375 l 6,1,2
 514.657226562 1.271484375 514.657226562 1.271484375 488.501953125 1.271484375 c 4,3,4
 472.215820312 1.271484375 472.215820312 1.271484375 463.827148438 14.1171875 c 6,5,-1
 307.387695312 240.380859375 l 5,6,7
 307.387695312 143.825195312 307.387695312 143.825195312 308.62109375 86.22265625 c 132,-1,8
 309.85546875 28.6220703125 309.85546875 28.6220703125 309.85546875 21.7841796875 c 132,-1,9
 309.85546875 14.9462890625 309.85546875 14.9462890625 302.452148438 8.1083984375 c 132,-1,10
 295.049804688 1.271484375 295.049804688 1.271484375 284.93359375 1.271484375 c 132,-1,11
 274.815429688 1.271484375 274.815429688 1.271484375 267.661132812 8.1083984375 c 132,-1,12
 260.504882812 14.9462890625 260.504882812 14.9462890625 260.504882812 25.306640625 c 6,13,-1
 262.478515625 159.572265625 l 6,14,15
 262.478515625 202.255859375 262.478515625 202.255859375 261.244140625 246.181640625 c 132,-1,16
 260.010742188 290.108398438 260.010742188 290.108398438 260.010742188 290.9375 c 4,17,18
 260.010742188 320.360351562 260.010742188 320.360351562 285.1796875 320.360351562 c 4,19,20
 303.439453125 320.360351562 303.439453125 320.360351562 312.322265625 307.512695312 c 4,21,22
 455.930664062 100.3125 455.930664062 100.3125 468.762695312 83.7373046875 c 5,23,24
 468.762695312 201.01171875 468.762695312 201.01171875 467.280273438 245.352539062 c 132,-1,25
 465.80078125 289.693359375 465.80078125 289.693359375 465.80078125 290.9375 c 4,26,27
 465.80078125 320.360351562 465.80078125 320.360351562 490.969726562 320.360351562 c 132,-1,28
 516.137695312 320.360351562 516.137695312 320.360351562 516.137695312 290.9375 c 4,29,30
 516.137695312 287.622070312 516.137695312 287.622070312 515.150390625 268.973632812 c 4,31,32
 513.177734375 213.858398438 513.177734375 213.858398438 513.177734375 159.572265625 c 6,0,-1
284 440 m 1,33,-1
 454 445 l 2,34,35
 481 445 481 445 497 432 c 0,36,37
 513 420 513 420 513 399 c 0,38,39
 513 355 513 355 454 355 c 2,40,-1
 284 359 l 2,41,42
 232 359 232 359 217 358 c 1,43,44
 217 227.5 217 227.5 220 148 c 128,-1,45
 223 68.5 223 68.5 223 61 c 0,46,47
 223 -10 223 -10 172 -10 c 128,-1,48
 121 -10 121 -10 121 61 c 0,49,50
 121 82 121 82 122 108 c 0,51,52
 127 238 127 238 127 355 c 1,53,54
 60 355 60 355 60 399 c 0,55,56
 60 422 60 422 79 434 c 0,57,58
 99 445 99 445 127 445 c 1,59,60
 126 624 126 624 120 670 c 1,61,62
 108 690 108 690 108 710 c 0,63,64
 108 755 108 755 170 755 c 2,65,-1
 355 750 l 1,66,-1
 515 756 l 2,67,68
 543 756 543 756 558 744 c 0,69,70
 575 731 575 731 575 709 c 128,-1,71
 575 687 575 687 558 674 c 0,72,73
 543 662 543 662 515 662 c 2,74,-1
 355 668 l 2,75,76
 284 668 284 668 217 663 c 1,77,-1
 217 441 l 1,78,79
 230 440 230 440 284 440 c 1,33,-1
EndSplineSet
EndChar

StartChar: dieresis
Encoding: 168 168 135
Width: 604
Flags: W
LayerCount: 2
Fore
SplineSet
34 260 m 0,0,1
 34 280 34 280 43 297 c 0,2,3
 53 314 53 314 76 328 c 0,4,5
 85 334 85 334 100 342 c 128,-1,6
 115 350 115 350 120 353 c 0,7,8
 139.5 362 139.5 362 186 380 c 0,9,10
 251 407 251 407 261 412 c 0,11,12
 296 427 296 427 331 443 c 0,13,14
 385 467 385 467 392 470 c 0,15,16
 418 483 418 483 438 490 c 0,17,18
 481 507 481 507 503 507 c 0,19,20
 523 507 523 507 535 495 c 0,21,22
 548 485 548 485 548 465 c 0,23,24
 548 435 548 435 512 417 c 0,25,26
 442 389 442 389 410 376 c 0,27,28
 350 353 350 353 322 340 c 0,29,30
 159 271 159 271 159 260 c 0,31,32
 159 252 159 252 281 199 c 2,33,-1
 321 181 l 2,34,35
 349 168 349 168 409 145 c 0,36,37
 470.5 119.5 470.5 119.5 511 103 c 0,38,39
 547 86.5 547 86.5 547 55 c 0,40,41
 547 37 547 37 534 25 c 0,42,43
 522 13 522 13 507 13 c 0,44,45
 490 13 490 13 477 17 c 0,46,47
 452 25 452 25 437 31 c 0,48,49
 417 38 417 38 391 51 c 0,50,51
 282 100 282 100 206 132 c 0,52,53
 136 160 136 160 120 168 c 0,54,55
 105 175 105 175 76 192 c 0,56,57
 51 209 51 209 43 224 c 0,58,59
 34 239 34 239 34 260 c 0,0,1
182 50 m 2,60,61
 182 24 182 24 169 7 c 0,62,63
 155 -10 155 -10 136 -10 c 0,64,65
 112 -10 112 -10 104 7 c 0,66,67
 91 34 91 34 91 50 c 2,68,-1
 96 377 l 1,69,-1
 96 629 l 1,70,-1
 92 738 l 1,71,72
 114 760 114 760 136 760 c 0,73,74
 162 760 162 760 181 738 c 1,75,-1
 177 629 l 1,76,-1
 181 308 l 1,77,-1
 182 50 l 2,60,61
EndSplineSet
EndChar

StartChar: copyright
Encoding: 169 169 136
Width: 558
Flags: W
LayerCount: 2
Fore
SplineSet
429 482 m 1,0,-1
 429 633 l 1,1,2
 367 695 367 695 293 695 c 0,3,4
 235 695 235 695 170 624 c 0,5,6
 113 561 113 561 122 490 c 0,7,8
 128 419 128 419 161 364 c 0,9,10
 193 311 193 311 253 311 c 0,11,12
 318 311 318 311 350 346 c 0,13,14
 400 397 400 397 429 482 c 1,0,-1
427 714 m 1,15,16
 429 764 429 764 470 764 c 0,17,18
 525 764 525 764 521 691 c 0,19,20
 512 530 512 530 512 491 c 2,21,-1
 512 298 l 2,22,23
 512 160 512 160 443 75 c 0,24,25
 373 -10 373 -10 250 -10 c 0,26,27
 182 -10 182 -10 119 17 c 0,28,29
 57 44 57 44 57 98 c 0,30,31
 57 125 57 125 82 125 c 0,32,33
 91 125 91 125 140 105 c 0,34,35
 185 86 185 86 250 86 c 0,36,37
 313 86 313 86 378 139 c 0,38,39
 418 170 418 170 418 250 c 0,40,41
 418 287 418 287 412 326 c 1,42,43
 400 306 400 306 350 265 c 0,44,45
 302 223 302 223 242 223 c 0,46,47
 132 223 132 223 74 311 c 0,48,49
 24 388 24 388 24 496 c 0,50,51
 24 592 24 592 99 678 c 0,52,53
 174 764 174 764 287 764 c 0,54,55
 363 764 363 764 427 714 c 1,15,16
EndSplineSet
EndChar

